{"glyphs":{"0":{"ha":1389,"x_min":174,"x_max":1215,"o":"m 174 347 l 174 868 l 521 1215 l 868 1215 l 1215 868 l 1215 347 l 868 0 l 521 0 l 174 347 m 347 434 l 608 174 l 781 174 l 1042 434 l 1042 781 l 781 1042 l 608 1042 l 347 781 l 347 434 z "},"1":{"ha":1389,"x_min":174,"x_max":1215,"o":"m 174 0 l 174 174 l 608 174 l 608 868 l 260 868 l 260 1042 l 608 1042 l 608 1215 l 781 1215 l 781 174 l 1215 174 l 1215 0 l 174 0 z "},"2":{"ha":1389,"x_min":174,"x_max":1215,"o":"m 174 0 l 174 174 l 434 434 l 955 694 l 1042 781 l 1042 955 l 955 1042 l 521 1042 l 347 868 l 174 868 l 174 955 l 434 1215 l 1042 1215 l 1215 1042 l 1215 694 l 1042 521 l 521 260 l 434 174 l 1215 174 l 1215 0 l 174 0 z "},"3":{"ha":1389,"x_min":174,"x_max":1215,"o":"m 174 260 l 174 347 l 347 347 l 521 174 l 955 174 l 1042 260 l 1042 347 l 868 521 l 521 521 l 521 694 l 868 694 l 1042 868 l 1042 955 l 955 1042 l 521 1042 l 347 868 l 174 868 l 174 955 l 434 1215 l 1042 1215 l 1215 1042 l 1215 781 l 1042 608 l 1215 434 l 1215 174 l 1042 0 l 434 0 l 174 260 z "},"4":{"ha":1389,"x_min":174,"x_max":1215,"o":"m 174 347 l 174 521 l 868 1215 l 1042 1215 l 1042 521 l 1215 521 l 1215 347 l 1042 347 l 1042 0 l 868 0 l 868 347 l 174 347 m 434 521 l 868 521 l 868 955 l 434 521 z "},"5":{"ha":1389,"x_min":174,"x_max":1215,"o":"m 174 260 l 174 347 l 347 347 l 521 174 l 868 174 l 1042 347 l 1042 521 l 868 694 l 174 694 l 174 1215 l 1215 1215 l 1215 1042 l 347 1042 l 347 868 l 955 868 l 1215 608 l 1215 260 l 955 0 l 434 0 l 174 260 z "},"6":{"ha":1389,"x_min":174,"x_max":1215,"o":"m 174 260 l 174 868 l 521 1215 l 955 1215 l 955 1042 l 608 1042 l 347 781 l 347 694 l 1042 694 l 1215 521 l 1215 174 l 1042 0 l 434 0 l 174 260 m 347 347 l 521 174 l 955 174 l 1042 260 l 1042 434 l 955 521 l 347 521 l 347 347 z "},"7":{"ha":1389,"x_min":174,"x_max":1215,"o":"m 174 1042 l 174 1215 l 1215 1215 l 1215 781 l 694 260 l 694 0 l 521 0 l 521 347 l 1042 868 l 1042 1042 l 174 1042 z "},"8":{"ha":1389,"x_min":174,"x_max":1215,"o":"m 174 174 l 174 434 l 347 608 l 174 781 l 174 1042 l 347 1215 l 1042 1215 l 1215 1042 l 1215 781 l 1042 608 l 1215 434 l 1215 174 l 1042 0 l 347 0 l 174 174 m 347 260 l 434 174 l 955 174 l 1042 260 l 1042 347 l 868 521 l 521 521 l 347 347 l 347 260 m 347 868 l 521 694 l 868 694 l 1042 868 l 1042 955 l 955 1042 l 434 1042 l 347 955 l 347 868 z "},"9":{"ha":1389,"x_min":174,"x_max":1215,"o":"m 174 694 l 174 1042 l 347 1215 l 955 1215 l 1215 955 l 1215 347 l 868 0 l 434 0 l 434 174 l 781 174 l 1042 434 l 1042 521 l 347 521 l 174 694 m 347 781 l 434 694 l 1042 694 l 1042 868 l 868 1042 l 434 1042 l 347 955 l 347 781 z "},"Ɛ":{"ha":1389,"x_min":347,"x_max":1042,"o":"m 347 0 l 347 1215 l 1042 1215 l 1042 0 l 347 0 m 434 87 l 955 87 l 955 1128 l 434 1128 l 434 87 z "},"Ƒ":{"ha":1389,"x_min":347,"x_max":1042,"o":"m 347 0 l 347 1215 l 1042 1215 l 1042 0 l 347 0 m 434 87 l 955 87 l 955 1128 l 434 1128 l 434 87 z "},"˴":{"ha":1389,"x_min":347,"x_max":1042,"o":"m 347 0 l 347 1215 l 1042 1215 l 1042 0 l 347 0 m 434 87 l 955 87 l 955 1128 l 434 1128 l 434 87 z "},"˵":{"ha":1389,"x_min":347,"x_max":1042,"o":"m 347 0 l 347 1215 l 1042 1215 l 1042 0 l 347 0 m 434 87 l 955 87 l 955 1128 l 434 1128 l 434 87 z "},"˶":{"ha":1389,"x_min":347,"x_max":1042,"o":"m 347 0 l 347 1215 l 1042 1215 l 1042 0 l 347 0 m 434 87 l 955 87 l 955 1128 l 434 1128 l 434 87 z "},"ͻ":{"ha":1389,"x_min":347,"x_max":1042,"o":"m 347 0 l 347 1215 l 1042 1215 l 1042 0 l 347 0 m 434 87 l 955 87 l 955 1128 l 434 1128 l 434 87 z "},"ͼ":{"ha":1389,"x_min":347,"x_max":1042,"o":"m 347 0 l 347 1215 l 1042 1215 l 1042 0 l 347 0 m 434 87 l 955 87 l 955 1128 l 434 1128 l 434 87 z "},"ͽ":{"ha":1389,"x_min":347,"x_max":1042,"o":"m 347 0 l 347 1215 l 1042 1215 l 1042 0 l 347 0 m 434 87 l 955 87 l 955 1128 l 434 1128 l 434 87 z "},"Ӊ":{"ha":1389,"x_min":347,"x_max":1042,"o":"m 347 0 l 347 1215 l 1042 1215 l 1042 0 l 347 0 m 434 87 l 955 87 l 955 1128 l 434 1128 l 434 87 z "},"ӊ":{"ha":1389,"x_min":347,"x_max":1042,"o":"m 347 0 l 347 1215 l 1042 1215 l 1042 0 l 347 0 m 434 87 l 955 87 l 955 1128 l 434 1128 l 434 87 z "},"ẜ":{"ha":1389,"x_min":347,"x_max":1042,"o":"m 347 0 l 347 1215 l 1042 1215 l 1042 0 l 347 0 m 434 87 l 955 87 l 955 1128 l 434 1128 l 434 87 z "},"ẝ":{"ha":1389,"x_min":347,"x_max":1042,"o":"m 347 0 l 347 1215 l 1042 1215 l 1042 0 l 347 0 m 434 87 l 955 87 l 955 1128 l 434 1128 l 434 87 z "},"₥":{"ha":1389,"x_min":347,"x_max":1042,"o":"m 347 0 l 347 1215 l 1042 1215 l 1042 0 l 347 0 m 434 87 l 955 87 l 955 1128 l 434 1128 l 434 87 z "},"₦":{"ha":1389,"x_min":347,"x_max":1042,"o":"m 347 0 l 347 1215 l 1042 1215 l 1042 0 l 347 0 m 434 87 l 955 87 l 955 1128 l 434 1128 l 434 87 z "},"₨":{"ha":1389,"x_min":347,"x_max":1042,"o":"m 347 0 l 347 1215 l 1042 1215 l 1042 0 l 347 0 m 434 87 l 955 87 l 955 1128 l 434 1128 l 434 87 z "},"₭":{"ha":1389,"x_min":347,"x_max":1042,"o":"m 347 0 l 347 1215 l 1042 1215 l 1042 0 l 347 0 m 434 87 l 955 87 l 955 1128 l 434 1128 l 434 87 z "},"₰":{"ha":1389,"x_min":347,"x_max":1042,"o":"m 347 0 l 347 1215 l 1042 1215 l 1042 0 l 347 0 m 434 87 l 955 87 l 955 1128 l 434 1128 l 434 87 z "},"₲":{"ha":1389,"x_min":347,"x_max":1042,"o":"m 347 0 l 347 1215 l 1042 1215 l 1042 0 l 347 0 m 434 87 l 955 87 l 955 1128 l 434 1128 l 434 87 z "},"₵":{"ha":1389,"x_min":347,"x_max":1042,"o":"m 347 0 l 347 1215 l 1042 1215 l 1042 0 l 347 0 m 434 87 l 955 87 l 955 1128 l 434 1128 l 434 87 z "},"₶":{"ha":1389,"x_min":347,"x_max":1042,"o":"m 347 0 l 347 1215 l 1042 1215 l 1042 0 l 347 0 m 434 87 l 955 87 l 955 1128 l 434 1128 l 434 87 z "},"₷":{"ha":1389,"x_min":347,"x_max":1042,"o":"m 347 0 l 347 1215 l 1042 1215 l 1042 0 l 347 0 m 434 87 l 955 87 l 955 1128 l 434 1128 l 434 87 z "},"₹":{"ha":1389,"x_min":347,"x_max":1042,"o":"m 347 0 l 347 1215 l 1042 1215 l 1042 0 l 347 0 m 434 87 l 955 87 l 955 1128 l 434 1128 l 434 87 z "},"₻":{"ha":1389,"x_min":347,"x_max":1042,"o":"m 347 0 l 347 1215 l 1042 1215 l 1042 0 l 347 0 m 434 87 l 955 87 l 955 1128 l 434 1128 l 434 87 z "},"₼":{"ha":1389,"x_min":347,"x_max":1042,"o":"m 347 0 l 347 1215 l 1042 1215 l 1042 0 l 347 0 m 434 87 l 955 87 l 955 1128 l 434 1128 l 434 87 z "},"₾":{"ha":1389,"x_min":347,"x_max":1042,"o":"m 347 0 l 347 1215 l 1042 1215 l 1042 0 l 347 0 m 434 87 l 955 87 l 955 1128 l 434 1128 l 434 87 z "},"℔":{"ha":1389,"x_min":347,"x_max":1042,"o":"m 347 0 l 347 1215 l 1042 1215 l 1042 0 l 347 0 m 434 87 l 955 87 l 955 1128 l 434 1128 l 434 87 z "},"ℕ":{"ha":1389,"x_min":347,"x_max":1042,"o":"m 347 0 l 347 1215 l 1042 1215 l 1042 0 l 347 0 m 434 87 l 955 87 l 955 1128 l 434 1128 l 434 87 z "},"℣":{"ha":1389,"x_min":347,"x_max":1042,"o":"m 347 0 l 347 1215 l 1042 1215 l 1042 0 l 347 0 m 434 87 l 955 87 l 955 1128 l 434 1128 l 434 87 z "},"ℤ":{"ha":1389,"x_min":347,"x_max":1042,"o":"m 347 0 l 347 1215 l 1042 1215 l 1042 0 l 347 0 m 434 87 l 955 87 l 955 1128 l 434 1128 l 434 87 z "},"℥":{"ha":1389,"x_min":347,"x_max":1042,"o":"m 347 0 l 347 1215 l 1042 1215 l 1042 0 l 347 0 m 434 87 l 955 87 l 955 1128 l 434 1128 l 434 87 z "},"∊":{"ha":1389,"x_min":347,"x_max":1042,"o":"m 347 0 l 347 1215 l 1042 1215 l 1042 0 l 347 0 m 434 87 l 955 87 l 955 1128 l 434 1128 l 434 87 z "},"∍":{"ha":1389,"x_min":347,"x_max":1042,"o":"m 347 0 l 347 1215 l 1042 1215 l 1042 0 l 347 0 m 434 87 l 955 87 l 955 1128 l 434 1128 l 434 87 z "},"∔":{"ha":1389,"x_min":347,"x_max":1042,"o":"m 347 0 l 347 1215 l 1042 1215 l 1042 0 l 347 0 m 434 87 l 955 87 l 955 1128 l 434 1128 l 434 87 z "},"∖":{"ha":1389,"x_min":347,"x_max":1042,"o":"m 347 0 l 347 1215 l 1042 1215 l 1042 0 l 347 0 m 434 87 l 955 87 l 955 1128 l 434 1128 l 434 87 z "},"∗":{"ha":1389,"x_min":347,"x_max":1042,"o":"m 347 0 l 347 1215 l 1042 1215 l 1042 0 l 347 0 m 434 87 l 955 87 l 955 1128 l 434 1128 l 434 87 z "},"∘":{"ha":1389,"x_min":347,"x_max":1042,"o":"m 347 0 l 347 1215 l 1042 1215 l 1042 0 l 347 0 m 434 87 l 955 87 l 955 1128 l 434 1128 l 434 87 z "},"∛":{"ha":1389,"x_min":347,"x_max":1042,"o":"m 347 0 l 347 1215 l 1042 1215 l 1042 0 l 347 0 m 434 87 l 955 87 l 955 1128 l 434 1128 l 434 87 z "},"∜":{"ha":1389,"x_min":347,"x_max":1042,"o":"m 347 0 l 347 1215 l 1042 1215 l 1042 0 l 347 0 m 434 87 l 955 87 l 955 1128 l 434 1128 l 434 87 z "},"∝":{"ha":1389,"x_min":347,"x_max":1042,"o":"m 347 0 l 347 1215 l 1042 1215 l 1042 0 l 347 0 m 434 87 l 955 87 l 955 1128 l 434 1128 l 434 87 z "},"≢":{"ha":1389,"x_min":347,"x_max":1042,"o":"m 347 0 l 347 1215 l 1042 1215 l 1042 0 l 347 0 m 434 87 l 955 87 l 955 1128 l 434 1128 l 434 87 z "},"≣":{"ha":1389,"x_min":347,"x_max":1042,"o":"m 347 0 l 347 1215 l 1042 1215 l 1042 0 l 347 0 m 434 87 l 955 87 l 955 1128 l 434 1128 l 434 87 z "},"⎯":{"ha":1389,"x_min":347,"x_max":1042,"o":"m 347 0 l 347 1215 l 1042 1215 l 1042 0 l 347 0 m 434 87 l 955 87 l 955 1128 l 434 1128 l 434 87 z "},"☽":{"ha":1389,"x_min":347,"x_max":1042,"o":"m 347 0 l 347 1215 l 1042 1215 l 1042 0 l 347 0 m 434 87 l 955 87 l 955 1128 l 434 1128 l 434 87 z "},"☾":{"ha":1389,"x_min":347,"x_max":1042,"o":"m 347 0 l 347 1215 l 1042 1215 l 1042 0 l 347 0 m 434 87 l 955 87 l 955 1128 l 434 1128 l 434 87 z "},"☿":{"ha":1389,"x_min":347,"x_max":1042,"o":"m 347 0 l 347 1215 l 1042 1215 l 1042 0 l 347 0 m 434 87 l 955 87 l 955 1128 l 434 1128 l 434 87 z "},"♁":{"ha":1389,"x_min":347,"x_max":1042,"o":"m 347 0 l 347 1215 l 1042 1215 l 1042 0 l 347 0 m 434 87 l 955 87 l 955 1128 l 434 1128 l 434 87 z "},"♡":{"ha":1389,"x_min":347,"x_max":1042,"o":"m 347 0 l 347 1215 l 1042 1215 l 1042 0 l 347 0 m 434 87 l 955 87 l 955 1128 l 434 1128 l 434 87 z "},"♢":{"ha":1389,"x_min":347,"x_max":1042,"o":"m 347 0 l 347 1215 l 1042 1215 l 1042 0 l 347 0 m 434 87 l 955 87 l 955 1128 l 434 1128 l 434 87 z "},"♤":{"ha":1389,"x_min":347,"x_max":1042,"o":"m 347 0 l 347 1215 l 1042 1215 l 1042 0 l 347 0 m 434 87 l 955 87 l 955 1128 l 434 1128 l 434 87 z "},"♧":{"ha":1389,"x_min":347,"x_max":1042,"o":"m 347 0 l 347 1215 l 1042 1215 l 1042 0 l 347 0 m 434 87 l 955 87 l 955 1128 l 434 1128 l 434 87 z "},"♨":{"ha":1389,"x_min":347,"x_max":1042,"o":"m 347 0 l 347 1215 l 1042 1215 l 1042 0 l 347 0 m 434 87 l 955 87 l 955 1128 l 434 1128 l 434 87 z "},"♩":{"ha":1389,"x_min":347,"x_max":1042,"o":"m 347 0 l 347 1215 l 1042 1215 l 1042 0 l 347 0 m 434 87 l 955 87 l 955 1128 l 434 1128 l 434 87 z "},"♬":{"ha":1389,"x_min":347,"x_max":1042,"o":"m 347 0 l 347 1215 l 1042 1215 l 1042 0 l 347 0 m 434 87 l 955 87 l 955 1128 l 434 1128 l 434 87 z "},"":{"ha":1389,"x_min":347,"x_max":1042,"o":"m 347 0 l 347 1215 l 1042 1215 l 1042 0 l 347 0 m 434 87 l 955 87 l 955 1128 l 434 1128 l 434 87 z "},"":{"ha":1389,"x_min":347,"x_max":1042,"o":"m 347 0 l 347 1215 l 1042 1215 l 1042 0 l 347 0 m 434 87 l 955 87 l 955 1128 l 434 1128 l 434 87 z "},"":{"ha":1389,"x_min":347,"x_max":1042,"o":"m 347 0 l 347 1215 l 1042 1215 l 1042 0 l 347 0 m 434 87 l 955 87 l 955 1128 l 434 1128 l 434 87 z "},"":{"ha":1389,"x_min":347,"x_max":1042,"o":"m 347 0 l 347 1215 l 1042 1215 l 1042 0 l 347 0 m 434 87 l 955 87 l 955 1128 l 434 1128 l 434 87 z "},"":{"ha":1389,"x_min":347,"x_max":1042,"o":"m 347 0 l 347 1215 l 1042 1215 l 1042 0 l 347 0 m 434 87 l 955 87 l 955 1128 l 434 1128 l 434 87 z "},"":{"ha":1389,"x_min":347,"x_max":1042,"o":"m 347 0 l 347 1215 l 1042 1215 l 1042 0 l 347 0 m 434 87 l 955 87 l 955 1128 l 434 1128 l 434 87 z "},"":{"ha":1389,"x_min":347,"x_max":1042,"o":"m 347 0 l 347 1215 l 1042 1215 l 1042 0 l 347 0 m 434 87 l 955 87 l 955 1128 l 434 1128 l 434 87 z "},"":{"ha":1389,"x_min":347,"x_max":1042,"o":"m 347 0 l 347 1215 l 1042 1215 l 1042 0 l 347 0 m 434 87 l 955 87 l 955 1128 l 434 1128 l 434 87 z "},"":{"ha":1389,"x_min":347,"x_max":1042,"o":"m 347 0 l 347 1215 l 1042 1215 l 1042 0 l 347 0 m 434 87 l 955 87 l 955 1128 l 434 1128 l 434 87 z "},"":{"ha":1389,"x_min":347,"x_max":1042,"o":"m 347 0 l 347 1215 l 1042 1215 l 1042 0 l 347 0 m 434 87 l 955 87 l 955 1128 l 434 1128 l 434 87 z "},"":{"ha":1389,"x_min":347,"x_max":1042,"o":"m 347 0 l 347 1215 l 1042 1215 l 1042 0 l 347 0 m 434 87 l 955 87 l 955 1128 l 434 1128 l 434 87 z "},"":{"ha":1389,"x_min":347,"x_max":1042,"o":"m 347 0 l 347 1215 l 1042 1215 l 1042 0 l 347 0 m 434 87 l 955 87 l 955 1128 l 434 1128 l 434 87 z "},"":{"ha":1389,"x_min":347,"x_max":1042,"o":"m 347 0 l 347 1215 l 1042 1215 l 1042 0 l 347 0 m 434 87 l 955 87 l 955 1128 l 434 1128 l 434 87 z "},"":{"ha":1389,"x_min":347,"x_max":1042,"o":"m 347 0 l 347 1215 l 1042 1215 l 1042 0 l 347 0 m 434 87 l 955 87 l 955 1128 l 434 1128 l 434 87 z "},"":{"ha":1389,"x_min":347,"x_max":1042,"o":"m 347 0 l 347 1215 l 1042 1215 l 1042 0 l 347 0 m 434 87 l 955 87 l 955 1128 l 434 1128 l 434 87 z "},"":{"ha":1389,"x_min":347,"x_max":1042,"o":"m 347 0 l 347 1215 l 1042 1215 l 1042 0 l 347 0 m 434 87 l 955 87 l 955 1128 l 434 1128 l 434 87 z "},"":{"ha":1389,"x_min":347,"x_max":1042,"o":"m 347 0 l 347 1215 l 1042 1215 l 1042 0 l 347 0 m 434 87 l 955 87 l 955 1128 l 434 1128 l 434 87 z "},"":{"ha":1389,"x_min":347,"x_max":1042,"o":"m 347 0 l 347 1215 l 1042 1215 l 1042 0 l 347 0 m 434 87 l 955 87 l 955 1128 l 434 1128 l 434 87 z "},"":{"ha":1389,"x_min":347,"x_max":1042,"o":"m 347 0 l 347 1215 l 1042 1215 l 1042 0 l 347 0 m 434 87 l 955 87 l 955 1128 l 434 1128 l 434 87 z "},"":{"ha":1389,"x_min":347,"x_max":1042,"o":"m 347 0 l 347 1215 l 1042 1215 l 1042 0 l 347 0 m 434 87 l 955 87 l 955 1128 l 434 1128 l 434 87 z "},"﷽":{"ha":1389,"x_min":347,"x_max":1042,"o":"m 347 0 l 347 1215 l 1042 1215 l 1042 0 l 347 0 m 434 87 l 955 87 l 955 1128 l 434 1128 l 434 87 z "},"﷾":{"ha":1389,"x_min":347,"x_max":1042,"o":"m 347 0 l 347 1215 l 1042 1215 l 1042 0 l 347 0 m 434 87 l 955 87 l 955 1128 l 434 1128 l 434 87 z "},"﷿":{"ha":1389,"x_min":347,"x_max":1042,"o":"m 347 0 l 347 1215 l 1042 1215 l 1042 0 l 347 0 m 434 87 l 955 87 l 955 1128 l 434 1128 l 434 87 z "}," ":{"ha":1389,"x_min":0,"x_max":0,"o":""},"!":{"ha":1389,"x_min":608,"x_max":781,"o":"m 608 0 l 608 174 l 781 174 l 781 0 l 608 0 m 608 347 l 608 1215 l 781 1215 l 781 347 l 608 347 z "},"\"":{"ha":1389,"x_min":434,"x_max":955,"o":"m 434 868 l 434 1215 l 608 1215 l 608 868 l 434 868 m 781 868 l 781 1215 l 955 1215 l 955 868 l 781 868 z "},"#":{"ha":1389,"x_min":174,"x_max":1215,"o":"m 174 347 l 174 521 l 434 521 l 434 694 l 174 694 l 174 868 l 434 868 l 434 1215 l 608 1215 l 608 868 l 781 868 l 781 1215 l 955 1215 l 955 868 l 1215 868 l 1215 694 l 955 694 l 955 521 l 1215 521 l 1215 347 l 955 347 l 955 0 l 781 0 l 781 347 l 608 347 l 608 0 l 434 0 l 434 347 l 174 347 m 608 521 l 781 521 l 781 694 l 608 694 l 608 521 z "},"$":{"ha":1389,"x_min":174,"x_max":1215,"o":"m 174 174 l 174 347 l 608 347 l 608 521 l 304 521 l 174 651 l 174 911 l 304 1042 l 608 1042 l 608 1215 l 781 1215 l 781 1042 l 1215 1042 l 1215 868 l 781 868 l 781 694 l 1085 694 l 1215 564 l 1215 304 l 1085 174 l 781 174 l 781 0 l 608 0 l 608 174 l 174 174 m 347 738 l 391 694 l 608 694 l 608 868 l 391 868 l 347 825 l 347 738 m 781 347 l 998 347 l 1042 391 l 1042 477 l 998 521 l 781 521 l 781 347 z "},"%":{"ha":1389,"x_min":174,"x_max":1215,"o":"m 174 1042 l 174 1215 l 347 1215 l 347 1042 l 174 1042 m 260 174 l 260 304 l 998 1042 l 1128 1042 l 1128 911 l 391 174 l 260 174 m 1042 0 l 1042 174 l 1215 174 l 1215 0 l 1042 0 z "},"&":{"ha":1389,"x_min":174,"x_max":1215,"o":"m 174 174 l 174 434 l 347 608 l 174 781 l 174 1042 l 347 1215 l 608 1215 l 781 1042 l 781 781 l 608 608 l 781 434 l 955 608 l 1128 608 l 1128 521 l 911 304 l 1042 174 l 1215 174 l 1215 0 l 955 0 l 781 174 l 608 0 l 347 0 l 174 174 m 347 260 l 434 174 l 521 174 l 651 304 l 477 477 l 347 347 l 347 260 m 347 868 l 477 738 l 608 868 l 608 955 l 521 1042 l 434 1042 l 347 955 l 347 868 z "},"'":{"ha":1389,"x_min":608,"x_max":781,"o":"m 608 868 l 608 1215 l 781 1215 l 781 868 l 608 868 z "},"(":{"ha":1389,"x_min":434,"x_max":955,"o":"m 434 174 l 434 868 l 781 1215 l 955 1215 l 955 1128 l 608 781 l 608 260 l 955 -87 l 955 -174 l 781 -174 l 434 174 z "},")":{"ha":1389,"x_min":434,"x_max":955,"o":"m 434 -87 l 781 260 l 781 781 l 434 1128 l 434 1215 l 608 1215 l 955 868 l 955 174 l 608 -174 l 434 -174 l 434 -87 z "},"*":{"ha":1389,"x_min":260,"x_max":1128,"o":"m 260 260 l 260 391 l 477 608 l 260 825 l 260 955 l 391 955 l 608 738 l 608 1042 l 781 1042 l 781 738 l 998 955 l 1128 955 l 1128 825 l 911 608 l 1128 391 l 1128 260 l 998 260 l 781 477 l 781 174 l 608 174 l 608 477 l 391 260 l 260 260 z "},"+":{"ha":1389,"x_min":347,"x_max":1042,"o":"m 347 521 l 347 694 l 608 694 l 608 955 l 781 955 l 781 694 l 1042 694 l 1042 521 l 781 521 l 781 260 l 608 260 l 608 521 l 347 521 z "},",":{"ha":1389,"x_min":608,"x_max":781,"o":"m 608 174 l 781 174 l 781 -87 l 694 -174 l 608 -174 l 608 174 z "},"-":{"ha":1389,"x_min":347,"x_max":1042,"o":"m 347 521 l 347 694 l 1042 694 l 1042 521 l 347 521 z "},".":{"ha":1389,"x_min":608,"x_max":781,"o":"m 608 0 l 608 174 l 781 174 l 781 0 l 608 0 z "},"/":{"ha":1389,"x_min":174,"x_max":1215,"o":"m 174 87 l 174 217 l 1085 1128 l 1215 1128 l 1215 998 l 304 87 l 174 87 z "},":":{"ha":1389,"x_min":608,"x_max":781,"o":"m 608 0 l 608 174 l 781 174 l 781 0 l 608 0 m 608 868 l 608 1042 l 781 1042 l 781 868 l 608 868 z "},";":{"ha":1389,"x_min":608,"x_max":781,"o":"m 608 174 l 781 174 l 781 -87 l 694 -174 l 608 -174 l 608 174 m 608 868 l 608 1042 l 781 1042 l 781 868 l 608 868 z "},"<":{"ha":1389,"x_min":347,"x_max":1042,"o":"m 347 608 l 868 1128 l 1042 1128 l 1042 1042 l 608 608 l 1042 174 l 1042 87 l 868 87 l 347 608 z "},"=":{"ha":1389,"x_min":347,"x_max":1042,"o":"m 347 347 l 347 521 l 1042 521 l 1042 347 l 347 347 m 347 694 l 347 868 l 1042 868 l 1042 694 l 347 694 z "},">":{"ha":1389,"x_min":347,"x_max":1042,"o":"m 347 87 l 347 174 l 781 608 l 347 1042 l 347 1128 l 521 1128 l 1042 608 l 521 87 l 347 87 z "},"?":{"ha":1389,"x_min":174,"x_max":1215,"o":"m 174 868 l 174 955 l 434 1215 l 1042 1215 l 1215 1042 l 1215 781 l 781 347 l 608 347 l 608 434 l 1042 868 l 1042 955 l 955 1042 l 521 1042 l 347 868 l 174 868 m 608 0 l 608 174 l 781 174 l 781 0 l 608 0 z "},"@":{"ha":1389,"x_min":174,"x_max":1215,"o":"m 174 304 l 174 911 l 477 1215 l 1215 1215 l 1215 347 l 738 347 l 608 477 l 608 738 l 738 868 l 1042 868 l 1042 1042 l 564 1042 l 347 825 l 347 391 l 564 174 l 1215 174 l 1215 0 l 477 0 l 174 304 m 781 564 l 825 521 l 1042 521 l 1042 694 l 825 694 l 781 651 l 781 564 z "},"A":{"ha":1389,"x_min":174,"x_max":1215,"o":"m 174 0 l 174 781 l 608 1215 l 781 1215 l 1215 781 l 1215 0 l 1042 0 l 1042 260 l 347 260 l 347 0 l 174 0 m 347 434 l 1042 434 l 1042 694 l 694 1042 l 347 694 l 347 434 z "},"B":{"ha":1389,"x_min":174,"x_max":1215,"o":"m 174 0 l 174 1215 l 1042 1215 l 1215 1042 l 1215 781 l 1042 608 l 1215 434 l 1215 174 l 1042 0 l 174 0 m 347 174 l 955 174 l 1042 260 l 1042 347 l 868 521 l 347 521 l 347 174 m 347 694 l 868 694 l 1042 868 l 1042 955 l 955 1042 l 347 1042 l 347 694 z "},"C":{"ha":1389,"x_min":174,"x_max":1215,"o":"m 174 260 l 174 955 l 434 1215 l 955 1215 l 1215 955 l 1215 868 l 1042 868 l 868 1042 l 521 1042 l 347 868 l 347 347 l 521 174 l 868 174 l 1042 347 l 1215 347 l 1215 260 l 955 0 l 434 0 l 174 260 z "},"D":{"ha":1389,"x_min":174,"x_max":1215,"o":"m 174 0 l 174 1215 l 868 1215 l 1215 868 l 1215 347 l 868 0 l 174 0 m 347 174 l 781 174 l 1042 434 l 1042 781 l 781 1042 l 347 1042 l 347 174 z "},"E":{"ha":1389,"x_min":174,"x_max":1215,"o":"m 174 0 l 174 1215 l 1215 1215 l 1215 1042 l 347 1042 l 347 694 l 1042 694 l 1042 521 l 347 521 l 347 174 l 1215 174 l 1215 0 l 174 0 z "},"F":{"ha":1389,"x_min":174,"x_max":1215,"o":"m 174 0 l 174 1215 l 1215 1215 l 1215 1042 l 347 1042 l 347 694 l 1042 694 l 1042 521 l 347 521 l 347 0 l 174 0 z "},"G":{"ha":1389,"x_min":174,"x_max":1215,"o":"m 174 260 l 174 955 l 434 1215 l 955 1215 l 1215 955 l 1215 868 l 1042 868 l 868 1042 l 521 1042 l 347 868 l 347 347 l 521 174 l 1042 174 l 1042 521 l 694 521 l 694 694 l 1215 694 l 1215 0 l 434 0 l 174 260 z "},"H":{"ha":1389,"x_min":174,"x_max":1215,"o":"m 174 0 l 174 1215 l 347 1215 l 347 694 l 1042 694 l 1042 1215 l 1215 1215 l 1215 0 l 1042 0 l 1042 521 l 347 521 l 347 0 l 174 0 z "},"I":{"ha":1389,"x_min":347,"x_max":1042,"o":"m 347 0 l 347 174 l 608 174 l 608 1042 l 347 1042 l 347 1215 l 1042 1215 l 1042 1042 l 781 1042 l 781 174 l 1042 174 l 1042 0 l 347 0 z "},"J":{"ha":1389,"x_min":174,"x_max":1215,"o":"m 174 174 l 174 260 l 347 260 l 434 174 l 608 174 l 781 347 l 781 1042 l 521 1042 l 521 1215 l 1215 1215 l 1215 1042 l 955 1042 l 955 260 l 694 0 l 347 0 l 174 174 z "},"K":{"ha":1389,"x_min":174,"x_max":1215,"o":"m 174 0 l 174 1215 l 347 1215 l 347 608 l 955 1215 l 1128 1215 l 1128 1128 l 651 651 l 1215 87 l 1215 0 l 1042 0 l 521 521 l 347 347 l 347 0 l 174 0 z "},"L":{"ha":1389,"x_min":174,"x_max":1215,"o":"m 174 0 l 174 1215 l 347 1215 l 347 174 l 1215 174 l 1215 0 l 174 0 z "},"M":{"ha":1389,"x_min":174,"x_max":1215,"o":"m 174 0 l 174 1215 l 347 1215 l 694 868 l 1042 1215 l 1215 1215 l 1215 0 l 1042 0 l 1042 955 l 781 694 l 781 347 l 608 347 l 608 694 l 347 955 l 347 0 l 174 0 z "},"N":{"ha":1389,"x_min":174,"x_max":1215,"o":"m 174 0 l 174 1215 l 347 1215 l 347 1085 l 1042 391 l 1042 1215 l 1215 1215 l 1215 0 l 1042 0 l 1042 130 l 347 825 l 347 0 l 174 0 z "},"O":{"ha":1389,"x_min":174,"x_max":1215,"o":"m 174 260 l 174 955 l 434 1215 l 955 1215 l 1215 955 l 1215 260 l 955 0 l 434 0 l 174 260 m 347 347 l 521 174 l 868 174 l 1042 347 l 1042 868 l 868 1042 l 521 1042 l 347 868 l 347 347 z "},"P":{"ha":1389,"x_min":174,"x_max":1215,"o":"m 174 0 l 174 1215 l 1042 1215 l 1215 1042 l 1215 781 l 955 521 l 347 521 l 347 0 l 174 0 m 347 694 l 868 694 l 1042 868 l 1042 955 l 955 1042 l 347 1042 l 347 694 z "},"Q":{"ha":1389,"x_min":174,"x_max":1215,"o":"m 174 260 l 174 955 l 434 1215 l 955 1215 l 1215 955 l 1215 434 l 1042 260 l 1215 87 l 1215 0 l 1042 0 l 911 130 l 781 0 l 434 0 l 174 260 m 347 347 l 521 174 l 694 174 l 781 260 l 608 434 l 608 521 l 781 521 l 911 391 l 1042 521 l 1042 868 l 868 1042 l 521 1042 l 347 868 l 347 347 z "},"R":{"ha":1389,"x_min":174,"x_max":1215,"o":"m 174 0 l 174 1215 l 1042 1215 l 1215 1042 l 1215 781 l 955 521 l 781 521 l 1215 87 l 1215 0 l 1042 0 l 521 521 l 347 521 l 347 0 l 174 0 m 347 694 l 868 694 l 1042 868 l 1042 955 l 955 1042 l 347 1042 l 347 694 z "},"S":{"ha":1389,"x_min":174,"x_max":1215,"o":"m 174 174 l 174 260 l 347 260 l 434 174 l 955 174 l 1042 260 l 1042 434 l 955 521 l 347 521 l 174 694 l 174 1042 l 347 1215 l 1042 1215 l 1215 1042 l 1215 955 l 1042 955 l 955 1042 l 434 1042 l 347 955 l 347 781 l 434 694 l 1042 694 l 1215 521 l 1215 174 l 1042 0 l 347 0 l 174 174 z "},"T":{"ha":1389,"x_min":174,"x_max":1215,"o":"m 174 1042 l 174 1215 l 1215 1215 l 1215 1042 l 781 1042 l 781 0 l 608 0 l 608 1042 l 174 1042 z "},"U":{"ha":1389,"x_min":174,"x_max":1215,"o":"m 174 260 l 174 1215 l 347 1215 l 347 347 l 521 174 l 868 174 l 1042 347 l 1042 1215 l 1215 1215 l 1215 260 l 955 0 l 434 0 l 174 260 z "},"V":{"ha":1389,"x_min":174,"x_max":1215,"o":"m 174 434 l 174 1215 l 347 1215 l 347 521 l 694 174 l 1042 521 l 1042 1215 l 1215 1215 l 1215 434 l 781 0 l 608 0 l 174 434 z "},"W":{"ha":1389,"x_min":174,"x_max":1215,"o":"m 174 0 l 174 1215 l 347 1215 l 347 260 l 608 521 l 608 868 l 781 868 l 781 521 l 1042 260 l 1042 1215 l 1215 1215 l 1215 0 l 1042 0 l 694 347 l 347 0 l 174 0 z "},"X":{"ha":1389,"x_min":174,"x_max":1215,"o":"m 174 0 l 174 217 l 564 608 l 174 998 l 174 1215 l 347 1215 l 347 1085 l 694 738 l 1042 1085 l 1042 1215 l 1215 1215 l 1215 998 l 825 608 l 1215 217 l 1215 0 l 1042 0 l 1042 130 l 694 477 l 347 130 l 347 0 l 174 0 z "},"Y":{"ha":1389,"x_min":174,"x_max":1215,"o":"m 174 868 l 174 1215 l 347 1215 l 347 955 l 694 608 l 1042 955 l 1042 1215 l 1215 1215 l 1215 868 l 781 434 l 781 0 l 608 0 l 608 434 l 174 868 z "},"Z":{"ha":1389,"x_min":174,"x_max":1215,"o":"m 174 0 l 174 217 l 998 1042 l 174 1042 l 174 1215 l 1215 1215 l 1215 998 l 391 174 l 1215 174 l 1215 0 l 174 0 z "},"[":{"ha":1389,"x_min":434,"x_max":955,"o":"m 434 -174 l 434 1215 l 955 1215 l 955 1042 l 608 1042 l 608 0 l 955 0 l 955 -174 l 434 -174 z "},"\\":{"ha":1389,"x_min":174,"x_max":1215,"o":"m 174 998 l 174 1128 l 304 1128 l 1215 217 l 1215 87 l 1085 87 l 174 998 z "},"]":{"ha":1389,"x_min":434,"x_max":955,"o":"m 434 0 l 781 0 l 781 1042 l 434 1042 l 434 1215 l 955 1215 l 955 -174 l 434 -174 l 434 0 z "},"^":{"ha":1389,"x_min":347,"x_max":1042,"o":"m 347 868 l 347 955 l 608 1215 l 781 1215 l 1042 955 l 1042 868 l 868 868 l 694 1042 l 521 868 l 347 868 z "},"_":{"ha":1389,"x_min":347,"x_max":1042,"o":"m 347 0 l 1042 0 l 1042 -174 l 347 -174 l 347 0 z "},"`":{"ha":1389,"x_min":477,"x_max":911,"o":"m 477 1128 l 477 1215 l 651 1215 l 911 955 l 911 868 l 738 868 l 477 1128 z "},"a":{"ha":1389,"x_min":347,"x_max":1042,"o":"m 347 130 l 347 391 l 477 521 l 868 521 l 868 608 l 781 694 l 521 694 l 521 868 l 868 868 l 1042 694 l 1042 0 l 477 0 l 347 130 m 521 217 l 564 174 l 868 174 l 868 347 l 564 347 l 521 304 l 521 217 z "},"b":{"ha":1389,"x_min":347,"x_max":1042,"o":"m 347 0 l 347 1215 l 521 1215 l 521 868 l 868 868 l 1042 694 l 1042 174 l 868 0 l 347 0 m 521 174 l 781 174 l 868 260 l 868 608 l 781 694 l 521 694 l 521 174 z "},"c":{"ha":1389,"x_min":347,"x_max":1042,"o":"m 347 174 l 347 694 l 521 868 l 868 868 l 1042 694 l 1042 608 l 868 608 l 781 694 l 608 694 l 521 608 l 521 260 l 608 174 l 781 174 l 868 260 l 1042 260 l 1042 174 l 868 0 l 521 0 l 347 174 z "},"d":{"ha":1389,"x_min":347,"x_max":1042,"o":"m 347 174 l 347 694 l 521 868 l 868 868 l 868 1215 l 1042 1215 l 1042 0 l 521 0 l 347 174 m 521 260 l 608 174 l 868 174 l 868 694 l 608 694 l 521 608 l 521 260 z "},"e":{"ha":1389,"x_min":347,"x_max":1042,"o":"m 347 174 l 347 694 l 521 868 l 868 868 l 1042 694 l 1042 347 l 521 347 l 521 260 l 608 174 l 1042 174 l 1042 0 l 521 0 l 347 174 m 521 521 l 868 521 l 868 608 l 781 694 l 608 694 l 521 608 l 521 521 z "},"f":{"ha":1389,"x_min":347,"x_max":1042,"o":"m 347 694 l 347 868 l 608 868 l 608 1042 l 781 1215 l 1042 1215 l 1042 1042 l 868 1042 l 781 955 l 781 868 l 1042 868 l 1042 694 l 781 694 l 781 0 l 608 0 l 608 694 l 347 694 z "},"g":{"ha":1389,"x_min":174,"x_max":1215,"o":"m 174 -87 l 174 174 l 260 260 l 399 260 l 399 87 l 347 87 l 347 0 l 1042 0 l 1042 87 l 521 87 l 521 260 l 694 434 l 264 434 l 174 521 l 174 781 l 260 868 l 781 868 l 868 781 l 868 608 l 955 608 l 1042 694 l 1042 868 l 1215 868 l 1215 608 l 1042 434 l 868 434 l 868 347 l 781 260 l 1128 260 l 1215 174 l 1215 -87 l 1128 -174 l 260 -174 l 174 -87 m 347 608 l 694 608 l 694 694 l 347 694 l 347 608 z "},"h":{"ha":1389,"x_min":347,"x_max":1042,"o":"m 347 0 l 347 1215 l 521 1215 l 521 868 l 868 868 l 1042 694 l 1042 0 l 868 0 l 868 608 l 781 694 l 521 694 l 521 0 l 347 0 z "},"i":{"ha":1389,"x_min":347,"x_max":1042,"o":"m 347 0 l 347 174 l 608 174 l 608 694 l 347 694 l 347 868 l 781 868 l 781 174 l 1042 174 l 1042 0 l 347 0 m 608 1042 l 608 1215 l 781 1215 l 781 1042 l 608 1042 z "},"j":{"ha":1389,"x_min":347,"x_max":1042,"o":"m 347 0 l 347 87 l 521 87 l 608 0 l 781 0 l 868 87 l 868 694 l 347 694 l 347 868 l 1042 868 l 1042 0 l 868 -174 l 521 -174 l 347 0 m 608 1042 l 608 1215 l 781 1215 l 781 1042 l 608 1042 z "},"k":{"ha":1389,"x_min":347,"x_max":1042,"o":"m 347 0 l 347 1215 l 521 1215 l 521 608 l 781 868 l 955 868 l 955 781 l 651 477 l 1042 87 l 1042 0 l 868 0 l 521 347 l 521 0 l 347 0 z "},"l":{"ha":1389,"x_min":347,"x_max":1042,"o":"m 347 0 l 347 174 l 608 174 l 608 1042 l 347 1042 l 347 1215 l 781 1215 l 781 174 l 1042 174 l 1042 0 l 347 0 z "},"m":{"ha":1389,"x_min":174,"x_max":1215,"o":"m 174 0 l 174 868 l 1042 868 l 1215 694 l 1215 0 l 1042 0 l 1042 608 l 955 694 l 781 694 l 781 0 l 608 0 l 608 694 l 347 694 l 347 0 l 174 0 z "},"n":{"ha":1389,"x_min":347,"x_max":1042,"o":"m 347 0 l 347 868 l 868 868 l 1042 694 l 1042 0 l 868 0 l 868 608 l 781 694 l 521 694 l 521 0 l 347 0 z "},"o":{"ha":1389,"x_min":347,"x_max":1042,"o":"m 347 174 l 347 694 l 521 868 l 868 868 l 1042 694 l 1042 174 l 868 0 l 521 0 l 347 174 m 521 260 l 608 174 l 781 174 l 868 260 l 868 608 l 781 694 l 608 694 l 521 608 l 521 260 z "},"p":{"ha":1389,"x_min":347,"x_max":1042,"o":"m 347 -174 l 347 868 l 868 868 l 1042 694 l 1042 347 l 868 174 l 521 174 l 521 -174 l 347 -174 m 521 347 l 781 347 l 868 434 l 868 608 l 781 694 l 521 694 l 521 347 z "},"q":{"ha":1389,"x_min":347,"x_max":1042,"o":"m 347 347 l 347 694 l 521 868 l 1042 868 l 1042 -174 l 868 -174 l 868 174 l 521 174 l 347 347 m 521 434 l 608 347 l 868 347 l 868 694 l 608 694 l 521 608 l 521 434 z "},"r":{"ha":1389,"x_min":347,"x_max":1042,"o":"m 347 0 l 347 868 l 521 868 l 521 608 l 781 868 l 1042 868 l 1042 694 l 868 694 l 521 347 l 521 0 l 347 0 z "},"s":{"ha":1389,"x_min":347,"x_max":1042,"o":"m 347 0 l 347 174 l 825 174 l 868 217 l 868 304 l 825 347 l 477 347 l 347 477 l 347 738 l 477 868 l 1042 868 l 1042 694 l 564 694 l 521 651 l 521 564 l 564 521 l 911 521 l 1042 391 l 1042 130 l 911 0 l 347 0 z "},"t":{"ha":1389,"x_min":347,"x_max":1042,"o":"m 347 694 l 347 868 l 608 868 l 608 1215 l 781 1215 l 781 868 l 1042 868 l 1042 694 l 781 694 l 781 0 l 608 0 l 608 694 l 347 694 z "},"u":{"ha":1389,"x_min":347,"x_max":1042,"o":"m 347 174 l 347 868 l 521 868 l 521 260 l 608 174 l 868 174 l 868 868 l 1042 868 l 1042 0 l 521 0 l 347 174 z "},"v":{"ha":1389,"x_min":347,"x_max":1042,"o":"m 347 260 l 347 868 l 521 868 l 521 347 l 694 174 l 868 347 l 868 868 l 1042 868 l 1042 260 l 781 0 l 608 0 l 347 260 z "},"w":{"ha":1389,"x_min":174,"x_max":1215,"o":"m 174 174 l 174 868 l 347 868 l 347 260 l 434 174 l 608 174 l 608 868 l 781 868 l 781 174 l 955 174 l 1042 260 l 1042 868 l 1215 868 l 1215 174 l 1042 0 l 347 0 l 174 174 z "},"x":{"ha":1389,"x_min":347,"x_max":1042,"o":"m 347 0 l 347 217 l 564 434 l 347 651 l 347 868 l 521 868 l 521 738 l 694 564 l 868 738 l 868 868 l 1042 868 l 1042 651 l 825 434 l 1042 217 l 1042 0 l 868 0 l 868 130 l 694 304 l 521 130 l 521 0 l 347 0 z "},"y":{"ha":1389,"x_min":347,"x_max":1042,"o":"m 347 -87 l 564 130 l 347 347 l 347 868 l 521 868 l 521 434 l 694 260 l 868 434 l 868 868 l 1042 868 l 1042 347 l 521 -174 l 347 -174 l 347 -87 z "},"z":{"ha":1389,"x_min":347,"x_max":1042,"o":"m 347 0 l 347 217 l 825 694 l 347 694 l 347 868 l 1042 868 l 1042 651 l 564 174 l 1042 174 l 1042 0 l 347 0 z "},"{":{"ha":1389,"x_min":434,"x_max":955,"o":"m 434 434 l 434 608 l 521 608 l 608 694 l 608 781 l 521 868 l 521 1042 l 694 1215 l 955 1215 l 955 1042 l 781 1042 l 694 955 l 781 868 l 781 608 l 694 521 l 781 434 l 781 174 l 694 87 l 781 0 l 955 0 l 955 -174 l 694 -174 l 521 0 l 521 174 l 608 260 l 608 347 l 521 434 l 434 434 z "},"|":{"ha":1389,"x_min":608,"x_max":781,"o":"m 608 -174 l 608 1215 l 781 1215 l 781 -174 l 608 -174 z "},"}":{"ha":1389,"x_min":434,"x_max":955,"o":"m 434 0 l 608 0 l 694 87 l 608 174 l 608 434 l 694 521 l 608 608 l 608 868 l 694 955 l 608 1042 l 434 1042 l 434 1215 l 694 1215 l 868 1042 l 868 868 l 781 781 l 781 694 l 868 608 l 955 608 l 955 434 l 868 434 l 781 347 l 781 260 l 868 174 l 868 0 l 694 -174 l 434 -174 l 434 0 z "},"~":{"ha":1389,"x_min":347,"x_max":1042,"o":"m 347 434 l 347 521 l 521 694 l 651 694 l 802 542 l 868 608 l 1042 608 l 1042 521 l 868 347 l 738 347 l 587 500 l 521 434 l 347 434 z "},"Ä":{"ha":1389,"x_min":174,"x_max":1215,"o":"m 174 0 l 174 434 l 608 868 l 781 868 l 1215 434 l 1215 0 l 1042 0 l 1042 87 l 347 87 l 347 0 l 174 0 m 347 260 l 1042 260 l 1042 347 l 694 694 l 347 347 l 347 260 m 434 1042 l 434 1215 l 608 1215 l 608 1042 l 434 1042 m 781 1042 l 781 1215 l 955 1215 l 955 1042 l 781 1042 z "},"Å":{"ha":1389,"x_min":174,"x_max":1215,"o":"m 174 0 l 174 434 l 608 868 l 781 868 l 1215 434 l 1215 0 l 1042 0 l 1042 87 l 347 87 l 347 0 l 174 0 m 347 260 l 1042 260 l 1042 347 l 694 694 l 347 347 l 347 260 m 434 1042 l 434 1128 l 521 1215 l 868 1215 l 955 1128 l 955 1042 l 868 955 l 521 955 l 434 1042 m 608 1042 l 781 1042 l 781 1128 l 608 1128 l 608 1042 z "},"Ç":{"ha":1389,"x_min":174,"x_max":1215,"o":"m 174 434 l 174 955 l 434 1215 l 955 1215 l 1215 955 l 1215 868 l 1042 868 l 868 1042 l 521 1042 l 347 868 l 347 521 l 521 347 l 868 347 l 1042 521 l 1215 521 l 1215 434 l 955 174 l 781 174 l 781 87 l 868 87 l 955 0 l 955 -87 l 868 -174 l 434 -174 l 434 -87 l 781 -87 l 781 0 l 608 0 l 608 174 l 434 174 l 174 434 z "},"É":{"ha":1389,"x_min":174,"x_max":1215,"o":"m 174 0 l 174 868 l 1215 868 l 1215 694 l 347 694 l 347 521 l 1042 521 l 1042 347 l 347 347 l 347 174 l 1215 174 l 1215 0 l 174 0 m 608 955 l 608 1042 l 781 1215 l 955 1215 l 955 1128 l 781 955 l 608 955 z "},"Ñ":{"ha":1389,"x_min":174,"x_max":1215,"o":"m 174 0 l 174 868 l 391 868 l 1042 217 l 1042 868 l 1215 868 l 1215 0 l 998 0 l 347 651 l 347 0 l 174 0 m 347 955 l 347 1042 l 521 1215 l 694 1215 l 781 1128 l 868 1215 l 1042 1215 l 1042 1128 l 868 955 l 694 955 l 608 1042 l 521 955 l 347 955 z "},"Ö":{"ha":1389,"x_min":174,"x_max":1215,"o":"m 174 260 l 174 608 l 434 868 l 955 868 l 1215 608 l 1215 260 l 955 0 l 434 0 l 174 260 m 347 347 l 521 174 l 868 174 l 1042 347 l 1042 521 l 868 694 l 521 694 l 347 521 l 347 347 m 434 1042 l 434 1215 l 608 1215 l 608 1042 l 434 1042 m 781 1042 l 781 1215 l 955 1215 l 955 1042 l 781 1042 z "},"Ü":{"ha":1389,"x_min":174,"x_max":1215,"o":"m 174 260 l 174 868 l 347 868 l 347 347 l 521 174 l 868 174 l 1042 347 l 1042 868 l 1215 868 l 1215 260 l 955 0 l 434 0 l 174 260 m 434 1042 l 434 1215 l 608 1215 l 608 1042 l 434 1042 m 781 1042 l 781 1215 l 955 1215 l 955 1042 l 781 1042 z "},"á":{"ha":1389,"x_min":347,"x_max":1042,"o":"m 347 130 l 347 391 l 477 521 l 868 521 l 868 608 l 781 694 l 521 694 l 521 868 l 868 868 l 1042 694 l 1042 0 l 477 0 l 347 130 m 521 217 l 564 174 l 868 174 l 868 347 l 564 347 l 521 304 l 521 217 m 608 955 l 608 1042 l 781 1215 l 955 1215 l 955 1128 l 781 955 l 608 955 z "},"à":{"ha":1389,"x_min":347,"x_max":1042,"o":"m 347 130 l 347 391 l 477 521 l 868 521 l 868 608 l 781 694 l 521 694 l 521 868 l 868 868 l 1042 694 l 1042 0 l 477 0 l 347 130 m 434 1128 l 434 1215 l 608 1215 l 781 1042 l 781 955 l 608 955 l 434 1128 m 521 217 l 564 174 l 868 174 l 868 347 l 564 347 l 521 304 l 521 217 z "},"â":{"ha":1389,"x_min":347,"x_max":1042,"o":"m 347 130 l 347 391 l 477 521 l 868 521 l 868 608 l 781 694 l 521 694 l 521 868 l 868 868 l 1042 694 l 1042 0 l 477 0 l 347 130 m 434 955 l 434 1042 l 608 1215 l 781 1215 l 955 1042 l 955 955 l 781 955 l 694 1042 l 608 955 l 434 955 m 521 217 l 564 174 l 868 174 l 868 347 l 564 347 l 521 304 l 521 217 z "},"ä":{"ha":1389,"x_min":347,"x_max":1042,"o":"m 347 130 l 347 391 l 477 521 l 868 521 l 868 608 l 781 694 l 521 694 l 521 868 l 868 868 l 1042 694 l 1042 0 l 477 0 l 347 130 m 434 1042 l 434 1215 l 608 1215 l 608 1042 l 434 1042 m 521 217 l 564 174 l 868 174 l 868 347 l 564 347 l 521 304 l 521 217 m 781 1042 l 781 1215 l 955 1215 l 955 1042 l 781 1042 z "},"ã":{"ha":1389,"x_min":347,"x_max":1042,"o":"m 347 130 l 347 391 l 477 521 l 868 521 l 868 608 l 781 694 l 521 694 l 521 868 l 868 868 l 1042 694 l 1042 0 l 477 0 l 347 130 m 347 955 l 347 1042 l 521 1215 l 694 1215 l 781 1128 l 868 1215 l 1042 1215 l 1042 1128 l 868 955 l 694 955 l 608 1042 l 521 955 l 347 955 m 521 217 l 564 174 l 868 174 l 868 347 l 564 347 l 521 304 l 521 217 z "},"å":{"ha":1389,"x_min":347,"x_max":1042,"o":"m 347 130 l 347 391 l 477 521 l 868 521 l 868 608 l 781 694 l 521 694 l 521 868 l 868 868 l 1042 694 l 1042 0 l 477 0 l 347 130 m 434 1042 l 434 1128 l 521 1215 l 868 1215 l 955 1128 l 955 1042 l 868 955 l 521 955 l 434 1042 m 521 217 l 564 174 l 868 174 l 868 347 l 564 347 l 521 304 l 521 217 m 608 1042 l 781 1042 l 781 1128 l 608 1128 l 608 1042 z "},"ç":{"ha":1389,"x_min":347,"x_max":1042,"o":"m 347 347 l 347 868 l 521 1042 l 868 1042 l 1042 868 l 1042 781 l 868 781 l 781 868 l 608 868 l 521 781 l 521 434 l 608 347 l 781 347 l 868 434 l 1042 434 l 1042 347 l 868 174 l 781 174 l 781 87 l 868 87 l 955 0 l 955 -87 l 868 -174 l 434 -174 l 434 -87 l 781 -87 l 781 0 l 608 0 l 608 174 l 521 174 l 347 347 z "},"é":{"ha":1389,"x_min":347,"x_max":1042,"o":"m 347 174 l 347 694 l 521 868 l 868 868 l 1042 694 l 1042 347 l 521 347 l 521 260 l 608 174 l 1042 174 l 1042 0 l 521 0 l 347 174 m 521 521 l 868 521 l 868 608 l 781 694 l 608 694 l 521 608 l 521 521 m 608 955 l 608 1042 l 781 1215 l 955 1215 l 955 1128 l 781 955 l 608 955 z "},"è":{"ha":1389,"x_min":347,"x_max":1042,"o":"m 347 174 l 347 694 l 521 868 l 868 868 l 1042 694 l 1042 347 l 521 347 l 521 260 l 608 174 l 1042 174 l 1042 0 l 521 0 l 347 174 m 434 1128 l 434 1215 l 608 1215 l 781 1042 l 781 955 l 608 955 l 434 1128 m 521 521 l 868 521 l 868 608 l 781 694 l 608 694 l 521 608 l 521 521 z "},"ê":{"ha":1389,"x_min":347,"x_max":1042,"o":"m 347 174 l 347 694 l 521 868 l 868 868 l 1042 694 l 1042 347 l 521 347 l 521 260 l 608 174 l 1042 174 l 1042 0 l 521 0 l 347 174 m 434 955 l 434 1042 l 608 1215 l 781 1215 l 955 1042 l 955 955 l 781 955 l 694 1042 l 608 955 l 434 955 m 521 521 l 868 521 l 868 608 l 781 694 l 608 694 l 521 608 l 521 521 z "},"ë":{"ha":1389,"x_min":347,"x_max":1042,"o":"m 347 174 l 347 694 l 521 868 l 868 868 l 1042 694 l 1042 347 l 521 347 l 521 260 l 608 174 l 1042 174 l 1042 0 l 521 0 l 347 174 m 434 1042 l 434 1215 l 608 1215 l 608 1042 l 434 1042 m 521 521 l 868 521 l 868 608 l 781 694 l 608 694 l 521 608 l 521 521 m 781 1042 l 781 1215 l 955 1215 l 955 1042 l 781 1042 z "},"í":{"ha":1389,"x_min":347,"x_max":1042,"o":"m 347 0 l 347 174 l 608 174 l 608 694 l 347 694 l 347 868 l 781 868 l 781 174 l 1042 174 l 1042 0 l 347 0 m 608 955 l 608 1042 l 781 1215 l 955 1215 l 955 1128 l 781 955 l 608 955 z "},"ì":{"ha":1389,"x_min":347,"x_max":1042,"o":"m 347 0 l 347 174 l 608 174 l 608 694 l 347 694 l 347 868 l 781 868 l 781 174 l 1042 174 l 1042 0 l 347 0 m 434 1128 l 434 1215 l 608 1215 l 781 1042 l 781 955 l 608 955 l 434 1128 z "},"î":{"ha":1389,"x_min":347,"x_max":1042,"o":"m 347 0 l 347 174 l 608 174 l 608 694 l 347 694 l 347 868 l 781 868 l 781 174 l 1042 174 l 1042 0 l 347 0 m 434 955 l 434 1042 l 608 1215 l 781 1215 l 955 1042 l 955 955 l 781 955 l 694 1042 l 608 955 l 434 955 z "},"ï":{"ha":1389,"x_min":347,"x_max":1042,"o":"m 347 0 l 347 174 l 608 174 l 608 694 l 347 694 l 347 868 l 781 868 l 781 174 l 1042 174 l 1042 0 l 347 0 m 434 1042 l 434 1215 l 608 1215 l 608 1042 l 434 1042 m 781 1042 l 781 1215 l 955 1215 l 955 1042 l 781 1042 z "},"ñ":{"ha":1389,"x_min":347,"x_max":1042,"o":"m 347 0 l 347 868 l 868 868 l 1042 694 l 1042 0 l 868 0 l 868 608 l 781 694 l 521 694 l 521 0 l 347 0 m 347 955 l 347 1042 l 521 1215 l 694 1215 l 781 1128 l 868 1215 l 1042 1215 l 1042 1128 l 868 955 l 694 955 l 608 1042 l 521 955 l 347 955 z "},"ó":{"ha":1389,"x_min":347,"x_max":1042,"o":"m 347 174 l 347 694 l 521 868 l 868 868 l 1042 694 l 1042 174 l 868 0 l 521 0 l 347 174 m 521 260 l 608 174 l 781 174 l 868 260 l 868 608 l 781 694 l 608 694 l 521 608 l 521 260 m 608 955 l 608 1042 l 781 1215 l 955 1215 l 955 1128 l 781 955 l 608 955 z "},"ò":{"ha":1389,"x_min":347,"x_max":1042,"o":"m 347 174 l 347 694 l 521 868 l 868 868 l 1042 694 l 1042 174 l 868 0 l 521 0 l 347 174 m 434 1128 l 434 1215 l 608 1215 l 781 1042 l 781 955 l 608 955 l 434 1128 m 521 260 l 608 174 l 781 174 l 868 260 l 868 608 l 781 694 l 608 694 l 521 608 l 521 260 z "},"ô":{"ha":1389,"x_min":347,"x_max":1042,"o":"m 347 174 l 347 694 l 521 868 l 868 868 l 1042 694 l 1042 174 l 868 0 l 521 0 l 347 174 m 434 955 l 434 1042 l 608 1215 l 781 1215 l 955 1042 l 955 955 l 781 955 l 694 1042 l 608 955 l 434 955 m 521 260 l 608 174 l 781 174 l 868 260 l 868 608 l 781 694 l 608 694 l 521 608 l 521 260 z "},"ö":{"ha":1389,"x_min":347,"x_max":1042,"o":"m 347 174 l 347 694 l 521 868 l 868 868 l 1042 694 l 1042 174 l 868 0 l 521 0 l 347 174 m 434 1042 l 434 1215 l 608 1215 l 608 1042 l 434 1042 m 521 260 l 608 174 l 781 174 l 868 260 l 868 608 l 781 694 l 608 694 l 521 608 l 521 260 m 781 1042 l 781 1215 l 955 1215 l 955 1042 l 781 1042 z "},"õ":{"ha":1389,"x_min":347,"x_max":1042,"o":"m 347 174 l 347 694 l 521 868 l 868 868 l 1042 694 l 1042 174 l 868 0 l 521 0 l 347 174 m 347 955 l 347 1042 l 521 1215 l 694 1215 l 781 1128 l 868 1215 l 1042 1215 l 1042 1128 l 868 955 l 694 955 l 608 1042 l 521 955 l 347 955 m 521 260 l 608 174 l 781 174 l 868 260 l 868 608 l 781 694 l 608 694 l 521 608 l 521 260 z "},"ú":{"ha":1389,"x_min":347,"x_max":1042,"o":"m 347 174 l 347 868 l 521 868 l 521 260 l 608 174 l 868 174 l 868 868 l 1042 868 l 1042 0 l 521 0 l 347 174 m 608 955 l 608 1042 l 781 1215 l 955 1215 l 955 1128 l 781 955 l 608 955 z "},"ù":{"ha":1389,"x_min":347,"x_max":1042,"o":"m 347 174 l 347 868 l 521 868 l 521 260 l 608 174 l 868 174 l 868 868 l 1042 868 l 1042 0 l 521 0 l 347 174 m 434 1128 l 434 1215 l 608 1215 l 781 1042 l 781 955 l 608 955 l 434 1128 z "},"û":{"ha":1389,"x_min":347,"x_max":1042,"o":"m 347 174 l 347 868 l 521 868 l 521 260 l 608 174 l 868 174 l 868 868 l 1042 868 l 1042 0 l 521 0 l 347 174 m 434 955 l 434 1042 l 608 1215 l 781 1215 l 955 1042 l 955 955 l 781 955 l 694 1042 l 608 955 l 434 955 z "},"ü":{"ha":1389,"x_min":347,"x_max":1042,"o":"m 347 174 l 347 868 l 521 868 l 521 260 l 608 174 l 868 174 l 868 868 l 1042 868 l 1042 0 l 521 0 l 347 174 m 434 1042 l 434 1215 l 608 1215 l 608 1042 l 434 1042 m 781 1042 l 781 1215 l 955 1215 l 955 1042 l 781 1042 z "},"†":{"ha":1389,"x_min":434,"x_max":955,"o":"m 434 868 l 434 1042 l 608 1042 l 608 1215 l 781 1215 l 781 1042 l 955 1042 l 955 868 l 781 868 l 781 347 l 608 347 l 608 868 l 434 868 z "},"°":{"ha":1389,"x_min":434,"x_max":955,"o":"m 434 825 l 434 1085 l 564 1215 l 825 1215 l 955 1085 l 955 825 l 825 694 l 564 694 l 434 825 m 608 911 l 651 868 l 738 868 l 781 911 l 781 998 l 738 1042 l 651 1042 l 608 998 l 608 911 z "},"¢":{"ha":1389,"x_min":347,"x_max":1042,"o":"m 347 347 l 347 868 l 521 1042 l 608 1042 l 608 1215 l 781 1215 l 781 1042 l 868 1042 l 1042 868 l 1042 781 l 868 781 l 781 868 l 781 347 l 868 434 l 1042 434 l 1042 347 l 868 174 l 781 174 l 781 0 l 608 0 l 608 174 l 521 174 l 347 347 m 521 434 l 608 347 l 608 868 l 521 781 l 521 434 z "},"£":{"ha":1389,"x_min":174,"x_max":1215,"o":"m 174 87 l 174 347 l 260 434 l 608 434 l 608 608 l 347 608 l 347 781 l 608 781 l 608 1042 l 781 1215 l 1045 1215 l 1215 1042 l 1215 955 l 1042 955 l 955 1042 l 865 1042 l 781 955 l 781 781 l 1042 781 l 1042 608 l 781 608 l 781 434 l 955 434 l 1215 174 l 1215 0 l 1042 0 l 1042 87 l 868 260 l 781 260 l 781 130 l 651 0 l 260 0 l 174 87 m 347 174 l 564 174 l 608 217 l 608 260 l 347 260 l 347 174 z "},"§":{"ha":1389,"x_min":347,"x_max":1042,"o":"m 347 0 l 347 174 l 825 174 l 868 217 l 868 304 l 825 347 l 477 347 l 347 477 l 347 738 l 391 781 l 347 825 l 347 1085 l 477 1215 l 1042 1215 l 1042 1042 l 564 1042 l 521 998 l 521 911 l 564 868 l 911 868 l 1042 738 l 1042 477 l 998 434 l 1042 391 l 1042 130 l 911 0 l 347 0 m 521 564 l 564 521 l 825 521 l 868 564 l 868 651 l 825 694 l 564 694 l 521 651 l 521 564 z "},"•":{"ha":1389,"x_min":521,"x_max":868,"o":"m 521 521 l 521 694 l 608 781 l 781 781 l 868 694 l 868 521 l 781 434 l 608 434 l 521 521 z "},"¶":{"ha":1389,"x_min":174,"x_max":1215,"o":"m 174 694 l 174 1042 l 347 1215 l 1215 1215 l 1215 1042 l 1128 1042 l 1128 0 l 955 0 l 955 1042 l 868 1042 l 868 0 l 694 0 l 694 521 l 347 521 l 174 694 m 347 781 l 434 694 l 694 694 l 694 1042 l 434 1042 l 347 955 l 347 781 z "},"ß":{"ha":1389,"x_min":347,"x_max":1042,"o":"m 347 0 l 347 1042 l 521 1215 l 868 1215 l 1042 1042 l 1042 781 l 868 608 l 1042 434 l 1042 174 l 868 0 l 608 0 l 608 174 l 781 174 l 868 260 l 868 347 l 694 521 l 694 694 l 868 868 l 868 955 l 781 1042 l 608 1042 l 521 955 l 521 0 l 347 0 z "},"®":{"ha":1389,"x_min":87,"x_max":1302,"o":"m 87 260 l 87 955 l 347 1215 l 1042 1215 l 1302 955 l 1302 260 l 1042 0 l 347 0 l 87 260 m 260 347 l 434 174 l 955 174 l 1128 347 l 1128 868 l 955 1042 l 434 1042 l 260 868 l 260 347 m 347 260 l 347 955 l 955 955 l 1042 868 l 1042 608 l 955 521 l 868 521 l 1042 347 l 1042 260 l 868 260 l 608 521 l 521 521 l 521 260 l 347 260 m 521 694 l 868 694 l 868 781 l 521 781 l 521 694 z "},"©":{"ha":1389,"x_min":87,"x_max":1302,"o":"m 87 260 l 87 955 l 347 1215 l 1042 1215 l 1302 955 l 1302 260 l 1042 0 l 347 0 l 87 260 m 260 347 l 434 174 l 955 174 l 1128 347 l 1128 868 l 955 1042 l 434 1042 l 260 868 l 260 347 m 347 434 l 347 781 l 521 955 l 868 955 l 1042 781 l 1042 694 l 868 694 l 781 781 l 608 781 l 521 694 l 521 521 l 608 434 l 781 434 l 868 521 l 1042 521 l 1042 434 l 868 260 l 521 260 l 347 434 z "},"™":{"ha":1389,"x_min":87,"x_max":1302,"o":"m 87 1042 l 87 1215 l 781 1215 l 955 1042 l 1128 1215 l 1302 1215 l 1302 521 l 1128 521 l 1128 955 l 1042 868 l 1042 694 l 868 694 l 868 868 l 781 955 l 781 521 l 608 521 l 608 1042 l 434 1042 l 434 521 l 260 521 l 260 1042 l 87 1042 z "},"´":{"ha":1389,"x_min":477,"x_max":911,"o":"m 477 868 l 477 955 l 738 1215 l 911 1215 l 911 1128 l 651 868 l 477 868 z "},"¨":{"ha":1389,"x_min":434,"x_max":955,"o":"m 434 1042 l 434 1215 l 608 1215 l 608 1042 l 434 1042 m 781 1042 l 781 1215 l 955 1215 l 955 1042 l 781 1042 z "},"≠":{"ha":1389,"x_min":347,"x_max":1042,"o":"m 347 347 l 347 521 l 608 521 l 608 694 l 347 694 l 347 868 l 608 868 l 608 1042 l 781 1042 l 781 868 l 1042 868 l 1042 694 l 781 694 l 781 521 l 1042 521 l 1042 347 l 781 347 l 781 174 l 608 174 l 608 347 l 347 347 z "},"Æ":{"ha":1389,"x_min":174,"x_max":1215,"o":"m 174 0 l 174 781 l 608 1215 l 1215 1215 l 1215 1042 l 781 1042 l 781 694 l 1042 694 l 1042 521 l 781 521 l 781 174 l 1215 174 l 1215 0 l 608 0 l 608 260 l 347 260 l 347 0 l 174 0 m 347 434 l 608 434 l 608 955 l 347 694 l 347 434 z "},"Ø":{"ha":1389,"x_min":174,"x_max":1215,"o":"m 174 260 l 174 955 l 434 1215 l 955 1215 l 1215 955 l 1215 260 l 955 0 l 434 0 l 174 260 m 347 391 l 934 976 l 868 1042 l 521 1042 l 347 868 l 347 391 m 455 240 l 521 174 l 868 174 l 1042 347 l 1042 825 l 455 240 z "},"∞":{"ha":1389,"x_min":174,"x_max":1215,"o":"m 174 477 l 174 738 l 304 868 l 564 868 l 694 738 l 825 868 l 1085 868 l 1215 738 l 1215 477 l 1085 347 l 825 347 l 694 477 l 564 347 l 304 347 l 174 477 m 347 564 l 391 521 l 477 521 l 564 608 l 477 694 l 391 694 l 347 651 l 347 564 m 825 608 l 911 521 l 998 521 l 1042 564 l 1042 651 l 998 694 l 911 694 l 825 608 z "},"±":{"ha":1389,"x_min":347,"x_max":1042,"o":"m 347 0 l 347 174 l 1042 174 l 1042 0 l 347 0 m 347 521 l 347 694 l 608 694 l 608 955 l 781 955 l 781 694 l 1042 694 l 1042 521 l 781 521 l 781 260 l 608 260 l 608 521 l 347 521 z "},"≤":{"ha":1389,"x_min":347,"x_max":1042,"o":"m 347 0 l 1042 0 l 1042 -174 l 347 -174 l 347 0 m 347 608 l 868 1128 l 1042 1128 l 1042 1042 l 608 608 l 1042 174 l 1042 87 l 868 87 l 347 608 z "},"≥":{"ha":1389,"x_min":347,"x_max":1042,"o":"m 347 0 l 1042 0 l 1042 -174 l 347 -174 l 347 0 m 347 87 l 347 174 l 781 608 l 347 1042 l 347 1128 l 521 1128 l 1042 608 l 521 87 l 347 87 z "},"¥":{"ha":1389,"x_min":174,"x_max":1215,"o":"m 174 1042 l 174 1215 l 347 1215 l 347 1128 l 694 781 l 1042 1128 l 1042 1215 l 1215 1215 l 1215 1042 l 781 608 l 1042 608 l 1042 434 l 781 434 l 781 347 l 1042 347 l 1042 174 l 781 174 l 781 0 l 608 0 l 608 174 l 347 174 l 347 347 l 608 347 l 608 434 l 347 434 l 347 608 l 608 608 l 174 1042 z "},"µ":{"ha":1389,"x_min":347,"x_max":1042,"o":"m 347 -174 l 347 868 l 521 868 l 521 174 l 781 174 l 868 260 l 868 868 l 1042 868 l 1042 174 l 868 0 l 521 0 l 521 -174 l 347 -174 z "},"∂":{"ha":1389,"x_min":347,"x_max":1042,"o":"m 347 174 l 347 694 l 521 868 l 694 868 l 434 1128 l 434 1215 l 608 1215 l 1042 781 l 1042 174 l 868 0 l 521 0 l 347 174 m 521 260 l 608 174 l 781 174 l 868 260 l 868 694 l 608 694 l 521 608 l 521 260 z "},"∑":{"ha":1389,"x_min":174,"x_max":1215,"o":"m 174 0 l 174 174 l 608 608 l 174 1042 l 174 1215 l 1215 1215 l 1215 955 l 1042 955 l 1042 1042 l 434 1042 l 781 694 l 781 521 l 434 174 l 1042 174 l 1042 260 l 1215 260 l 1215 0 l 174 0 z "},"∏":{"ha":1389,"x_min":174,"x_max":1215,"o":"m 174 0 l 174 174 l 260 174 l 260 1042 l 174 1042 l 174 1215 l 1215 1215 l 1215 1042 l 1128 1042 l 1128 174 l 1215 174 l 1215 0 l 868 0 l 868 174 l 955 174 l 955 1042 l 434 1042 l 434 174 l 521 174 l 521 0 l 174 0 z "},"π":{"ha":1389,"x_min":260,"x_max":1128,"o":"m 260 694 l 260 868 l 1128 868 l 1128 694 l 955 694 l 955 0 l 781 0 l 781 694 l 608 694 l 608 0 l 434 0 l 434 694 l 260 694 z "},"∫":{"ha":1389,"x_min":347,"x_max":1042,"o":"m 347 0 l 521 0 l 608 87 l 608 1042 l 781 1215 l 1042 1215 l 1042 1042 l 868 1042 l 781 955 l 781 0 l 608 -174 l 347 -174 l 347 0 z "},"ª":{"ha":1389,"x_min":434,"x_max":955,"o":"m 434 608 l 434 868 l 521 955 l 781 955 l 781 1042 l 521 1042 l 521 1215 l 868 1215 l 955 1128 l 955 521 l 521 521 l 434 608 m 521 174 l 521 347 l 868 347 l 868 174 l 521 174 m 608 694 l 781 694 l 781 781 l 608 781 l 608 694 z "},"º":{"ha":1389,"x_min":434,"x_max":955,"o":"m 434 608 l 434 1128 l 521 1215 l 868 1215 l 955 1128 l 955 608 l 868 521 l 521 521 l 434 608 m 521 174 l 521 347 l 868 347 l 868 174 l 521 174 m 608 694 l 781 694 l 781 1042 l 608 1042 l 608 694 z "},"Ω":{"ha":1389,"x_min":174,"x_max":1215,"o":"m 174 0 l 174 174 l 434 174 l 174 434 l 174 955 l 434 1215 l 955 1215 l 1215 955 l 1215 434 l 955 174 l 1215 174 l 1215 0 l 781 0 l 781 260 l 1042 521 l 1042 868 l 868 1042 l 521 1042 l 347 868 l 347 521 l 608 260 l 608 0 l 174 0 z "},"æ":{"ha":1389,"x_min":174,"x_max":1215,"o":"m 174 130 l 174 391 l 304 521 l 608 521 l 608 608 l 521 694 l 347 694 l 347 868 l 608 868 l 694 781 l 781 868 l 1042 868 l 1215 694 l 1215 347 l 781 347 l 781 174 l 1215 174 l 1215 0 l 304 0 l 174 130 m 347 217 l 391 174 l 608 174 l 608 347 l 391 347 l 347 304 l 347 217 m 781 521 l 1042 521 l 1042 608 l 955 694 l 868 694 l 781 608 l 781 521 z "},"ø":{"ha":1389,"x_min":347,"x_max":1042,"o":"m 347 174 l 347 694 l 521 868 l 868 868 l 1042 694 l 1042 174 l 868 0 l 521 0 l 347 174 m 521 391 l 804 672 l 781 694 l 608 694 l 521 608 l 521 391 m 585 196 l 608 174 l 781 174 l 868 260 l 868 477 l 585 196 z "},"¿":{"ha":1389,"x_min":174,"x_max":1215,"o":"m 174 0 l 174 260 l 608 694 l 781 694 l 781 608 l 347 174 l 347 87 l 434 0 l 868 0 l 1042 174 l 1215 174 l 1215 87 l 955 -174 l 347 -174 l 174 0 m 608 868 l 608 1042 l 781 1042 l 781 868 l 608 868 z "},"¡":{"ha":1389,"x_min":608,"x_max":781,"o":"m 608 -174 l 608 694 l 781 694 l 781 -174 l 608 -174 m 608 868 l 608 1042 l 781 1042 l 781 868 l 608 868 z "},"¬":{"ha":1389,"x_min":347,"x_max":1042,"o":"m 347 608 l 347 781 l 1042 781 l 1042 434 l 868 434 l 868 608 l 347 608 z "},"√":{"ha":1389,"x_min":174,"x_max":1215,"o":"m 174 347 l 174 521 l 434 521 l 694 260 l 694 1215 l 1215 1215 l 1215 1042 l 868 1042 l 868 0 l 694 0 l 347 347 l 174 347 z "},"ƒ":{"ha":1389,"x_min":347,"x_max":1042,"o":"m 347 0 l 521 0 l 608 87 l 608 694 l 347 694 l 347 868 l 608 868 l 608 1042 l 781 1215 l 1042 1215 l 1042 1042 l 868 1042 l 781 955 l 781 868 l 1042 868 l 1042 694 l 781 694 l 781 0 l 608 -174 l 347 -174 l 347 0 z "},"≈":{"ha":1389,"x_min":347,"x_max":1042,"o":"m 347 260 l 347 347 l 521 521 l 651 521 l 802 368 l 868 434 l 1042 434 l 1042 347 l 868 174 l 738 174 l 587 326 l 521 260 l 347 260 m 347 781 l 347 868 l 521 1042 l 651 1042 l 802 889 l 868 955 l 1042 955 l 1042 868 l 868 694 l 738 694 l 587 847 l 521 781 l 347 781 z "},"∆":{"ha":1389,"x_min":174,"x_max":1215,"o":"m 174 0 l 174 781 l 608 1215 l 781 1215 l 1215 781 l 1215 0 l 174 0 m 347 174 l 1042 174 l 1042 694 l 694 1042 l 347 694 l 347 174 z "},"«":{"ha":1389,"x_min":174,"x_max":1215,"o":"m 174 608 l 521 955 l 694 955 l 694 868 l 434 608 l 694 347 l 694 260 l 521 260 l 174 608 m 694 608 l 1042 955 l 1215 955 l 1215 868 l 955 608 l 1215 347 l 1215 260 l 1042 260 l 694 608 z "},"»":{"ha":1389,"x_min":174,"x_max":1215,"o":"m 174 260 l 174 347 l 434 608 l 174 868 l 174 955 l 347 955 l 694 608 l 347 260 l 174 260 m 694 260 l 694 347 l 955 608 l 694 868 l 694 955 l 868 955 l 1215 608 l 868 260 l 694 260 z "},"…":{"ha":1389,"x_min":174,"x_max":1215,"o":"m 174 0 l 174 174 l 347 174 l 347 0 l 174 0 m 608 0 l 608 174 l 781 174 l 781 0 l 608 0 m 1042 0 l 1042 174 l 1215 174 l 1215 0 l 1042 0 z "}," ":{"ha":1389,"x_min":0,"x_max":0,"o":""},"À":{"ha":1389,"x_min":174,"x_max":1215,"o":"m 174 0 l 174 434 l 608 868 l 781 868 l 1215 434 l 1215 0 l 1042 0 l 1042 87 l 347 87 l 347 0 l 174 0 m 347 260 l 1042 260 l 1042 347 l 694 694 l 347 347 l 347 260 m 434 1128 l 434 1215 l 608 1215 l 781 1042 l 781 955 l 608 955 l 434 1128 z "},"Ã":{"ha":1389,"x_min":174,"x_max":1215,"o":"m 174 0 l 174 434 l 608 868 l 781 868 l 1215 434 l 1215 0 l 1042 0 l 1042 87 l 347 87 l 347 0 l 174 0 m 347 260 l 1042 260 l 1042 347 l 694 694 l 347 347 l 347 260 m 347 955 l 347 1042 l 521 1215 l 694 1215 l 781 1128 l 868 1215 l 1042 1215 l 1042 1128 l 868 955 l 694 955 l 608 1042 l 521 955 l 347 955 z "},"Õ":{"ha":1389,"x_min":174,"x_max":1215,"o":"m 174 260 l 174 608 l 434 868 l 955 868 l 1215 608 l 1215 260 l 955 0 l 434 0 l 174 260 m 347 347 l 521 174 l 868 174 l 1042 347 l 1042 521 l 868 694 l 521 694 l 347 521 l 347 347 m 347 955 l 347 1042 l 521 1215 l 694 1215 l 781 1128 l 868 1215 l 1042 1215 l 1042 1128 l 868 955 l 694 955 l 608 1042 l 521 955 l 347 955 z "},"Œ":{"ha":1389,"x_min":174,"x_max":1215,"o":"m 174 260 l 174 955 l 434 1215 l 1215 1215 l 1215 1042 l 781 1042 l 781 694 l 1042 694 l 1042 521 l 781 521 l 781 174 l 1215 174 l 1215 0 l 434 0 l 174 260 m 347 347 l 521 174 l 608 174 l 608 1042 l 521 1042 l 347 868 l 347 347 z "},"œ":{"ha":1389,"x_min":174,"x_max":1215,"o":"m 174 174 l 174 694 l 347 868 l 608 868 l 694 781 l 781 868 l 1042 868 l 1215 694 l 1215 347 l 781 347 l 781 260 l 868 174 l 1215 174 l 1215 0 l 781 0 l 694 87 l 608 0 l 347 0 l 174 174 m 347 260 l 434 174 l 521 174 l 608 260 l 608 608 l 521 694 l 434 694 l 347 608 l 347 260 m 781 521 l 1042 521 l 1042 608 l 955 694 l 868 694 l 781 608 l 781 521 z "},"–":{"ha":1389,"x_min":347,"x_max":1042,"o":"m 347 521 l 347 694 l 1042 694 l 1042 521 l 347 521 z "},"—":{"ha":1389,"x_min":0,"x_max":1389,"o":"m 0 521 l 0 694 l 1389 694 l 1389 521 l 0 521 z "},"“":{"ha":1389,"x_min":434,"x_max":955,"o":"m 434 868 l 434 1128 l 521 1215 l 608 1215 l 608 868 l 434 868 m 781 868 l 781 1128 l 868 1215 l 955 1215 l 955 868 l 781 868 z "},"”":{"ha":1389,"x_min":434,"x_max":955,"o":"m 434 868 l 434 1215 l 608 1215 l 608 955 l 521 868 l 434 868 m 781 868 l 781 1215 l 955 1215 l 955 955 l 868 868 l 781 868 z "},"‘":{"ha":1389,"x_min":608,"x_max":781,"o":"m 608 868 l 608 1128 l 694 1215 l 781 1215 l 781 868 l 608 868 z "},"’":{"ha":1389,"x_min":608,"x_max":781,"o":"m 608 868 l 608 1215 l 781 1215 l 781 955 l 694 868 l 608 868 z "},"÷":{"ha":1389,"x_min":347,"x_max":1042,"o":"m 347 521 l 347 694 l 1042 694 l 1042 521 l 347 521 m 608 260 l 608 434 l 781 434 l 781 260 l 608 260 m 608 781 l 608 955 l 781 955 l 781 781 l 608 781 z "},"◊":{"ha":1389,"x_min":260,"x_max":1128,"o":"m 260 608 l 608 1215 l 781 1215 l 1128 608 l 781 0 l 608 0 l 260 608 m 434 608 l 694 156 l 955 608 l 694 1059 l 434 608 z "},"ÿ":{"ha":1389,"x_min":347,"x_max":1042,"o":"m 347 -87 l 564 130 l 347 347 l 347 868 l 521 868 l 521 434 l 694 260 l 868 434 l 868 868 l 1042 868 l 1042 347 l 521 -174 l 347 -174 l 347 -87 m 434 1042 l 434 1215 l 608 1215 l 608 1042 l 434 1042 m 781 1042 l 781 1215 l 955 1215 l 955 1042 l 781 1042 z "},"Ÿ":{"ha":1389,"x_min":174,"x_max":1215,"o":"m 174 781 l 174 868 l 347 868 l 694 521 l 1042 868 l 1215 868 l 1215 781 l 781 347 l 781 0 l 608 0 l 608 347 l 174 781 m 434 1042 l 434 1215 l 608 1215 l 608 1042 l 434 1042 m 781 1042 l 781 1215 l 955 1215 l 955 1042 l 781 1042 z "},"⁄":{"ha":1389,"x_min":260,"x_max":1128,"o":"m 260 174 l 260 304 l 998 1042 l 1128 1042 l 1128 911 l 391 174 l 260 174 z "},"¤":{"ha":1389,"x_min":260,"x_max":1128,"o":"m 260 174 l 260 304 l 434 477 l 434 738 l 260 911 l 260 1042 l 391 1042 l 564 868 l 825 868 l 998 1042 l 1128 1042 l 1128 911 l 955 738 l 955 477 l 1128 304 l 1128 174 l 998 174 l 825 347 l 564 347 l 391 174 l 260 174 m 608 521 l 781 521 l 781 694 l 608 694 l 608 521 z "},"‹":{"ha":1389,"x_min":434,"x_max":955,"o":"m 434 608 l 781 955 l 955 955 l 955 868 l 694 608 l 955 347 l 955 260 l 781 260 l 434 608 z "},"›":{"ha":1389,"x_min":434,"x_max":955,"o":"m 434 260 l 434 347 l 694 608 l 434 868 l 434 955 l 608 955 l 955 608 l 608 260 l 434 260 z "},"ﬁ":{"ha":1389,"x_min":174,"x_max":1215,"o":"m 174 694 l 174 868 l 347 868 l 347 1042 l 521 1215 l 868 1215 l 868 1042 l 608 1042 l 521 955 l 521 868 l 1042 868 l 1042 174 l 1215 174 l 1215 0 l 694 0 l 694 174 l 868 174 l 868 694 l 521 694 l 521 0 l 347 0 l 347 694 l 174 694 z "},"ﬂ":{"ha":1389,"x_min":174,"x_max":1215,"o":"m 174 694 l 174 868 l 347 868 l 347 1042 l 521 1215 l 1042 1215 l 1042 174 l 1215 174 l 1215 0 l 694 0 l 694 174 l 868 174 l 868 1042 l 608 1042 l 521 955 l 521 868 l 694 868 l 694 694 l 521 694 l 521 0 l 347 0 l 347 694 l 174 694 z "},"‡":{"ha":1389,"x_min":434,"x_max":955,"o":"m 434 521 l 434 694 l 608 694 l 608 868 l 434 868 l 434 1042 l 608 1042 l 608 1215 l 781 1215 l 781 1042 l 955 1042 l 955 868 l 781 868 l 781 694 l 955 694 l 955 521 l 781 521 l 781 347 l 608 347 l 608 521 l 434 521 z "},"·":{"ha":1389,"x_min":608,"x_max":781,"o":"m 608 521 l 608 694 l 781 694 l 781 521 l 608 521 z "},"‚":{"ha":1389,"x_min":608,"x_max":781,"o":"m 608 174 l 781 174 l 781 -87 l 694 -174 l 608 -174 l 608 174 z "},"„":{"ha":1389,"x_min":434,"x_max":955,"o":"m 434 174 l 608 174 l 608 -87 l 521 -174 l 434 -174 l 434 174 m 781 174 l 955 174 l 955 -87 l 868 -174 l 781 -174 l 781 174 z "},"‰":{"ha":1389,"x_min":174,"x_max":1215,"o":"m 174 1042 l 174 1215 l 347 1215 l 347 1042 l 174 1042 m 260 174 l 260 304 l 998 1042 l 1128 1042 l 1128 911 l 391 174 l 260 174 m 694 0 l 694 174 l 868 174 l 868 0 l 694 0 m 1042 0 l 1042 174 l 1215 174 l 1215 0 l 1042 0 z "},"Â":{"ha":1389,"x_min":174,"x_max":1215,"o":"m 174 0 l 174 434 l 608 868 l 781 868 l 1215 434 l 1215 0 l 1042 0 l 1042 87 l 347 87 l 347 0 l 174 0 m 347 260 l 1042 260 l 1042 347 l 694 694 l 347 347 l 347 260 m 434 955 l 434 1042 l 608 1215 l 781 1215 l 955 1042 l 955 955 l 781 955 l 694 1042 l 608 955 l 434 955 z "},"Ê":{"ha":1389,"x_min":174,"x_max":1215,"o":"m 174 0 l 174 868 l 1215 868 l 1215 694 l 347 694 l 347 521 l 1042 521 l 1042 347 l 347 347 l 347 174 l 1215 174 l 1215 0 l 174 0 m 434 955 l 434 1042 l 608 1215 l 781 1215 l 955 1042 l 955 955 l 781 955 l 694 1042 l 608 955 l 434 955 z "},"Á":{"ha":1389,"x_min":174,"x_max":1215,"o":"m 174 0 l 174 434 l 608 868 l 781 868 l 1215 434 l 1215 0 l 1042 0 l 1042 87 l 347 87 l 347 0 l 174 0 m 347 260 l 1042 260 l 1042 347 l 694 694 l 347 347 l 347 260 m 608 955 l 608 1042 l 781 1215 l 955 1215 l 955 1128 l 781 955 l 608 955 z "},"Ë":{"ha":1389,"x_min":174,"x_max":1215,"o":"m 174 0 l 174 868 l 1215 868 l 1215 694 l 347 694 l 347 521 l 1042 521 l 1042 347 l 347 347 l 347 174 l 1215 174 l 1215 0 l 174 0 m 434 1042 l 434 1215 l 608 1215 l 608 1042 l 434 1042 m 781 1042 l 781 1215 l 955 1215 l 955 1042 l 781 1042 z "},"È":{"ha":1389,"x_min":174,"x_max":1215,"o":"m 174 0 l 174 868 l 1215 868 l 1215 694 l 347 694 l 347 521 l 1042 521 l 1042 347 l 347 347 l 347 174 l 1215 174 l 1215 0 l 174 0 m 434 1128 l 434 1215 l 608 1215 l 781 1042 l 781 955 l 608 955 l 434 1128 z "},"Í":{"ha":1389,"x_min":347,"x_max":1042,"o":"m 347 0 l 347 174 l 608 174 l 608 694 l 347 694 l 347 868 l 1042 868 l 1042 694 l 781 694 l 781 174 l 1042 174 l 1042 0 l 347 0 m 608 955 l 608 1042 l 781 1215 l 955 1215 l 955 1128 l 781 955 l 608 955 z "},"Î":{"ha":1389,"x_min":347,"x_max":1042,"o":"m 347 0 l 347 174 l 608 174 l 608 694 l 347 694 l 347 868 l 1042 868 l 1042 694 l 781 694 l 781 174 l 1042 174 l 1042 0 l 347 0 m 434 955 l 434 1042 l 608 1215 l 781 1215 l 955 1042 l 955 955 l 781 955 l 694 1042 l 608 955 l 434 955 z "},"Ï":{"ha":1389,"x_min":347,"x_max":1042,"o":"m 347 0 l 347 174 l 608 174 l 608 694 l 347 694 l 347 868 l 1042 868 l 1042 694 l 781 694 l 781 174 l 1042 174 l 1042 0 l 347 0 m 434 1042 l 434 1215 l 608 1215 l 608 1042 l 434 1042 m 781 1042 l 781 1215 l 955 1215 l 955 1042 l 781 1042 z "},"Ì":{"ha":1389,"x_min":347,"x_max":1042,"o":"m 347 0 l 347 174 l 608 174 l 608 694 l 347 694 l 347 868 l 1042 868 l 1042 694 l 781 694 l 781 174 l 1042 174 l 1042 0 l 347 0 m 434 1128 l 434 1215 l 608 1215 l 781 1042 l 781 955 l 608 955 l 434 1128 z "},"Ó":{"ha":1389,"x_min":174,"x_max":1215,"o":"m 174 260 l 174 608 l 434 868 l 955 868 l 1215 608 l 1215 260 l 955 0 l 434 0 l 174 260 m 347 347 l 521 174 l 868 174 l 1042 347 l 1042 521 l 868 694 l 521 694 l 347 521 l 347 347 m 608 955 l 608 1042 l 781 1215 l 955 1215 l 955 1128 l 781 955 l 608 955 z "},"Ô":{"ha":1389,"x_min":174,"x_max":1215,"o":"m 174 260 l 174 608 l 434 868 l 955 868 l 1215 608 l 1215 260 l 955 0 l 434 0 l 174 260 m 347 347 l 521 174 l 868 174 l 1042 347 l 1042 521 l 868 694 l 521 694 l 347 521 l 347 347 m 434 955 l 434 1042 l 608 1215 l 781 1215 l 955 1042 l 955 955 l 781 955 l 694 1042 l 608 955 l 434 955 z "},"Ò":{"ha":1389,"x_min":174,"x_max":1215,"o":"m 174 260 l 174 608 l 434 868 l 955 868 l 1215 608 l 1215 260 l 955 0 l 434 0 l 174 260 m 347 347 l 521 174 l 868 174 l 1042 347 l 1042 521 l 868 694 l 521 694 l 347 521 l 347 347 m 434 1128 l 434 1215 l 608 1215 l 781 1042 l 781 955 l 608 955 l 434 1128 z "},"Ú":{"ha":1389,"x_min":174,"x_max":1215,"o":"m 174 260 l 174 868 l 347 868 l 347 347 l 521 174 l 868 174 l 1042 347 l 1042 868 l 1215 868 l 1215 260 l 955 0 l 434 0 l 174 260 m 608 955 l 608 1042 l 781 1215 l 955 1215 l 955 1128 l 781 955 l 608 955 z "},"Û":{"ha":1389,"x_min":174,"x_max":1215,"o":"m 174 260 l 174 868 l 347 868 l 347 347 l 521 174 l 868 174 l 1042 347 l 1042 868 l 1215 868 l 1215 260 l 955 0 l 434 0 l 174 260 m 434 955 l 434 1042 l 608 1215 l 781 1215 l 955 1042 l 955 955 l 781 955 l 694 1042 l 608 955 l 434 955 z "},"Ù":{"ha":1389,"x_min":174,"x_max":1215,"o":"m 174 260 l 174 868 l 347 868 l 347 347 l 521 174 l 868 174 l 1042 347 l 1042 868 l 1215 868 l 1215 260 l 955 0 l 434 0 l 174 260 m 434 1128 l 434 1215 l 608 1215 l 781 1042 l 781 955 l 608 955 l 434 1128 z "},"ı":{"ha":1389,"x_min":347,"x_max":1042,"o":"m 347 0 l 347 174 l 608 174 l 608 694 l 347 694 l 347 868 l 781 868 l 781 174 l 1042 174 l 1042 0 l 347 0 z "},"ˆ":{"ha":1389,"x_min":434,"x_max":955,"o":"m 434 955 l 434 1042 l 608 1215 l 781 1215 l 955 1042 l 955 955 l 781 955 l 694 1042 l 608 955 l 434 955 z "},"˜":{"ha":1389,"x_min":347,"x_max":1042,"o":"m 347 955 l 347 1042 l 521 1215 l 694 1215 l 781 1128 l 868 1215 l 1042 1215 l 1042 1128 l 868 955 l 694 955 l 608 1042 l 521 955 l 347 955 z "},"¯":{"ha":1389,"x_min":434,"x_max":955,"o":"m 434 1042 l 434 1215 l 955 1215 l 955 1042 l 434 1042 z "},"˘":{"ha":1389,"x_min":347,"x_max":1042,"o":"m 347 1128 l 347 1215 l 521 1215 l 608 1128 l 781 1128 l 868 1215 l 1042 1215 l 1042 1128 l 868 955 l 521 955 l 347 1128 z "},"˙":{"ha":1389,"x_min":608,"x_max":781,"o":"m 608 1042 l 608 1215 l 781 1215 l 781 1042 l 608 1042 z "},"˚":{"ha":1389,"x_min":434,"x_max":955,"o":"m 434 1042 l 434 1128 l 521 1215 l 868 1215 l 955 1128 l 955 1042 l 868 955 l 521 955 l 434 1042 m 608 1042 l 781 1042 l 781 1128 l 608 1128 l 608 1042 z "},"¸":{"ha":1389,"x_min":434,"x_max":955,"o":"m 434 -87 l 781 -87 l 781 0 l 608 0 l 608 174 l 781 174 l 781 87 l 868 87 l 955 0 l 955 -87 l 868 -174 l 434 -174 l 434 -87 z "},"˝":{"ha":1389,"x_min":347,"x_max":1215,"o":"m 347 955 l 347 1042 l 521 1215 l 694 1215 l 694 1128 l 521 955 l 347 955 m 868 955 l 868 1042 l 1042 1215 l 1215 1215 l 1215 1128 l 1042 955 l 868 955 z "},"˛":{"ha":1389,"x_min":434,"x_max":955,"o":"m 434 0 l 521 87 l 608 87 l 608 174 l 781 174 l 781 0 l 608 0 l 608 -87 l 955 -87 l 955 -174 l 521 -174 l 434 -87 l 434 0 z "},"ˇ":{"ha":1389,"x_min":434,"x_max":955,"o":"m 434 1128 l 434 1215 l 608 1215 l 694 1128 l 781 1215 l 955 1215 l 955 1128 l 781 955 l 608 955 l 434 1128 z "},"ˈ":{"ha":1389,"x_min":608,"x_max":781,"o":"m 608 955 l 608 1215 l 781 1215 l 781 955 l 608 955 z "},"ˉ":{"ha":1389,"x_min":434,"x_max":955,"o":"m 434 1042 l 434 1215 l 955 1215 l 955 1042 l 434 1042 z "},"ˊ":{"ha":1389,"x_min":608,"x_max":955,"o":"m 608 955 l 608 1042 l 781 1215 l 955 1215 l 955 1128 l 781 955 l 608 955 z "},"ˋ":{"ha":1389,"x_min":434,"x_max":781,"o":"m 434 1128 l 434 1215 l 608 1215 l 781 1042 l 781 955 l 608 955 l 434 1128 z "},"ˌ":{"ha":1389,"x_min":608,"x_max":781,"o":"m 608 87 l 781 87 l 781 -174 l 608 -174 l 608 87 z "},"ˍ":{"ha":1389,"x_min":434,"x_max":955,"o":"m 434 0 l 955 0 l 955 -174 l 434 -174 l 434 0 z "},"ˎ":{"ha":1389,"x_min":608,"x_max":955,"o":"m 608 0 l 608 87 l 781 87 l 955 -87 l 955 -174 l 781 -174 l 608 0 z "},"ˏ":{"ha":1389,"x_min":434,"x_max":781,"o":"m 434 -87 l 608 87 l 781 87 l 781 0 l 608 -174 l 434 -174 l 434 -87 z "},"ˬ":{"ha":1389,"x_min":434,"x_max":955,"o":"m 434 0 l 434 87 l 608 87 l 694 0 l 781 87 l 955 87 l 955 0 l 781 -174 l 608 -174 l 434 0 z "},"˳":{"ha":1389,"x_min":434,"x_max":955,"o":"m 434 0 l 521 87 l 868 87 l 955 0 l 955 -87 l 868 -174 l 521 -174 l 434 -87 l 434 0 m 608 0 l 608 -87 l 781 -87 l 781 0 l 608 0 z "},"˷":{"ha":1389,"x_min":347,"x_max":1042,"o":"m 347 -87 l 521 87 l 694 87 l 781 0 l 868 87 l 1042 87 l 1042 0 l 868 -174 l 694 -174 l 608 -87 l 521 -174 l 347 -174 l 347 -87 z "},"¦":{"ha":1389,"x_min":608,"x_max":781,"o":"m 608 -174 l 608 434 l 781 434 l 781 -174 l 608 -174 m 608 608 l 608 1215 l 781 1215 l 781 608 l 608 608 z "},"­":{"ha":1389,"x_min":347,"x_max":1042,"o":"m 347 521 l 347 694 l 1042 694 l 1042 521 l 347 521 z "},"Ð":{"ha":1389,"x_min":174,"x_max":1215,"o":"m 174 521 l 174 694 l 347 694 l 347 1215 l 868 1215 l 1215 868 l 1215 347 l 868 0 l 347 0 l 347 521 l 174 521 m 521 174 l 781 174 l 1042 434 l 1042 781 l 781 1042 l 521 1042 l 521 694 l 694 694 l 694 521 l 521 521 l 521 174 z "},"×":{"ha":1389,"x_min":347,"x_max":1042,"o":"m 347 174 l 347 304 l 564 521 l 347 738 l 347 868 l 477 868 l 694 651 l 911 868 l 1042 868 l 1042 738 l 825 521 l 1042 304 l 1042 174 l 911 174 l 694 391 l 477 174 l 347 174 z "},"Ý":{"ha":1389,"x_min":174,"x_max":1215,"o":"m 174 781 l 174 868 l 347 868 l 694 521 l 1042 868 l 1215 868 l 1215 781 l 781 347 l 781 0 l 608 0 l 608 347 l 174 781 m 608 955 l 608 1042 l 781 1215 l 955 1215 l 955 1128 l 781 955 l 608 955 z "},"Þ":{"ha":1389,"x_min":174,"x_max":1215,"o":"m 174 0 l 174 1215 l 347 1215 l 347 955 l 1042 955 l 1215 781 l 1215 521 l 955 260 l 347 260 l 347 0 l 174 0 m 347 434 l 868 434 l 1042 608 l 1042 694 l 955 781 l 347 781 l 347 434 z "},"ð":{"ha":1389,"x_min":347,"x_max":1042,"o":"m 347 174 l 347 694 l 521 868 l 694 868 l 434 1128 l 434 1215 l 608 1215 l 738 1085 l 868 1215 l 1042 1215 l 1042 1128 l 868 955 l 1042 781 l 1042 174 l 868 0 l 521 0 l 347 174 m 521 260 l 608 174 l 781 174 l 868 260 l 868 694 l 608 694 l 521 608 l 521 260 z "},"ý":{"ha":1389,"x_min":347,"x_max":1042,"o":"m 347 -87 l 564 130 l 347 347 l 347 868 l 521 868 l 521 434 l 694 260 l 868 434 l 868 868 l 1042 868 l 1042 347 l 521 -174 l 347 -174 l 347 -87 m 608 955 l 608 1042 l 781 1215 l 955 1215 l 955 1128 l 781 955 l 608 955 z "},"þ":{"ha":1389,"x_min":347,"x_max":1042,"o":"m 347 -174 l 347 1215 l 521 1215 l 521 868 l 868 868 l 1042 694 l 1042 347 l 868 174 l 521 174 l 521 -174 l 347 -174 m 521 347 l 781 347 l 868 434 l 868 608 l 781 694 l 521 694 l 521 347 z "},"─":{"ha":1389,"x_min":0,"x_max":1389,"o":"m 0 434 l 0 608 l 1389 608 l 1389 434 l 0 434 z "},"│":{"ha":1389,"x_min":608,"x_max":781,"o":"m 608 -174 l 608 1215 l 781 1215 l 781 -174 l 608 -174 z "},"┌":{"ha":1389,"x_min":608,"x_max":1389,"o":"m 608 -174 l 608 608 l 1389 608 l 1389 434 l 781 434 l 781 -174 l 608 -174 z "},"└":{"ha":1389,"x_min":608,"x_max":1389,"o":"m 608 434 l 608 1215 l 781 1215 l 781 608 l 1389 608 l 1389 434 l 608 434 z "},"┘":{"ha":1389,"x_min":0,"x_max":781,"o":"m 0 434 l 0 608 l 608 608 l 608 1215 l 781 1215 l 781 434 l 0 434 z "},"├":{"ha":1389,"x_min":608,"x_max":1389,"o":"m 608 -174 l 608 1215 l 781 1215 l 781 608 l 1389 608 l 1389 434 l 781 434 l 781 -174 l 608 -174 z "},"┤":{"ha":1389,"x_min":0,"x_max":781,"o":"m 0 434 l 0 608 l 608 608 l 608 1215 l 781 1215 l 781 -174 l 608 -174 l 608 434 l 0 434 z "},"┬":{"ha":1389,"x_min":0,"x_max":1389,"o":"m 0 434 l 0 608 l 1389 608 l 1389 434 l 781 434 l 781 -174 l 608 -174 l 608 434 l 0 434 z "},"┴":{"ha":1389,"x_min":0,"x_max":1389,"o":"m 0 434 l 0 608 l 608 608 l 608 1215 l 781 1215 l 781 608 l 1389 608 l 1389 434 l 0 434 z "},"┼":{"ha":1389,"x_min":0,"x_max":1389,"o":"m 0 434 l 0 608 l 608 608 l 608 1215 l 781 1215 l 781 608 l 1389 608 l 1389 434 l 781 434 l 781 -174 l 608 -174 l 608 434 l 0 434 z "},"═":{"ha":1389,"x_min":0,"x_max":1389,"o":"m 0 260 l 0 434 l 1389 434 l 1389 260 l 0 260 m 0 608 l 0 781 l 1389 781 l 1389 608 l 0 608 z "},"║":{"ha":1389,"x_min":434,"x_max":955,"o":"m 434 -174 l 434 1215 l 608 1215 l 608 -174 l 434 -174 m 781 -174 l 781 1215 l 955 1215 l 955 -174 l 781 -174 z "},"╒":{"ha":1389,"x_min":608,"x_max":1389,"o":"m 608 -174 l 608 781 l 1389 781 l 1389 608 l 781 608 l 781 434 l 1389 434 l 1389 260 l 781 260 l 781 -174 l 608 -174 z "},"╓":{"ha":1389,"x_min":434,"x_max":1389,"o":"m 434 -174 l 434 608 l 1389 608 l 1389 434 l 955 434 l 955 -174 l 781 -174 l 781 434 l 608 434 l 608 -174 l 434 -174 z "},"╔":{"ha":1389,"x_min":434,"x_max":1389,"o":"m 434 -174 l 434 781 l 1389 781 l 1389 608 l 608 608 l 608 -174 l 434 -174 m 781 -174 l 781 434 l 1389 434 l 1389 260 l 955 260 l 955 -174 l 781 -174 z "},"╕":{"ha":1389,"x_min":0,"x_max":781,"o":"m 0 260 l 0 434 l 608 434 l 608 608 l 0 608 l 0 781 l 781 781 l 781 -174 l 608 -174 l 608 260 l 0 260 z "},"╖":{"ha":1389,"x_min":0,"x_max":955,"o":"m 0 434 l 0 608 l 955 608 l 955 -174 l 781 -174 l 781 434 l 608 434 l 608 -174 l 434 -174 l 434 434 l 0 434 z "},"╗":{"ha":1389,"x_min":0,"x_max":955,"o":"m 0 260 l 0 434 l 608 434 l 608 -174 l 434 -174 l 434 260 l 0 260 m 0 608 l 0 781 l 955 781 l 955 -174 l 781 -174 l 781 608 l 0 608 z "},"╘":{"ha":1389,"x_min":608,"x_max":1389,"o":"m 608 260 l 608 1215 l 781 1215 l 781 781 l 1389 781 l 1389 608 l 781 608 l 781 434 l 1389 434 l 1389 260 l 608 260 z "},"╙":{"ha":1389,"x_min":434,"x_max":1389,"o":"m 434 434 l 434 1215 l 608 1215 l 608 608 l 781 608 l 781 1215 l 955 1215 l 955 608 l 1389 608 l 1389 434 l 434 434 z "},"╚":{"ha":1389,"x_min":434,"x_max":1389,"o":"m 434 260 l 434 1215 l 608 1215 l 608 434 l 1389 434 l 1389 260 l 434 260 m 781 608 l 781 1215 l 955 1215 l 955 781 l 1389 781 l 1389 608 l 781 608 z "},"╛":{"ha":1389,"x_min":0,"x_max":781,"o":"m 0 260 l 0 434 l 608 434 l 608 608 l 0 608 l 0 781 l 608 781 l 608 1215 l 781 1215 l 781 260 l 0 260 z "},"╜":{"ha":1389,"x_min":0,"x_max":955,"o":"m 0 434 l 0 608 l 434 608 l 434 1215 l 608 1215 l 608 608 l 781 608 l 781 1215 l 955 1215 l 955 434 l 0 434 z "},"╝":{"ha":1389,"x_min":0,"x_max":955,"o":"m 0 260 l 0 434 l 781 434 l 781 1215 l 955 1215 l 955 260 l 0 260 m 0 608 l 0 781 l 434 781 l 434 1215 l 608 1215 l 608 608 l 0 608 z "},"╞":{"ha":1389,"x_min":608,"x_max":1389,"o":"m 608 -174 l 608 1215 l 781 1215 l 781 781 l 1389 781 l 1389 608 l 781 608 l 781 434 l 1389 434 l 1389 260 l 781 260 l 781 -174 l 608 -174 z "},"╟":{"ha":1389,"x_min":434,"x_max":1389,"o":"m 434 -174 l 434 1215 l 608 1215 l 608 -174 l 434 -174 m 781 -174 l 781 1215 l 955 1215 l 955 608 l 1389 608 l 1389 434 l 955 434 l 955 -174 l 781 -174 z "},"╠":{"ha":1389,"x_min":434,"x_max":1389,"o":"m 434 -174 l 434 1215 l 608 1215 l 608 -174 l 434 -174 m 781 -174 l 781 434 l 1389 434 l 1389 260 l 955 260 l 955 -174 l 781 -174 m 781 608 l 781 1215 l 955 1215 l 955 781 l 1389 781 l 1389 608 l 781 608 z "},"╡":{"ha":1389,"x_min":0,"x_max":781,"o":"m 0 260 l 0 434 l 608 434 l 608 608 l 0 608 l 0 781 l 608 781 l 608 1215 l 781 1215 l 781 -174 l 608 -174 l 608 260 l 0 260 z "},"╢":{"ha":1389,"x_min":0,"x_max":955,"o":"m 0 434 l 0 608 l 434 608 l 434 1215 l 608 1215 l 608 -174 l 434 -174 l 434 434 l 0 434 m 781 -174 l 781 1215 l 955 1215 l 955 -174 l 781 -174 z "},"╣":{"ha":1389,"x_min":0,"x_max":955,"o":"m 0 260 l 0 434 l 608 434 l 608 -174 l 434 -174 l 434 260 l 0 260 m 0 608 l 0 781 l 434 781 l 434 1215 l 608 1215 l 608 608 l 0 608 m 781 -174 l 781 1215 l 955 1215 l 955 -174 l 781 -174 z "},"╤":{"ha":1389,"x_min":0,"x_max":1389,"o":"m 0 260 l 0 434 l 1389 434 l 1389 260 l 781 260 l 781 -174 l 608 -174 l 608 260 l 0 260 m 0 608 l 0 781 l 1389 781 l 1389 608 l 0 608 z "},"╥":{"ha":1389,"x_min":0,"x_max":1389,"o":"m 0 434 l 0 608 l 1389 608 l 1389 434 l 955 434 l 955 -174 l 781 -174 l 781 434 l 608 434 l 608 -174 l 434 -174 l 434 434 l 0 434 z "},"╦":{"ha":1389,"x_min":0,"x_max":1389,"o":"m 0 260 l 0 434 l 608 434 l 608 -174 l 434 -174 l 434 260 l 0 260 m 0 608 l 0 781 l 1389 781 l 1389 608 l 0 608 m 781 -174 l 781 434 l 1389 434 l 1389 260 l 955 260 l 955 -174 l 781 -174 z "},"╧":{"ha":1389,"x_min":0,"x_max":1389,"o":"m 0 260 l 0 434 l 1389 434 l 1389 260 l 0 260 m 0 608 l 0 781 l 608 781 l 608 1215 l 781 1215 l 781 781 l 1389 781 l 1389 608 l 0 608 z "},"╨":{"ha":1389,"x_min":0,"x_max":1389,"o":"m 0 434 l 0 608 l 434 608 l 434 1215 l 608 1215 l 608 608 l 781 608 l 781 1215 l 955 1215 l 955 608 l 1389 608 l 1389 434 l 0 434 z "},"╩":{"ha":1389,"x_min":0,"x_max":1389,"o":"m 0 260 l 0 434 l 1389 434 l 1389 260 l 0 260 m 0 608 l 0 781 l 434 781 l 434 1215 l 608 1215 l 608 608 l 0 608 m 781 608 l 781 1215 l 955 1215 l 955 781 l 1389 781 l 1389 608 l 781 608 z "},"╪":{"ha":1389,"x_min":0,"x_max":1389,"o":"m 0 260 l 0 434 l 1389 434 l 1389 260 l 781 260 l 781 -174 l 608 -174 l 608 260 l 0 260 m 0 608 l 0 781 l 608 781 l 608 1215 l 781 1215 l 781 781 l 1389 781 l 1389 608 l 0 608 z "},"╫":{"ha":1389,"x_min":0,"x_max":1389,"o":"m 0 434 l 0 608 l 434 608 l 434 1215 l 608 1215 l 608 -174 l 434 -174 l 434 434 l 0 434 m 781 -174 l 781 1215 l 955 1215 l 955 608 l 1389 608 l 1389 434 l 955 434 l 955 -174 l 781 -174 z "},"╬":{"ha":1389,"x_min":0,"x_max":1389,"o":"m 0 260 l 0 434 l 608 434 l 608 -174 l 434 -174 l 434 260 l 0 260 m 0 608 l 0 781 l 434 781 l 434 1215 l 608 1215 l 608 608 l 0 608 m 781 -174 l 781 434 l 1389 434 l 1389 260 l 955 260 l 955 -174 l 781 -174 m 781 608 l 781 1215 l 955 1215 l 955 781 l 1389 781 l 1389 608 l 781 608 z "},"╴":{"ha":1389,"x_min":0,"x_max":781,"o":"m 0 434 l 0 608 l 781 608 l 781 434 l 0 434 z "},"╵":{"ha":1389,"x_min":608,"x_max":781,"o":"m 608 434 l 608 1215 l 781 1215 l 781 434 l 608 434 z "},"╶":{"ha":1389,"x_min":608,"x_max":1389,"o":"m 608 434 l 608 608 l 1389 608 l 1389 434 l 608 434 z "},"╷":{"ha":1389,"x_min":608,"x_max":781,"o":"m 608 -174 l 608 608 l 781 608 l 781 -174 l 608 -174 z "},"▀":{"ha":1389,"x_min":0,"x_max":1389,"o":"m 0 521 l 0 1215 l 1389 1215 l 1389 521 l 0 521 z "},"▁":{"ha":1389,"x_min":0,"x_max":1389,"o":"m 0 0 l 1389 0 l 1389 -174 l 0 -174 l 0 0 z "},"▂":{"ha":1389,"x_min":0,"x_max":1389,"o":"m 0 174 l 1389 174 l 1389 -174 l 0 -174 l 0 174 z "},"▃":{"ha":1389,"x_min":0,"x_max":1389,"o":"m 0 -174 l 0 347 l 1389 347 l 1389 -174 l 0 -174 z "},"▄":{"ha":1389,"x_min":0,"x_max":1389,"o":"m 0 -174 l 0 521 l 1389 521 l 1389 -174 l 0 -174 z "},"▅":{"ha":1389,"x_min":0,"x_max":1389,"o":"m 0 -174 l 0 694 l 1389 694 l 1389 -174 l 0 -174 z "},"▆":{"ha":1389,"x_min":0,"x_max":1389,"o":"m 0 -174 l 0 868 l 1389 868 l 1389 -174 l 0 -174 z "},"▇":{"ha":1389,"x_min":0,"x_max":1389,"o":"m 0 -174 l 0 1042 l 1389 1042 l 1389 -174 l 0 -174 z "},"█":{"ha":1389,"x_min":0,"x_max":1389,"o":"m 0 -174 l 0 1215 l 1389 1215 l 1389 -174 l 0 -174 z "},"▉":{"ha":1389,"x_min":0,"x_max":1215,"o":"m 0 -174 l 0 1215 l 1215 1215 l 1215 -174 l 0 -174 z "},"▊":{"ha":1389,"x_min":0,"x_max":1042,"o":"m 0 -174 l 0 1215 l 1042 1215 l 1042 -174 l 0 -174 z "},"▋":{"ha":1389,"x_min":0,"x_max":868,"o":"m 0 -174 l 0 1215 l 868 1215 l 868 -174 l 0 -174 z "},"▌":{"ha":1389,"x_min":0,"x_max":694,"o":"m 0 -174 l 0 1215 l 694 1215 l 694 -174 l 0 -174 z "},"▍":{"ha":1389,"x_min":0,"x_max":521,"o":"m 0 -174 l 0 1215 l 521 1215 l 521 -174 l 0 -174 z "},"▎":{"ha":1389,"x_min":0,"x_max":347,"o":"m 0 -174 l 0 1215 l 347 1215 l 347 -174 l 0 -174 z "},"▏":{"ha":1389,"x_min":0,"x_max":174,"o":"m 0 -174 l 0 1215 l 174 1215 l 174 -174 l 0 -174 z "},"▐":{"ha":1389,"x_min":694,"x_max":1389,"o":"m 694 -174 l 694 1215 l 1389 1215 l 1389 -174 l 694 -174 z "},"░":{"ha":1389,"x_min":0,"x_max":1389,"o":"m 0 347 l 0 521 l 174 521 l 174 347 l 0 347 m 0 1042 l 0 1215 l 174 1215 l 174 1042 l 0 1042 m 174 0 l 174 174 l 347 174 l 347 0 l 174 0 m 174 694 l 174 868 l 347 868 l 347 694 l 174 694 m 347 347 l 347 521 l 521 521 l 521 347 l 347 347 m 347 1042 l 347 1215 l 521 1215 l 521 1042 l 347 1042 m 521 0 l 521 174 l 694 174 l 694 0 l 521 0 m 521 694 l 521 868 l 694 868 l 694 694 l 521 694 m 694 347 l 694 521 l 868 521 l 868 347 l 694 347 m 694 1042 l 694 1215 l 868 1215 l 868 1042 l 694 1042 m 868 0 l 868 174 l 1042 174 l 1042 0 l 868 0 m 868 694 l 868 868 l 1042 868 l 1042 694 l 868 694 m 1042 347 l 1042 521 l 1215 521 l 1215 347 l 1042 347 m 1042 1042 l 1042 1215 l 1215 1215 l 1215 1042 l 1042 1042 m 1215 0 l 1215 174 l 1389 174 l 1389 0 l 1215 0 m 1215 694 l 1215 868 l 1389 868 l 1389 694 l 1215 694 z "},"▒":{"ha":1389,"x_min":0,"x_max":1389,"o":"m 0 0 l 0 174 l 174 174 l 174 0 l 0 0 m 0 347 l 0 521 l 174 521 l 174 347 l 0 347 m 0 694 l 0 868 l 174 868 l 174 694 l 0 694 m 0 1042 l 0 1215 l 174 1215 l 174 1042 l 0 1042 m 174 0 l 347 0 l 347 -174 l 174 -174 l 174 0 m 174 174 l 174 347 l 347 347 l 347 174 l 174 174 m 174 521 l 174 694 l 347 694 l 347 521 l 174 521 m 174 868 l 174 1042 l 347 1042 l 347 868 l 174 868 m 347 0 l 347 174 l 521 174 l 521 0 l 347 0 m 347 347 l 347 521 l 521 521 l 521 347 l 347 347 m 347 694 l 347 868 l 521 868 l 521 694 l 347 694 m 347 1042 l 347 1215 l 521 1215 l 521 1042 l 347 1042 m 521 0 l 694 0 l 694 -174 l 521 -174 l 521 0 m 521 174 l 521 347 l 694 347 l 694 174 l 521 174 m 521 521 l 521 694 l 694 694 l 694 521 l 521 521 m 521 868 l 521 1042 l 694 1042 l 694 868 l 521 868 m 694 0 l 694 174 l 868 174 l 868 0 l 694 0 m 694 347 l 694 521 l 868 521 l 868 347 l 694 347 m 694 694 l 694 868 l 868 868 l 868 694 l 694 694 m 694 1042 l 694 1215 l 868 1215 l 868 1042 l 694 1042 m 868 0 l 1042 0 l 1042 -174 l 868 -174 l 868 0 m 868 174 l 868 347 l 1042 347 l 1042 174 l 868 174 m 868 521 l 868 694 l 1042 694 l 1042 521 l 868 521 m 868 868 l 868 1042 l 1042 1042 l 1042 868 l 868 868 m 1042 0 l 1042 174 l 1215 174 l 1215 0 l 1042 0 m 1042 347 l 1042 521 l 1215 521 l 1215 347 l 1042 347 m 1042 694 l 1042 868 l 1215 868 l 1215 694 l 1042 694 m 1042 1042 l 1042 1215 l 1215 1215 l 1215 1042 l 1042 1042 m 1215 0 l 1389 0 l 1389 -174 l 1215 -174 l 1215 0 m 1215 174 l 1215 347 l 1389 347 l 1389 174 l 1215 174 m 1215 521 l 1215 694 l 1389 694 l 1389 521 l 1215 521 m 1215 868 l 1215 1042 l 1389 1042 l 1389 868 l 1215 868 z "},"▓":{"ha":1389,"x_min":0,"x_max":1389,"o":"m 0 0 l 0 521 l 174 521 l 174 694 l 0 694 l 0 1215 l 1389 1215 l 1389 1042 l 1215 1042 l 1215 868 l 1389 868 l 1389 347 l 1215 347 l 1215 174 l 1389 174 l 1389 -174 l 1215 -174 l 1215 0 l 1042 0 l 1042 -174 l 868 -174 l 868 0 l 694 0 l 694 -174 l 521 -174 l 521 0 l 347 0 l 347 -174 l 174 -174 l 174 0 l 0 0 m 174 174 l 347 174 l 347 347 l 174 347 l 174 174 m 174 868 l 347 868 l 347 1042 l 174 1042 l 174 868 m 347 521 l 521 521 l 521 694 l 347 694 l 347 521 m 521 174 l 694 174 l 694 347 l 521 347 l 521 174 m 521 868 l 694 868 l 694 1042 l 521 1042 l 521 868 m 694 521 l 868 521 l 868 694 l 694 694 l 694 521 m 868 174 l 1042 174 l 1042 347 l 868 347 l 868 174 m 868 868 l 1042 868 l 1042 1042 l 868 1042 l 868 868 m 1042 521 l 1215 521 l 1215 694 l 1042 694 l 1042 521 z "},"▔":{"ha":1389,"x_min":0,"x_max":1389,"o":"m 0 1042 l 0 1215 l 1389 1215 l 1389 1042 l 0 1042 z "},"▕":{"ha":1389,"x_min":1215,"x_max":1389,"o":"m 1215 -174 l 1215 1215 l 1389 1215 l 1389 -174 l 1215 -174 z "},"▖":{"ha":1389,"x_min":0,"x_max":694,"o":"m 0 -174 l 0 521 l 694 521 l 694 -174 l 0 -174 z "},"▗":{"ha":1389,"x_min":694,"x_max":1389,"o":"m 694 -174 l 694 521 l 1389 521 l 1389 -174 l 694 -174 z "},"▘":{"ha":1389,"x_min":0,"x_max":694,"o":"m 0 521 l 0 1215 l 694 1215 l 694 521 l 0 521 z "},"▙":{"ha":1389,"x_min":0,"x_max":1389,"o":"m 0 -174 l 0 1215 l 694 1215 l 694 521 l 1389 521 l 1389 -174 l 0 -174 z "},"▚":{"ha":1389,"x_min":0,"x_max":1389,"o":"m 0 521 l 0 1215 l 694 1215 l 694 521 l 0 521 m 694 -174 l 694 521 l 1389 521 l 1389 -174 l 694 -174 z "},"▛":{"ha":1389,"x_min":0,"x_max":1389,"o":"m 0 -174 l 0 1215 l 1389 1215 l 1389 521 l 694 521 l 694 -174 l 0 -174 z "},"▜":{"ha":1389,"x_min":0,"x_max":1389,"o":"m 0 521 l 0 1215 l 1389 1215 l 1389 -174 l 694 -174 l 694 521 l 0 521 z "},"▝":{"ha":1389,"x_min":694,"x_max":1389,"o":"m 694 521 l 694 1215 l 1389 1215 l 1389 521 l 694 521 z "},"▞":{"ha":1389,"x_min":0,"x_max":1389,"o":"m 0 -174 l 0 521 l 694 521 l 694 -174 l 0 -174 m 694 521 l 694 1215 l 1389 1215 l 1389 521 l 694 521 z "},"▟":{"ha":1389,"x_min":0,"x_max":1389,"o":"m 0 -174 l 0 521 l 694 521 l 694 1215 l 1389 1215 l 1389 -174 l 0 -174 z "},"◢":{"ha":1389,"x_min":0,"x_max":1389,"o":"m 0 -174 l 1389 1215 l 1389 -174 l 0 -174 z "},"◣":{"ha":1389,"x_min":0,"x_max":1389,"o":"m 0 -174 l 0 1215 l 1389 -174 l 0 -174 z "},"◤":{"ha":1389,"x_min":0,"x_max":1389,"o":"m 0 -174 l 0 1215 l 1389 1215 l 0 -174 z "},"◥":{"ha":1389,"x_min":0,"x_max":1389,"o":"m 0 1215 l 1389 1215 l 1389 -174 l 0 1215 z "},"�":{"ha":1389,"x_min":174,"x_max":1215,"o":"m 174 0 l 174 1215 l 1215 1215 l 1215 0 l 174 0 m 347 781 l 521 781 l 521 825 l 564 868 l 825 868 l 868 825 l 868 738 l 825 694 l 608 694 l 608 521 l 911 521 l 1042 651 l 1042 911 l 911 1042 l 477 1042 l 347 911 l 347 781 m 608 174 l 781 174 l 781 347 l 608 347 l 608 174 z "},"━":{"ha":1389,"x_min":0,"x_max":1389,"o":"m 0 347 l 0 694 l 1389 694 l 1389 347 l 0 347 z "},"┃":{"ha":1389,"x_min":521,"x_max":868,"o":"m 521 -174 l 521 1215 l 868 1215 l 868 -174 l 521 -174 z "},"┄":{"ha":1389,"x_min":87,"x_max":1302,"o":"m 87 434 l 87 608 l 377 608 l 377 434 l 87 434 m 550 434 l 550 608 l 839 608 l 839 434 l 550 434 m 1012 434 l 1012 608 l 1302 608 l 1302 434 l 1012 434 z "},"┅":{"ha":1389,"x_min":87,"x_max":1302,"o":"m 87 347 l 87 694 l 377 694 l 377 347 l 87 347 m 550 347 l 550 694 l 839 694 l 839 347 l 550 347 m 1012 347 l 1012 694 l 1302 694 l 1302 347 l 1012 347 z "},"┆":{"ha":1389,"x_min":608,"x_max":781,"o":"m 608 -87 l 608 203 l 781 203 l 781 -87 l 608 -87 m 608 377 l 608 665 l 781 665 l 781 377 l 608 377 m 608 839 l 608 1128 l 781 1128 l 781 839 l 608 839 z "},"┇":{"ha":1389,"x_min":521,"x_max":868,"o":"m 521 -87 l 521 203 l 868 203 l 868 -87 l 521 -87 m 521 377 l 521 665 l 868 665 l 868 377 l 521 377 m 521 839 l 521 1128 l 868 1128 l 868 839 l 521 839 z "},"┈":{"ha":1389,"x_min":87,"x_max":1302,"o":"m 87 434 l 87 608 l 260 608 l 260 434 l 87 434 m 434 434 l 434 608 l 608 608 l 608 434 l 434 434 m 781 434 l 781 608 l 955 608 l 955 434 l 781 434 m 1128 434 l 1128 608 l 1302 608 l 1302 434 l 1128 434 z "},"┉":{"ha":1389,"x_min":87,"x_max":1302,"o":"m 87 347 l 87 694 l 260 694 l 260 347 l 87 347 m 434 347 l 434 694 l 608 694 l 608 347 l 434 347 m 781 347 l 781 694 l 955 694 l 955 347 l 781 347 m 1128 347 l 1128 694 l 1302 694 l 1302 347 l 1128 347 z "},"┊":{"ha":1389,"x_min":608,"x_max":781,"o":"m 608 -87 l 608 87 l 781 87 l 781 -87 l 608 -87 m 608 260 l 608 434 l 781 434 l 781 260 l 608 260 m 608 608 l 608 781 l 781 781 l 781 608 l 608 608 m 608 955 l 608 1128 l 781 1128 l 781 955 l 608 955 z "},"┋":{"ha":1389,"x_min":521,"x_max":868,"o":"m 521 -87 l 521 87 l 868 87 l 868 -87 l 521 -87 m 521 260 l 521 434 l 868 434 l 868 260 l 521 260 m 521 608 l 521 781 l 868 781 l 868 608 l 521 608 m 521 955 l 521 1128 l 868 1128 l 868 955 l 521 955 z "},"┍":{"ha":1389,"x_min":608,"x_max":1389,"o":"m 608 -174 l 608 694 l 1389 694 l 1389 347 l 781 347 l 781 -174 l 608 -174 z "},"┎":{"ha":1389,"x_min":521,"x_max":1389,"o":"m 521 -174 l 521 608 l 1389 608 l 1389 434 l 868 434 l 868 -174 l 521 -174 z "},"┏":{"ha":1389,"x_min":521,"x_max":1389,"o":"m 521 -174 l 521 694 l 1389 694 l 1389 347 l 868 347 l 868 -174 l 521 -174 z "},"┐":{"ha":1389,"x_min":0,"x_max":781,"o":"m 0 434 l 0 608 l 781 608 l 781 -174 l 608 -174 l 608 434 l 0 434 z "},"┑":{"ha":1389,"x_min":0,"x_max":781,"o":"m 0 347 l 0 694 l 781 694 l 781 -174 l 608 -174 l 608 347 l 0 347 z "},"┒":{"ha":1389,"x_min":0,"x_max":868,"o":"m 0 434 l 0 608 l 868 608 l 868 -174 l 521 -174 l 521 434 l 0 434 z "},"┓":{"ha":1389,"x_min":0,"x_max":868,"o":"m 0 347 l 0 694 l 868 694 l 868 -174 l 521 -174 l 521 347 l 0 347 z "},"┕":{"ha":1389,"x_min":608,"x_max":1389,"o":"m 608 347 l 608 1215 l 781 1215 l 781 694 l 1389 694 l 1389 347 l 608 347 z "},"┖":{"ha":1389,"x_min":521,"x_max":1389,"o":"m 521 434 l 521 1215 l 868 1215 l 868 608 l 1389 608 l 1389 434 l 521 434 z "},"┗":{"ha":1389,"x_min":521,"x_max":1389,"o":"m 521 347 l 521 1215 l 868 1215 l 868 694 l 1389 694 l 1389 347 l 521 347 z "},"┙":{"ha":1389,"x_min":0,"x_max":781,"o":"m 0 347 l 0 694 l 608 694 l 608 1215 l 781 1215 l 781 347 l 0 347 z "},"┚":{"ha":1389,"x_min":0,"x_max":868,"o":"m 0 434 l 0 608 l 521 608 l 521 1215 l 868 1215 l 868 434 l 0 434 z "},"┛":{"ha":1389,"x_min":0,"x_max":868,"o":"m 0 347 l 0 694 l 521 694 l 521 1215 l 868 1215 l 868 347 l 0 347 z "},"┝":{"ha":1389,"x_min":608,"x_max":1389,"o":"m 608 -174 l 608 1215 l 781 1215 l 781 694 l 1389 694 l 1389 347 l 781 347 l 781 -174 l 608 -174 z "},"┞":{"ha":1389,"x_min":521,"x_max":1389,"o":"m 521 434 l 521 1215 l 868 1215 l 868 608 l 1389 608 l 1389 434 l 781 434 l 781 -174 l 608 -174 l 608 434 l 521 434 z "},"┟":{"ha":1389,"x_min":521,"x_max":1389,"o":"m 521 -174 l 521 608 l 608 608 l 608 1215 l 781 1215 l 781 608 l 1389 608 l 1389 434 l 868 434 l 868 -174 l 521 -174 z "},"┠":{"ha":1389,"x_min":521,"x_max":1389,"o":"m 521 -174 l 521 1215 l 868 1215 l 868 608 l 1389 608 l 1389 434 l 868 434 l 868 -174 l 521 -174 z "},"┡":{"ha":1389,"x_min":521,"x_max":1389,"o":"m 521 347 l 521 1215 l 868 1215 l 868 694 l 1389 694 l 1389 347 l 781 347 l 781 -174 l 608 -174 l 608 347 l 521 347 z "},"┢":{"ha":1389,"x_min":521,"x_max":1389,"o":"m 521 -174 l 521 694 l 608 694 l 608 1215 l 781 1215 l 781 694 l 1389 694 l 1389 347 l 868 347 l 868 -174 l 521 -174 z "},"┣":{"ha":1389,"x_min":521,"x_max":1389,"o":"m 521 -174 l 521 1215 l 868 1215 l 868 694 l 1389 694 l 1389 347 l 868 347 l 868 -174 l 521 -174 z "},"┥":{"ha":1389,"x_min":0,"x_max":781,"o":"m 0 347 l 0 694 l 608 694 l 608 1215 l 781 1215 l 781 -174 l 608 -174 l 608 347 l 0 347 z "},"┦":{"ha":1389,"x_min":0,"x_max":868,"o":"m 0 434 l 0 608 l 521 608 l 521 1215 l 868 1215 l 868 434 l 781 434 l 781 -174 l 608 -174 l 608 434 l 0 434 z "},"┧":{"ha":1389,"x_min":0,"x_max":868,"o":"m 0 434 l 0 608 l 608 608 l 608 1215 l 781 1215 l 781 608 l 868 608 l 868 -174 l 521 -174 l 521 434 l 0 434 z "},"┨":{"ha":1389,"x_min":0,"x_max":868,"o":"m 0 434 l 0 608 l 521 608 l 521 1215 l 868 1215 l 868 -174 l 521 -174 l 521 434 l 0 434 z "},"┩":{"ha":1389,"x_min":0,"x_max":868,"o":"m 0 347 l 0 694 l 521 694 l 521 1215 l 868 1215 l 868 347 l 781 347 l 781 -174 l 608 -174 l 608 347 l 0 347 z "},"┪":{"ha":1389,"x_min":0,"x_max":868,"o":"m 0 347 l 0 694 l 608 694 l 608 1215 l 781 1215 l 781 694 l 868 694 l 868 -174 l 521 -174 l 521 347 l 0 347 z "},"┫":{"ha":1389,"x_min":0,"x_max":868,"o":"m 0 347 l 0 694 l 521 694 l 521 1215 l 868 1215 l 868 -174 l 521 -174 l 521 347 l 0 347 z "},"┭":{"ha":1389,"x_min":0,"x_max":1389,"o":"m 0 347 l 0 694 l 781 694 l 781 608 l 1389 608 l 1389 434 l 781 434 l 781 -174 l 608 -174 l 608 347 l 0 347 z "},"┮":{"ha":1389,"x_min":0,"x_max":1389,"o":"m 0 434 l 0 608 l 608 608 l 608 694 l 1389 694 l 1389 347 l 781 347 l 781 -174 l 608 -174 l 608 434 l 0 434 z "},"┯":{"ha":1389,"x_min":0,"x_max":1389,"o":"m 0 347 l 0 694 l 1389 694 l 1389 347 l 781 347 l 781 -174 l 608 -174 l 608 347 l 0 347 z "},"┰":{"ha":1389,"x_min":0,"x_max":1389,"o":"m 0 434 l 0 608 l 1389 608 l 1389 434 l 868 434 l 868 -174 l 521 -174 l 521 434 l 0 434 z "},"┱":{"ha":1389,"x_min":0,"x_max":1389,"o":"m 0 347 l 0 694 l 868 694 l 868 608 l 1389 608 l 1389 434 l 868 434 l 868 -174 l 521 -174 l 521 347 l 0 347 z "},"┲":{"ha":1389,"x_min":0,"x_max":1389,"o":"m 0 434 l 0 608 l 521 608 l 521 694 l 1389 694 l 1389 347 l 868 347 l 868 -174 l 521 -174 l 521 434 l 0 434 z "},"┳":{"ha":1389,"x_min":0,"x_max":1389,"o":"m 0 347 l 0 694 l 1389 694 l 1389 347 l 868 347 l 868 -174 l 521 -174 l 521 347 l 0 347 z "},"┵":{"ha":1389,"x_min":0,"x_max":1389,"o":"m 0 347 l 0 694 l 608 694 l 608 1215 l 781 1215 l 781 608 l 1389 608 l 1389 434 l 781 434 l 781 347 l 0 347 z "},"┶":{"ha":1389,"x_min":0,"x_max":1389,"o":"m 0 434 l 0 608 l 608 608 l 608 1215 l 781 1215 l 781 694 l 1389 694 l 1389 347 l 608 347 l 608 434 l 0 434 z "},"┷":{"ha":1389,"x_min":0,"x_max":1389,"o":"m 0 347 l 0 694 l 608 694 l 608 1215 l 781 1215 l 781 694 l 1389 694 l 1389 347 l 0 347 z "},"┸":{"ha":1389,"x_min":0,"x_max":1389,"o":"m 0 434 l 0 608 l 521 608 l 521 1215 l 868 1215 l 868 608 l 1389 608 l 1389 434 l 0 434 z "},"┹":{"ha":1389,"x_min":0,"x_max":1389,"o":"m 0 347 l 0 694 l 521 694 l 521 1215 l 868 1215 l 868 608 l 1389 608 l 1389 434 l 868 434 l 868 347 l 0 347 z "},"┺":{"ha":1389,"x_min":0,"x_max":1389,"o":"m 0 434 l 0 608 l 521 608 l 521 1215 l 868 1215 l 868 694 l 1389 694 l 1389 347 l 521 347 l 521 434 l 0 434 z "},"┻":{"ha":1389,"x_min":0,"x_max":1389,"o":"m 0 347 l 0 694 l 521 694 l 521 1215 l 868 1215 l 868 694 l 1389 694 l 1389 347 l 0 347 z "},"┽":{"ha":1389,"x_min":0,"x_max":1389,"o":"m 0 347 l 0 694 l 608 694 l 608 1215 l 781 1215 l 781 608 l 1389 608 l 1389 434 l 781 434 l 781 -174 l 608 -174 l 608 347 l 0 347 z "},"┾":{"ha":1389,"x_min":0,"x_max":1389,"o":"m 0 434 l 0 608 l 608 608 l 608 1215 l 781 1215 l 781 694 l 1389 694 l 1389 347 l 781 347 l 781 -174 l 608 -174 l 608 434 l 0 434 z "},"┿":{"ha":1389,"x_min":0,"x_max":1389,"o":"m 0 347 l 0 694 l 608 694 l 608 1215 l 781 1215 l 781 694 l 1389 694 l 1389 347 l 781 347 l 781 -174 l 608 -174 l 608 347 l 0 347 z "},"╀":{"ha":1389,"x_min":0,"x_max":1389,"o":"m 0 434 l 0 608 l 521 608 l 521 1215 l 868 1215 l 868 608 l 1389 608 l 1389 434 l 781 434 l 781 -174 l 608 -174 l 608 434 l 0 434 z "},"╁":{"ha":1389,"x_min":0,"x_max":1389,"o":"m 0 434 l 0 608 l 608 608 l 608 1215 l 781 1215 l 781 608 l 1389 608 l 1389 434 l 868 434 l 868 -174 l 521 -174 l 521 434 l 0 434 z "},"╂":{"ha":1389,"x_min":0,"x_max":1389,"o":"m 0 434 l 0 608 l 521 608 l 521 1215 l 868 1215 l 868 608 l 1389 608 l 1389 434 l 868 434 l 868 -174 l 521 -174 l 521 434 l 0 434 z "},"╃":{"ha":1389,"x_min":0,"x_max":1389,"o":"m 0 347 l 0 694 l 521 694 l 521 1215 l 868 1215 l 868 608 l 1389 608 l 1389 434 l 868 434 l 868 347 l 781 347 l 781 -174 l 608 -174 l 608 347 l 0 347 z "},"╄":{"ha":1389,"x_min":0,"x_max":1389,"o":"m 0 434 l 0 608 l 521 608 l 521 1215 l 868 1215 l 868 694 l 1389 694 l 1389 347 l 781 347 l 781 -174 l 608 -174 l 608 347 l 521 347 l 521 434 l 0 434 z "},"╅":{"ha":1389,"x_min":0,"x_max":1389,"o":"m 0 347 l 0 694 l 608 694 l 608 1215 l 781 1215 l 781 694 l 868 694 l 868 608 l 1389 608 l 1389 434 l 868 434 l 868 -174 l 521 -174 l 521 347 l 0 347 z "},"╆":{"ha":1389,"x_min":0,"x_max":1389,"o":"m 0 434 l 0 608 l 521 608 l 521 694 l 608 694 l 608 1215 l 781 1215 l 781 694 l 1389 694 l 1389 347 l 868 347 l 868 -174 l 521 -174 l 521 434 l 0 434 z "},"╇":{"ha":1389,"x_min":0,"x_max":1389,"o":"m 0 347 l 0 694 l 521 694 l 521 1215 l 868 1215 l 868 694 l 1389 694 l 1389 347 l 781 347 l 781 -174 l 608 -174 l 608 347 l 0 347 z "},"╈":{"ha":1389,"x_min":0,"x_max":1389,"o":"m 0 347 l 0 694 l 608 694 l 608 1215 l 781 1215 l 781 694 l 1389 694 l 1389 347 l 868 347 l 868 -174 l 521 -174 l 521 347 l 0 347 z "},"╉":{"ha":1389,"x_min":0,"x_max":1389,"o":"m 0 347 l 0 694 l 521 694 l 521 1215 l 868 1215 l 868 608 l 1389 608 l 1389 434 l 868 434 l 868 -174 l 521 -174 l 521 347 l 0 347 z "},"╊":{"ha":1389,"x_min":0,"x_max":1389,"o":"m 0 434 l 0 608 l 521 608 l 521 1215 l 868 1215 l 868 694 l 1389 694 l 1389 347 l 868 347 l 868 -174 l 521 -174 l 521 434 l 0 434 z "},"╋":{"ha":1389,"x_min":0,"x_max":1389,"o":"m 0 347 l 0 694 l 521 694 l 521 1215 l 868 1215 l 868 694 l 1389 694 l 1389 347 l 868 347 l 868 -174 l 521 -174 l 521 347 l 0 347 z "},"╌":{"ha":1389,"x_min":87,"x_max":1302,"o":"m 87 434 l 87 608 l 608 608 l 608 434 l 87 434 m 781 434 l 781 608 l 1302 608 l 1302 434 l 781 434 z "},"╍":{"ha":1389,"x_min":87,"x_max":1302,"o":"m 87 347 l 87 694 l 608 694 l 608 347 l 87 347 m 781 347 l 781 694 l 1302 694 l 1302 347 l 781 347 z "},"╎":{"ha":1389,"x_min":608,"x_max":781,"o":"m 608 -87 l 608 434 l 781 434 l 781 -87 l 608 -87 m 608 608 l 608 1128 l 781 1128 l 781 608 l 608 608 z "},"╏":{"ha":1389,"x_min":521,"x_max":868,"o":"m 521 -87 l 521 434 l 868 434 l 868 -87 l 521 -87 m 521 608 l 521 1128 l 868 1128 l 868 608 l 521 608 z "},"╭":{"ha":1389,"x_min":608,"x_max":1389,"o":"m 608 -174 q 837 378 608 149 q 1389 608 1066 608 l 1389 434 q 959 256 1137 434 q 781 -174 781 78 l 608 -174 z "},"╮":{"ha":1389,"x_min":0,"x_max":781,"o":"m 0 434 l 0 608 q 552 378 323 608 q 781 -174 781 149 l 608 -174 q 430 256 608 78 q 0 434 252 434 z "},"╯":{"ha":1389,"x_min":0,"x_max":781,"o":"m 0 434 l 0 608 q 430 786 252 608 q 608 1215 608 964 l 781 1215 q 552 663 781 892 q 0 434 323 434 z "},"╰":{"ha":1389,"x_min":608,"x_max":1389,"o":"m 608 1215 l 781 1215 q 959 786 781 964 q 1389 608 1137 608 l 1389 434 q 837 663 1066 434 q 608 1215 608 892 z "},"╱":{"ha":1389,"x_min":0,"x_max":1389,"o":"m 0 -43 l 1259 1215 l 1389 1215 l 1389 1085 l 130 -174 l 0 -174 l 0 -43 z "},"╲":{"ha":1389,"x_min":0,"x_max":1389,"o":"m 0 1085 l 0 1215 l 130 1215 l 1389 -43 l 1389 -174 l 1259 -174 l 0 1085 z "},"╳":{"ha":1389,"x_min":0,"x_max":1389,"o":"m 0 -43 l 564 521 l 0 1085 l 0 1215 l 130 1215 l 694 651 l 1259 1215 l 1389 1215 l 1389 1085 l 825 521 l 1389 -43 l 1389 -174 l 1259 -174 l 694 391 l 130 -174 l 0 -174 l 0 -43 z "},"╸":{"ha":1389,"x_min":0,"x_max":781,"o":"m 0 347 l 0 694 l 781 694 l 781 347 l 0 347 z "},"╹":{"ha":1389,"x_min":521,"x_max":868,"o":"m 521 434 l 521 1215 l 868 1215 l 868 434 l 521 434 z "},"╺":{"ha":1389,"x_min":608,"x_max":1389,"o":"m 608 347 l 608 694 l 1389 694 l 1389 347 l 608 347 z "},"╻":{"ha":1389,"x_min":521,"x_max":868,"o":"m 521 -174 l 521 608 l 868 608 l 868 -174 l 521 -174 z "},"╼":{"ha":1389,"x_min":0,"x_max":1389,"o":"m 0 434 l 0 608 l 608 608 l 608 694 l 1389 694 l 1389 347 l 608 347 l 608 434 l 0 434 z "},"╽":{"ha":1389,"x_min":521,"x_max":868,"o":"m 521 -174 l 521 608 l 608 608 l 608 1215 l 781 1215 l 781 608 l 868 608 l 868 -174 l 521 -174 z "},"╾":{"ha":1389,"x_min":0,"x_max":1389,"o":"m 0 347 l 0 694 l 781 694 l 781 608 l 1389 608 l 1389 434 l 781 434 l 781 347 l 0 347 z "},"╿":{"ha":1389,"x_min":521,"x_max":868,"o":"m 521 434 l 521 1215 l 868 1215 l 868 434 l 781 434 l 781 -174 l 608 -174 l 608 434 l 521 434 z "},"■":{"ha":1389,"x_min":260,"x_max":1128,"o":"m 260 174 l 260 1042 l 1128 1042 l 1128 174 l 260 174 z "},"□":{"ha":1389,"x_min":260,"x_max":1128,"o":"m 260 174 l 260 1042 l 1128 1042 l 1128 174 l 260 174 m 434 347 l 955 347 l 955 868 l 434 868 l 434 347 z "},"▪":{"ha":1389,"x_min":434,"x_max":955,"o":"m 434 347 l 434 868 l 955 868 l 955 347 l 434 347 z "},"▫":{"ha":1389,"x_min":434,"x_max":955,"o":"m 434 347 l 434 868 l 955 868 l 955 347 l 434 347 m 608 521 l 781 521 l 781 694 l 608 694 l 608 521 z "},"▬":{"ha":1389,"x_min":87,"x_max":1302,"o":"m 87 347 l 87 868 l 1302 868 l 1302 347 l 87 347 z "},"▭":{"ha":1389,"x_min":87,"x_max":1302,"o":"m 87 347 l 87 868 l 1302 868 l 1302 347 l 87 347 m 260 521 l 1128 521 l 1128 694 l 260 694 l 260 521 z "},"▮":{"ha":1389,"x_min":434,"x_max":955,"o":"m 434 0 l 434 1215 l 955 1215 l 955 0 l 434 0 z "},"▯":{"ha":1389,"x_min":434,"x_max":955,"o":"m 434 0 l 434 1215 l 955 1215 l 955 0 l 434 0 m 608 174 l 781 174 l 781 1042 l 608 1042 l 608 174 z "},"▰":{"ha":1389,"x_min":87,"x_max":1302,"o":"m 87 347 l 347 868 l 1302 868 l 1042 347 l 87 347 z "},"▱":{"ha":1389,"x_min":87,"x_max":1302,"o":"m 87 347 l 347 868 l 1302 868 l 1042 347 l 87 347 m 347 521 l 955 521 l 1042 694 l 434 694 l 347 521 z "},"▲":{"ha":1389,"x_min":87,"x_max":1302,"o":"m 87 0 l 694 1215 l 1302 0 l 87 0 z "},"△":{"ha":1389,"x_min":87,"x_max":1302,"o":"m 87 0 l 694 1215 l 1302 0 l 87 0 m 347 174 l 1042 174 l 694 868 l 347 174 z "},"▴":{"ha":1389,"x_min":260,"x_max":1128,"o":"m 260 174 l 694 1042 l 1128 174 l 260 174 z "},"▵":{"ha":1389,"x_min":260,"x_max":1128,"o":"m 260 174 l 694 1042 l 1128 174 l 260 174 m 521 347 l 868 347 l 694 694 l 521 347 z "},"▶":{"ha":1389,"x_min":87,"x_max":1302,"o":"m 87 0 l 87 1215 l 1302 608 l 87 0 z "},"▷":{"ha":1389,"x_min":87,"x_max":1302,"o":"m 87 0 l 87 1215 l 1302 608 l 87 0 m 260 260 l 955 608 l 260 955 l 260 260 z "},"▸":{"ha":1389,"x_min":260,"x_max":1128,"o":"m 260 174 l 260 1042 l 1128 608 l 260 174 z "},"▹":{"ha":1389,"x_min":260,"x_max":1128,"o":"m 260 174 l 260 1042 l 1128 608 l 260 174 m 434 434 l 781 608 l 434 781 l 434 434 z "},"►":{"ha":1389,"x_min":87,"x_max":1302,"o":"m 87 174 l 87 1042 l 1302 608 l 87 174 z "},"▻":{"ha":1389,"x_min":87,"x_max":1302,"o":"m 87 174 l 87 1042 l 1302 608 l 87 174 m 260 434 l 781 608 l 260 781 l 260 434 z "},"▼":{"ha":1389,"x_min":87,"x_max":1302,"o":"m 87 1215 l 1302 1215 l 694 0 l 87 1215 z "},"▽":{"ha":1389,"x_min":87,"x_max":1302,"o":"m 87 1215 l 1302 1215 l 694 0 l 87 1215 m 347 1042 l 694 347 l 1042 1042 l 347 1042 z "},"▾":{"ha":1389,"x_min":260,"x_max":1128,"o":"m 260 1042 l 1128 1042 l 694 174 l 260 1042 z "},"▿":{"ha":1389,"x_min":260,"x_max":1128,"o":"m 260 1042 l 1128 1042 l 694 174 l 260 1042 m 521 868 l 694 521 l 868 868 l 521 868 z "},"◀":{"ha":1389,"x_min":87,"x_max":1302,"o":"m 87 608 l 1302 1215 l 1302 0 l 87 608 z "},"◁":{"ha":1389,"x_min":87,"x_max":1302,"o":"m 87 608 l 1302 1215 l 1302 0 l 87 608 m 434 608 l 1128 260 l 1128 955 l 434 608 z "},"◂":{"ha":1389,"x_min":260,"x_max":1128,"o":"m 260 608 l 1128 1042 l 1128 174 l 260 608 z "},"◃":{"ha":1389,"x_min":260,"x_max":1128,"o":"m 260 608 l 1128 1042 l 1128 174 l 260 608 m 608 608 l 955 434 l 955 781 l 608 608 z "},"◄":{"ha":1389,"x_min":87,"x_max":1302,"o":"m 87 608 l 1302 1042 l 1302 174 l 87 608 z "},"◅":{"ha":1389,"x_min":87,"x_max":1302,"o":"m 87 608 l 1302 1042 l 1302 174 l 87 608 m 608 608 l 1128 434 l 1128 781 l 608 608 z "},"◆":{"ha":1389,"x_min":87,"x_max":1302,"o":"m 87 608 l 694 1215 l 1302 608 l 694 0 l 87 608 z "},"◇":{"ha":1389,"x_min":87,"x_max":1302,"o":"m 87 608 l 694 1215 l 1302 608 l 694 0 l 87 608 m 347 608 l 694 260 l 1042 608 l 694 955 l 347 608 z "},"○":{"ha":1389,"x_min":260,"x_max":1128,"o":"m 387 300 q 324 364 387 300 q 260 608 260 427 q 387 915 260 788 q 694 1042 514 1042 q 1002 915 875 1042 q 1128 608 1128 788 q 1002 300 1128 427 q 694 174 875 174 q 387 300 514 174 m 510 792 q 472 753 510 792 q 434 608 434 715 q 510 424 434 500 q 694 347 587 347 q 878 424 802 347 q 955 608 955 500 q 878 792 955 715 q 694 868 802 868 q 510 792 587 868 z "},"◌":{"ha":1389,"x_min":260,"x_max":1128,"o":"m 260 521 l 260 694 l 434 694 l 434 521 l 260 521 m 347 260 l 347 434 l 521 434 l 521 260 l 347 260 m 347 781 l 347 955 l 521 955 l 521 781 l 347 781 m 608 174 l 608 347 l 781 347 l 781 174 l 608 174 m 608 868 l 608 1042 l 781 1042 l 781 868 l 608 868 m 868 260 l 868 434 l 1042 434 l 1042 260 l 868 260 m 868 781 l 868 955 l 1042 955 l 1042 781 l 868 781 m 955 521 l 955 694 l 1128 694 l 1128 521 l 955 521 z "},"●":{"ha":1389,"x_min":260,"x_max":1128,"o":"m 387 300 q 324 364 387 300 q 260 608 260 427 q 387 915 260 788 q 694 1042 514 1042 q 1002 915 875 1042 q 1128 608 1128 788 q 1002 300 1128 427 q 694 174 875 174 q 387 300 514 174 z "},"◐":{"ha":1389,"x_min":260,"x_max":1128,"o":"m 387 300 q 324 364 387 300 q 260 608 260 427 q 387 915 260 788 q 694 1042 514 1042 q 1002 915 875 1042 q 1128 608 1128 788 q 1002 300 1128 427 q 694 174 875 174 q 387 300 514 174 m 694 347 q 878 424 802 347 q 955 608 955 500 q 878 792 955 715 q 694 868 802 868 l 694 347 z "},"◑":{"ha":1389,"x_min":260,"x_max":1128,"o":"m 387 300 q 324 364 387 300 q 260 608 260 427 q 387 915 260 788 q 694 1042 514 1042 q 1002 915 875 1042 q 1128 608 1128 788 q 1002 300 1128 427 q 694 174 875 174 q 387 300 514 174 m 510 792 q 472 753 510 792 q 434 608 434 715 q 510 424 434 500 q 694 347 587 347 l 694 868 q 510 792 587 868 z "},"◒":{"ha":1389,"x_min":260,"x_max":1128,"o":"m 387 300 q 324 364 387 300 q 260 608 260 427 q 387 915 260 788 q 694 1042 514 1042 q 1002 915 875 1042 q 1128 608 1128 788 q 1002 300 1128 427 q 694 174 875 174 q 387 300 514 174 m 434 608 l 955 608 q 878 792 955 715 q 694 868 802 868 q 510 792 587 868 q 434 608 434 715 z "},"◓":{"ha":1389,"x_min":260,"x_max":1128,"o":"m 387 300 q 324 364 387 300 q 260 608 260 427 q 387 915 260 788 q 694 1042 514 1042 q 1002 915 875 1042 q 1128 608 1128 788 q 1002 300 1128 427 q 694 174 875 174 q 387 300 514 174 m 434 608 q 510 424 434 500 q 694 347 587 347 q 878 424 802 347 q 955 608 955 500 l 434 608 z "},"◔":{"ha":1389,"x_min":260,"x_max":1128,"o":"m 387 300 q 324 364 387 300 q 260 608 260 427 q 387 915 260 788 q 694 1042 514 1042 q 1002 915 875 1042 q 1128 608 1128 788 q 1002 300 1128 427 q 694 174 875 174 q 387 300 514 174 m 510 792 q 472 753 510 792 q 434 608 434 715 q 510 424 434 500 q 694 347 587 347 q 878 424 802 347 q 955 608 955 500 l 694 608 l 694 868 q 510 792 587 868 z "},"◕":{"ha":1389,"x_min":260,"x_max":1128,"o":"m 387 300 q 324 364 387 300 q 260 608 260 427 q 387 915 260 788 q 694 1042 514 1042 q 1002 915 875 1042 q 1128 608 1128 788 q 1002 300 1128 427 q 694 174 875 174 q 387 300 514 174 m 434 608 l 694 608 l 694 868 q 510 792 587 868 q 434 608 434 715 z "},"◖":{"ha":1389,"x_min":260,"x_max":694,"o":"m 387 300 q 324 364 387 300 q 260 608 260 427 q 387 915 260 788 q 694 1042 514 1042 l 694 174 q 387 300 514 174 z "},"◗":{"ha":1389,"x_min":694,"x_max":1128,"o":"m 694 174 l 694 1042 q 1002 915 875 1042 q 1128 608 1128 788 q 1002 300 1128 427 q 694 174 875 174 z "},"◘":{"ha":1389,"x_min":87,"x_max":1302,"o":"m 87 0 l 87 1215 l 1302 1215 l 1302 0 l 87 0 m 572 730 q 546 704 572 730 q 521 608 521 679 q 572 485 521 536 q 694 434 623 434 q 817 485 766 434 q 868 608 868 536 q 817 730 868 679 q 694 781 766 781 q 572 730 623 781 z "},"◙":{"ha":1389,"x_min":87,"x_max":1302,"o":"m 87 0 l 87 1215 l 1302 1215 l 1302 0 l 87 0 m 387 915 q 324 852 387 915 q 260 608 260 788 q 387 300 260 427 q 694 174 514 174 q 1002 300 875 174 q 1128 608 1128 427 q 1002 915 1128 788 q 694 1042 875 1042 q 387 915 514 1042 m 510 424 q 472 462 510 424 q 434 608 434 500 q 510 792 434 715 q 694 868 587 868 q 878 792 802 868 q 955 608 955 715 q 878 424 955 500 q 694 347 802 347 q 510 424 587 347 z "},"◚":{"ha":1389,"x_min":87,"x_max":1302,"o":"m 87 608 l 87 1215 l 1302 1215 l 1302 608 l 1128 608 q 1002 915 1128 788 q 694 1042 875 1042 q 387 915 514 1042 q 260 608 260 788 l 87 608 m 434 608 q 510 792 434 715 q 694 868 587 868 q 878 792 802 868 q 955 608 955 715 l 434 608 z "},"◛":{"ha":1389,"x_min":87,"x_max":1302,"o":"m 87 0 l 87 608 l 260 608 q 387 300 260 427 q 694 174 514 174 q 1002 300 875 174 q 1128 608 1128 427 l 1302 608 l 1302 0 l 87 0 m 434 608 l 955 608 q 878 424 955 500 q 694 347 802 347 q 510 424 587 347 q 434 608 434 500 z "},"◠":{"ha":1389,"x_min":260,"x_max":1128,"o":"m 260 608 q 387 915 260 788 q 694 1042 514 1042 q 1002 915 875 1042 q 1128 608 1128 788 l 955 608 q 878 792 955 715 q 694 868 802 868 q 510 792 587 868 q 434 608 434 715 l 260 608 z "},"◡":{"ha":1389,"x_min":260,"x_max":1128,"o":"m 260 608 l 434 608 q 510 424 434 500 q 694 347 587 347 q 878 424 802 347 q 955 608 955 500 l 1128 608 q 1002 300 1128 427 q 694 174 875 174 q 387 300 514 174 q 260 608 260 427 z "},"◦":{"ha":1389,"x_min":434,"x_max":955,"o":"m 510 424 q 472 462 510 424 q 434 608 434 500 q 510 792 434 715 q 694 868 587 868 q 878 792 802 868 q 955 608 955 715 q 878 424 955 500 q 694 347 802 347 q 510 424 587 347 m 572 730 q 546 704 572 730 q 521 608 521 679 q 572 485 521 536 q 694 434 623 434 q 817 485 766 434 q 868 608 868 536 q 817 730 868 679 q 694 781 766 781 q 572 730 623 781 z "},"♠":{"ha":1389,"x_min":174,"x_max":1215,"o":"m 174 434 l 174 608 l 694 1215 l 1215 608 l 1215 434 l 1042 260 l 868 260 l 738 391 l 738 87 l 955 87 l 955 0 l 434 0 l 434 87 l 651 87 l 651 391 l 521 260 l 347 260 l 174 434 z "},"♣":{"ha":1389,"x_min":174,"x_max":1215,"o":"m 174 434 l 174 608 l 347 781 l 521 781 l 347 955 l 347 1042 l 521 1215 l 868 1215 l 1042 1042 l 1042 955 l 868 781 l 1042 781 l 1215 608 l 1215 434 l 1042 260 l 868 260 l 738 391 l 738 87 l 955 87 l 955 0 l 434 0 l 434 87 l 651 87 l 651 391 l 521 260 l 347 260 l 174 434 z "},"♥":{"ha":1389,"x_min":174,"x_max":1215,"o":"m 174 694 l 174 1042 l 347 1215 l 521 1215 l 694 1042 l 868 1215 l 1042 1215 l 1215 1042 l 1215 694 l 694 0 l 174 694 z "},"♦":{"ha":1389,"x_min":174,"x_max":1215,"o":"m 174 608 l 694 1215 l 1215 608 l 694 0 l 174 608 z "},"◯":{"ha":1389,"x_min":87,"x_max":1302,"o":"m 265 178 q 176 267 265 178 q 87 608 87 356 q 265 1037 87 859 q 694 1215 443 1215 q 1124 1037 946 1215 q 1302 608 1302 859 q 1124 178 1302 356 q 694 0 946 0 q 265 178 443 0 m 387 915 q 324 852 387 915 q 260 608 260 788 q 387 300 260 427 q 694 174 514 174 q 1002 300 875 174 q 1128 608 1128 427 q 1002 915 1128 788 q 694 1042 875 1042 q 387 915 514 1042 z "},"◧":{"ha":1389,"x_min":260,"x_max":1128,"o":"m 260 174 l 260 1042 l 1128 1042 l 1128 174 l 260 174 m 694 347 l 955 347 l 955 868 l 694 868 l 694 347 z "},"◨":{"ha":1389,"x_min":260,"x_max":1128,"o":"m 260 174 l 260 1042 l 1128 1042 l 1128 174 l 260 174 m 434 347 l 694 347 l 694 868 l 434 868 l 434 347 z "},"◩":{"ha":1389,"x_min":260,"x_max":1128,"o":"m 260 174 l 260 1042 l 1128 1042 l 1128 174 l 260 174 m 434 347 l 955 347 l 955 868 l 434 347 z "},"◪":{"ha":1389,"x_min":260,"x_max":1128,"o":"m 260 174 l 260 1042 l 1128 1042 l 1128 174 l 260 174 m 434 347 l 955 868 l 434 868 l 434 347 z "},"◫":{"ha":1389,"x_min":260,"x_max":1128,"o":"m 260 174 l 260 1042 l 1128 1042 l 1128 174 l 260 174 m 434 347 l 651 347 l 651 868 l 434 868 l 434 347 m 738 347 l 955 347 l 955 868 l 738 868 l 738 347 z "},"◭":{"ha":1389,"x_min":87,"x_max":1302,"o":"m 87 0 l 694 1215 l 1302 0 l 87 0 m 694 174 l 1042 174 l 694 868 l 694 174 z "},"◮":{"ha":1389,"x_min":87,"x_max":1302,"o":"m 87 0 l 694 1215 l 1302 0 l 87 0 m 347 174 l 694 174 l 694 868 l 347 174 z "},"◰":{"ha":1389,"x_min":260,"x_max":1128,"o":"m 260 174 l 260 1042 l 1128 1042 l 1128 174 l 260 174 m 434 347 l 955 347 l 955 868 l 738 868 l 738 564 l 434 564 l 434 347 m 434 651 l 651 651 l 651 868 l 434 868 l 434 651 z "},"◱":{"ha":1389,"x_min":260,"x_max":1128,"o":"m 260 174 l 260 1042 l 1128 1042 l 1128 174 l 260 174 m 434 347 l 651 347 l 651 564 l 434 564 l 434 347 m 434 651 l 738 651 l 738 347 l 955 347 l 955 868 l 434 868 l 434 651 z "},"◲":{"ha":1389,"x_min":260,"x_max":1128,"o":"m 260 174 l 260 1042 l 1128 1042 l 1128 174 l 260 174 m 434 347 l 651 347 l 651 651 l 955 651 l 955 868 l 434 868 l 434 347 m 738 347 l 955 347 l 955 564 l 738 564 l 738 347 z "},"◳":{"ha":1389,"x_min":260,"x_max":1128,"o":"m 260 174 l 260 1042 l 1128 1042 l 1128 174 l 260 174 m 434 347 l 955 347 l 955 564 l 651 564 l 651 868 l 434 868 l 434 347 m 738 651 l 955 651 l 955 868 l 738 868 l 738 651 z "},"◴":{"ha":1389,"x_min":260,"x_max":1128,"o":"m 387 300 q 324 364 387 300 q 260 608 260 427 q 387 915 260 788 q 694 1042 514 1042 q 1002 915 875 1042 q 1128 608 1128 788 q 1002 300 1128 427 q 694 174 875 174 q 387 300 514 174 m 438 564 q 526 409 453 470 q 694 347 599 347 q 878 424 802 347 q 955 608 955 500 q 893 776 955 703 q 738 865 832 849 l 738 564 l 438 564 m 438 651 l 651 651 l 651 865 q 510 792 569 851 q 438 651 451 733 z "},"◵":{"ha":1389,"x_min":260,"x_max":1128,"o":"m 387 300 q 324 364 387 300 q 260 608 260 427 q 387 915 260 788 q 694 1042 514 1042 q 1002 915 875 1042 q 1128 608 1128 788 q 1002 300 1128 427 q 694 174 875 174 q 387 300 514 174 m 438 564 q 510 424 451 483 q 651 351 569 365 l 651 564 l 438 564 m 438 651 l 738 651 l 738 351 q 893 439 832 366 q 955 608 955 512 q 878 792 955 715 q 694 868 802 868 q 526 806 599 868 q 438 651 453 745 z "},"◶":{"ha":1389,"x_min":260,"x_max":1128,"o":"m 387 300 q 324 364 387 300 q 260 608 260 427 q 387 915 260 788 q 694 1042 514 1042 q 1002 915 875 1042 q 1128 608 1128 788 q 1002 300 1128 427 q 694 174 875 174 q 387 300 514 174 m 434 608 q 496 439 434 512 q 651 351 557 366 l 651 651 l 951 651 q 863 806 936 745 q 694 868 790 868 q 510 792 587 868 q 434 608 434 715 m 738 351 q 878 424 819 365 q 951 564 938 483 l 738 564 l 738 351 z "},"◷":{"ha":1389,"x_min":260,"x_max":1128,"o":"m 387 300 q 324 364 387 300 q 260 608 260 427 q 387 915 260 788 q 694 1042 514 1042 q 1002 915 875 1042 q 1128 608 1128 788 q 1002 300 1128 427 q 694 174 875 174 q 387 300 514 174 m 434 608 q 510 424 434 500 q 694 347 587 347 q 863 409 790 347 q 951 564 936 470 l 651 564 l 651 865 q 496 776 557 849 q 434 608 434 703 m 738 651 l 951 651 q 878 792 938 733 q 738 865 819 851 l 738 651 z "},"◸":{"ha":1389,"x_min":0,"x_max":1389,"o":"m 0 -174 l 0 1215 l 1389 1215 l 0 -174 m 174 260 l 955 1042 l 174 1042 l 174 260 z "},"◹":{"ha":1389,"x_min":0,"x_max":1389,"o":"m 0 1215 l 1389 1215 l 1389 -174 l 0 1215 m 434 1042 l 1215 260 l 1215 1042 l 434 1042 z "},"◺":{"ha":1389,"x_min":0,"x_max":1389,"o":"m 0 -174 l 0 1215 l 1389 -174 l 0 -174 m 174 0 l 955 0 l 174 781 l 174 0 z "},"◼":{"ha":1389,"x_min":347,"x_max":1042,"o":"m 347 260 l 347 955 l 1042 955 l 1042 260 l 347 260 z "},"◻":{"ha":1389,"x_min":347,"x_max":1042,"o":"m 347 260 l 347 955 l 1042 955 l 1042 260 l 347 260 m 521 434 l 868 434 l 868 781 l 521 781 l 521 434 z "},"◾":{"ha":1389,"x_min":347,"x_max":1042,"o":"m 347 260 l 347 955 l 1042 955 l 1042 260 l 347 260 z "},"◽":{"ha":1389,"x_min":347,"x_max":1042,"o":"m 347 260 l 347 955 l 1042 955 l 1042 260 l 347 260 m 521 434 l 868 434 l 868 781 l 521 781 l 521 434 z "},"◿":{"ha":1389,"x_min":0,"x_max":1389,"o":"m 0 -174 l 1389 1215 l 1389 -174 l 0 -174 m 434 0 l 1215 0 l 1215 781 l 434 0 z "},"▣":{"ha":1389,"x_min":260,"x_max":1128,"o":"m 521 434 l 521 781 l 868 781 l 868 434 l 521 434 m 260 174 l 260 1042 l 1128 1042 l 1128 174 l 260 174 m 434 347 l 955 347 l 955 868 l 434 868 l 434 347 z "},"▤":{"ha":1389,"x_min":260,"x_max":1128,"o":"m 260 174 l 260 1042 l 1128 1042 l 1128 174 l 260 174 m 434 347 l 955 347 l 955 391 l 434 391 l 434 347 m 434 477 l 955 477 l 955 564 l 434 564 l 434 477 m 434 651 l 955 651 l 955 738 l 434 738 l 434 651 m 434 825 l 955 825 l 955 868 l 434 868 l 434 825 z "},"▥":{"ha":1389,"x_min":260,"x_max":1128,"o":"m 260 174 l 260 1042 l 1128 1042 l 1128 174 l 260 174 m 434 347 l 477 347 l 477 868 l 434 868 l 434 347 m 564 347 l 651 347 l 651 868 l 564 868 l 564 347 m 738 347 l 825 347 l 825 868 l 738 868 l 738 347 m 911 347 l 955 347 l 955 868 l 911 868 l 911 347 z "},"▦":{"ha":1389,"x_min":260,"x_max":1128,"o":"m 260 174 l 260 1042 l 1128 1042 l 1128 174 l 260 174 m 434 347 l 477 347 l 477 391 l 434 391 l 434 347 m 434 477 l 477 477 l 477 564 l 434 564 l 434 477 m 434 651 l 477 651 l 477 738 l 434 738 l 434 651 m 434 825 l 477 825 l 477 868 l 434 868 l 434 825 m 564 347 l 651 347 l 651 391 l 564 391 l 564 347 m 564 477 l 651 477 l 651 564 l 564 564 l 564 477 m 564 651 l 651 651 l 651 738 l 564 738 l 564 651 m 564 825 l 651 825 l 651 868 l 564 868 l 564 825 m 738 347 l 825 347 l 825 391 l 738 391 l 738 347 m 738 477 l 825 477 l 825 564 l 738 564 l 738 477 m 738 651 l 825 651 l 825 738 l 738 738 l 738 651 m 738 825 l 825 825 l 825 868 l 738 868 l 738 825 m 911 347 l 955 347 l 955 391 l 911 391 l 911 347 m 911 477 l 955 477 l 955 564 l 911 564 l 911 477 m 911 651 l 955 651 l 955 738 l 911 738 l 911 651 m 911 825 l 955 825 l 955 868 l 911 868 l 911 825 z "},"▧":{"ha":1389,"x_min":260,"x_max":1128,"o":"m 260 174 l 260 1042 l 1128 1042 l 1128 174 l 260 174 m 434 443 l 530 347 l 651 347 l 434 564 l 434 443 m 434 686 l 773 347 l 894 347 l 434 807 l 434 686 m 495 868 l 955 408 l 955 530 l 616 868 l 495 868 m 738 868 l 955 651 l 955 773 l 859 868 l 738 868 z "},"▨":{"ha":1389,"x_min":260,"x_max":1128,"o":"m 260 174 l 260 1042 l 1128 1042 l 1128 174 l 260 174 m 434 408 l 894 868 l 773 868 l 434 530 l 434 408 m 434 651 l 651 868 l 530 868 l 434 773 l 434 651 m 495 347 l 616 347 l 955 686 l 955 807 l 495 347 m 738 347 l 859 347 l 955 443 l 955 564 l 738 347 z "},"▩":{"ha":1389,"x_min":260,"x_max":1128,"o":"m 260 174 l 260 1042 l 1128 1042 l 1128 174 l 260 174 m 434 443 l 451 425 l 512 486 l 451 547 l 434 530 l 434 443 m 434 686 l 451 668 l 512 729 l 451 790 l 434 773 l 434 686 m 512 365 l 530 347 l 616 347 l 634 365 l 573 425 l 512 365 m 512 608 l 573 547 l 634 608 l 573 668 l 512 608 m 512 851 l 573 790 l 634 851 l 616 868 l 530 868 l 512 851 m 634 486 l 694 425 l 755 486 l 694 547 l 634 486 m 634 729 l 694 668 l 755 729 l 694 790 l 634 729 m 755 365 l 773 347 l 859 347 l 877 365 l 816 425 l 755 365 m 755 608 l 816 547 l 877 608 l 816 668 l 755 608 m 755 851 l 816 790 l 877 851 l 859 868 l 773 868 l 755 851 m 877 486 l 938 425 l 955 443 l 955 530 l 938 547 l 877 486 m 877 729 l 938 668 l 955 686 l 955 773 l 938 790 l 877 729 z "},"⬒":{"ha":1389,"x_min":260,"x_max":1128,"o":"m 260 174 l 260 1042 l 1128 1042 l 1128 174 l 260 174 m 434 347 l 955 347 l 955 608 l 434 608 l 434 347 z "},"⬓":{"ha":1389,"x_min":260,"x_max":1128,"o":"m 260 174 l 260 1042 l 1128 1042 l 1128 174 l 260 174 m 434 608 l 955 608 l 955 868 l 434 868 l 434 608 z "},"⬔":{"ha":1389,"x_min":260,"x_max":1128,"o":"m 260 174 l 260 1042 l 1128 1042 l 1128 174 l 260 174 m 434 347 l 955 347 l 434 868 l 434 347 z "},"⬕":{"ha":1389,"x_min":260,"x_max":1128,"o":"m 260 174 l 260 1042 l 1128 1042 l 1128 174 l 260 174 m 434 868 l 955 347 l 955 868 l 434 868 z "},"⬖":{"ha":1389,"x_min":174,"x_max":1215,"o":"m 174 608 l 694 1128 l 1215 608 l 694 87 l 174 608 m 694 347 l 955 608 l 694 868 l 694 347 z "},"⬗":{"ha":1389,"x_min":174,"x_max":1215,"o":"m 174 608 l 694 1128 l 1215 608 l 694 87 l 174 608 m 434 608 l 694 347 l 694 868 l 434 608 z "},"⬘":{"ha":1389,"x_min":174,"x_max":1215,"o":"m 174 608 l 694 1128 l 1215 608 l 694 87 l 174 608 m 434 608 l 694 347 l 955 608 l 434 608 z "},"⬙":{"ha":1389,"x_min":174,"x_max":1215,"o":"m 174 608 l 694 1128 l 1215 608 l 694 87 l 174 608 m 434 608 l 955 608 l 694 868 l 434 608 z "},"⬚":{"ha":1389,"x_min":260,"x_max":1128,"o":"m 260 174 l 260 347 l 434 347 l 434 174 l 260 174 m 260 521 l 260 694 l 434 694 l 434 521 l 260 521 m 260 868 l 260 1042 l 434 1042 l 434 868 l 260 868 m 608 174 l 608 347 l 781 347 l 781 174 l 608 174 m 608 868 l 608 1042 l 781 1042 l 781 868 l 608 868 m 955 174 l 955 347 l 1128 347 l 1128 174 l 955 174 m 955 521 l 955 694 l 1128 694 l 1128 521 l 955 521 m 955 868 l 955 1042 l 1128 1042 l 1128 868 l 955 868 z "},"⬛":{"ha":1389,"x_min":87,"x_max":1302,"o":"m 87 0 l 87 1215 l 1302 1215 l 1302 0 l 87 0 z "},"⬜":{"ha":1389,"x_min":87,"x_max":1302,"o":"m 87 0 l 87 1215 l 1302 1215 l 1302 0 l 87 0 m 260 174 l 1128 174 l 1128 1042 l 260 1042 l 260 174 z "},"⬝":{"ha":1389,"x_min":521,"x_max":868,"o":"m 521 434 l 521 781 l 868 781 l 868 434 l 521 434 z "},"⬞":{"ha":1389,"x_min":521,"x_max":868,"o":"m 521 434 l 521 781 l 868 781 l 868 434 l 521 434 m 608 521 l 781 521 l 781 694 l 608 694 l 608 521 z "},"⬟":{"ha":1389,"x_min":87,"x_max":1302,"o":"m 87 694 l 694 1215 l 1302 694 l 1042 0 l 347 0 l 87 694 z "},"⬠":{"ha":1389,"x_min":87,"x_max":1302,"o":"m 87 694 l 694 1215 l 1302 694 l 1042 0 l 347 0 l 87 694 m 269 625 l 451 174 l 938 174 l 1120 625 l 694 1016 l 269 625 z "},"⬢":{"ha":1389,"x_min":87,"x_max":1302,"o":"m 87 313 l 87 903 l 694 1215 l 1302 903 l 1302 313 l 694 0 l 87 313 z "},"⬡":{"ha":1389,"x_min":87,"x_max":1302,"o":"m 87 313 l 87 903 l 694 1215 l 1302 903 l 1302 313 l 694 0 l 87 313 m 260 417 l 694 191 l 1128 417 l 1128 799 l 694 1024 l 260 799 l 260 417 z "},"⬣":{"ha":1389,"x_min":87,"x_max":1302,"o":"m 87 608 l 399 1215 l 990 1215 l 1302 608 l 990 0 l 399 0 l 87 608 z "},"⬤":{"ha":1389,"x_min":87,"x_max":1302,"o":"m 265 178 q 176 267 265 178 q 87 608 87 356 q 265 1037 87 859 q 694 1215 443 1215 q 1124 1037 946 1215 q 1302 608 1302 859 q 1124 178 1302 356 q 694 0 946 0 q 265 178 443 0 z "},"⬥":{"ha":1389,"x_min":174,"x_max":1215,"o":"m 174 608 l 694 1128 l 1215 608 l 694 87 l 174 608 z "},"⬦":{"ha":1389,"x_min":174,"x_max":1215,"o":"m 174 608 l 694 1128 l 1215 608 l 694 87 l 174 608 m 434 608 l 694 347 l 955 608 l 694 868 l 434 608 z "},"⬧":{"ha":1389,"x_min":347,"x_max":1042,"o":"m 347 608 l 694 1215 l 1042 608 l 694 0 l 347 608 z "},"⬨":{"ha":1389,"x_min":347,"x_max":1042,"o":"m 347 608 l 694 1215 l 1042 608 l 694 0 l 347 608 m 521 608 l 694 295 l 868 608 l 694 920 l 521 608 z "},"⬩":{"ha":1389,"x_min":260,"x_max":1128,"o":"m 260 608 l 694 1042 l 1128 608 l 694 174 l 260 608 z "},"⬪":{"ha":1389,"x_min":434,"x_max":955,"o":"m 434 608 l 694 1128 l 955 608 l 694 87 l 434 608 z "},"⬫":{"ha":1389,"x_min":434,"x_max":955,"o":"m 434 608 l 694 1128 l 955 608 l 694 87 l 434 608 m 608 608 l 694 417 l 781 608 l 694 799 l 608 608 z "},"⬬":{"ha":1389,"x_min":87,"x_max":1302,"o":"m 265 362 q 176 413 265 362 q 87 608 87 464 q 265 853 87 752 q 694 955 443 955 q 1124 853 946 955 q 1302 608 1302 752 q 1124 362 1302 464 q 694 260 946 260 q 265 362 443 260 z "},"⬭":{"ha":1389,"x_min":87,"x_max":1302,"o":"m 265 362 q 176 413 265 362 q 87 608 87 464 q 265 853 87 752 q 694 955 443 955 q 1124 853 946 955 q 1302 608 1302 752 q 1124 362 1302 464 q 694 260 946 260 q 265 362 443 260 m 388 730 q 324 704 388 730 q 260 608 260 679 q 388 485 260 536 q 694 434 516 434 q 1001 485 873 434 q 1128 608 1128 536 q 1001 730 1128 679 q 694 781 873 781 q 388 730 516 781 z "},"⬮":{"ha":1389,"x_min":347,"x_max":1042,"o":"m 449 178 q 398 267 449 178 q 347 608 347 356 q 449 1037 347 859 q 694 1215 550 1215 q 940 1037 839 1215 q 1042 608 1042 859 q 940 178 1042 356 q 694 0 839 0 q 449 178 550 0 z "},"⬯":{"ha":1389,"x_min":347,"x_max":1042,"o":"m 449 178 q 398 267 449 178 q 347 608 347 356 q 449 1037 347 859 q 694 1215 550 1215 q 940 1037 839 1215 q 1042 608 1042 859 q 940 178 1042 356 q 694 0 839 0 q 449 178 550 0 m 572 914 q 546 850 572 914 q 521 608 521 786 q 572 301 521 429 q 694 174 623 174 q 817 301 766 174 q 868 608 868 429 q 817 914 868 786 q 694 1042 766 1042 q 572 914 623 1042 z "},"⭐":{"ha":1389,"x_min":174,"x_max":1215,"o":"m 174 781 l 578 781 l 694 1128 l 811 781 l 1215 781 l 896 526 l 1042 87 l 694 365 l 347 87 l 493 526 l 174 781 m 365 712 l 564 549 l 469 260 l 694 444 l 920 260 l 825 549 l 1024 712 l 769 712 l 694 938 l 620 712 l 365 712 z "},"⭑":{"ha":1389,"x_min":260,"x_max":1128,"o":"m 260 694 l 576 694 l 694 1042 l 813 694 l 1128 694 l 875 512 l 990 174 l 694 384 l 399 174 l 514 512 l 260 694 z "},"⭒":{"ha":1389,"x_min":260,"x_max":1128,"o":"m 260 694 l 576 694 l 694 1042 l 813 694 l 1128 694 l 875 512 l 990 174 l 694 384 l 399 174 l 514 512 l 260 694 m 434 642 l 580 535 l 503 313 l 694 451 l 885 313 l 809 535 l 955 642 l 773 642 l 694 868 l 616 642 l 434 642 z "},"⭓":{"ha":1389,"x_min":87,"x_max":1302,"o":"m 87 260 l 87 955 l 781 1215 l 1302 608 l 781 0 l 87 260 z "},"⭔":{"ha":1389,"x_min":87,"x_max":1302,"o":"m 87 260 l 87 955 l 781 1215 l 1302 608 l 781 0 l 87 260 m 260 365 l 712 182 l 1102 608 l 712 1033 l 260 851 l 260 365 z "},"⭕":{"ha":1389,"x_min":87,"x_max":1302,"o":"m 265 178 q 176 267 265 178 q 87 608 87 356 q 265 1037 87 859 q 694 1215 443 1215 q 1124 1037 946 1215 q 1302 608 1302 859 q 1124 178 1302 356 q 694 0 946 0 q 265 178 443 0 m 450 852 q 398 801 450 852 q 347 608 347 750 q 450 363 347 465 q 694 260 552 260 q 939 363 837 260 q 1042 608 1042 465 q 939 852 1042 750 q 694 955 837 955 q 450 852 552 955 z "},"⭖":{"ha":1389,"x_min":87,"x_max":1302,"o":"m 265 362 q 176 413 265 362 q 87 608 87 464 q 265 853 87 752 q 694 955 443 955 q 1124 853 946 955 q 1302 608 1302 752 q 1124 362 1302 464 q 694 260 946 260 q 265 362 443 260 m 326 792 q 250 753 326 792 q 174 608 174 715 q 326 424 174 500 q 694 347 479 347 q 1063 424 910 347 q 1215 608 1215 500 q 1063 792 1215 715 q 694 868 910 868 q 326 792 479 868 m 388 485 q 324 511 388 485 q 260 608 260 536 q 388 730 260 679 q 694 781 516 781 q 1001 730 873 781 q 1128 608 1128 679 q 1001 485 1128 536 q 694 434 873 434 q 388 485 516 434 m 449 669 q 398 657 449 669 q 347 608 347 644 q 449 546 347 571 q 694 521 550 521 q 940 546 839 521 q 1042 608 1042 571 q 940 669 1042 644 q 694 694 839 694 q 449 669 550 694 z "},"⭗":{"ha":1389,"x_min":260,"x_max":1128,"o":"m 387 300 q 324 364 387 300 q 260 608 260 427 q 387 915 260 788 q 694 1042 514 1042 q 1002 915 875 1042 q 1128 608 1128 788 q 1002 300 1128 427 q 694 174 875 174 q 387 300 514 174 m 450 852 q 398 801 450 852 q 347 608 347 750 q 450 363 347 465 q 694 260 552 260 q 939 363 837 260 q 1042 608 1042 465 q 939 852 1042 750 q 694 955 837 955 q 450 852 552 955 m 510 424 q 472 462 510 424 q 434 608 434 500 q 510 792 434 715 q 694 868 587 868 q 878 792 802 868 q 955 608 955 715 q 878 424 955 500 q 694 347 802 347 q 510 424 587 347 m 572 730 q 546 704 572 730 q 521 608 521 679 q 572 485 521 536 q 694 434 623 434 q 817 485 766 434 q 868 608 868 536 q 817 730 868 679 q 694 781 766 781 q 572 730 623 781 z "},"⭘":{"ha":1389,"x_min":174,"x_max":1215,"o":"m 326 240 q 250 316 326 240 q 174 608 174 392 q 326 976 174 823 q 694 1128 479 1128 q 1063 976 910 1128 q 1215 608 1215 823 q 1063 240 1215 392 q 694 87 910 87 q 326 240 479 87 m 510 792 q 472 753 510 792 q 434 608 434 715 q 510 424 434 500 q 694 347 587 347 q 878 424 802 347 q 955 608 955 500 q 878 792 955 715 q 694 868 802 868 q 510 792 587 868 z "},"⭙":{"ha":1389,"x_min":174,"x_max":1215,"o":"m 326 240 q 250 316 326 240 q 174 608 174 392 q 326 976 174 823 q 694 1128 479 1128 q 1063 976 910 1128 q 1215 608 1215 823 q 1063 240 1215 392 q 694 87 910 87 q 326 240 479 87 m 457 715 q 434 608 434 661 q 457 500 434 554 l 564 608 l 457 715 m 587 370 q 694 347 641 347 q 802 370 748 347 l 694 477 l 587 370 m 587 845 l 694 738 l 802 845 q 694 868 748 868 q 587 845 641 868 m 825 608 l 932 500 q 955 608 955 554 q 932 715 955 661 l 825 608 z "},"⯀":{"ha":1389,"x_min":87,"x_max":1302,"o":"m 87 0 l 87 1215 l 1302 1215 l 1302 0 l 87 0 z "},"⯁":{"ha":1389,"x_min":87,"x_max":1302,"o":"m 87 608 l 694 1215 l 1302 608 l 694 0 l 87 608 z "},"⯂":{"ha":1389,"x_min":87,"x_max":1302,"o":"m 87 521 l 347 1215 l 1042 1215 l 1302 521 l 694 0 l 87 521 z "},"⯃":{"ha":1389,"x_min":87,"x_max":1302,"o":"m 87 347 l 87 868 l 434 1215 l 955 1215 l 1302 868 l 1302 347 l 955 0 l 434 0 l 87 347 z "},"⯄":{"ha":1389,"x_min":87,"x_max":1302,"o":"m 87 608 l 245 1042 l 694 1215 l 1128 1042 l 1302 608 l 1128 174 l 694 0 l 260 174 l 87 608 z "},"⯅":{"ha":1389,"x_min":260,"x_max":1128,"o":"m 260 174 l 694 1042 l 1128 174 l 260 174 z "},"⯆":{"ha":1389,"x_min":260,"x_max":1128,"o":"m 260 1042 l 1128 1042 l 694 174 l 260 1042 z "},"⯇":{"ha":1389,"x_min":260,"x_max":1128,"o":"m 260 608 l 1128 1042 l 1128 174 l 260 608 z "},"⯈":{"ha":1389,"x_min":260,"x_max":1128,"o":"m 260 174 l 260 1042 l 1128 608 l 260 174 z "},"⯊":{"ha":1389,"x_min":260,"x_max":1128,"o":"m 260 608 q 387 915 260 788 q 694 1042 514 1042 q 1002 915 875 1042 q 1128 608 1128 788 l 260 608 z "},"⯋":{"ha":1389,"x_min":260,"x_max":1128,"o":"m 260 608 l 1128 608 q 1002 300 1128 427 q 694 174 875 174 q 387 300 514 174 q 260 608 260 427 z "},"⮺":{"ha":1389,"x_min":87,"x_max":1302,"o":"m 87 0 l 87 868 l 434 868 l 434 1215 l 1302 1215 l 1302 347 l 955 347 l 955 0 l 87 0 m 260 174 l 781 174 l 781 347 l 434 347 l 434 694 l 260 694 l 260 174 m 608 521 l 781 521 l 781 694 l 608 694 l 608 521 m 608 868 l 955 868 l 955 521 l 1128 521 l 1128 1042 l 608 1042 l 608 868 z "},"⮻":{"ha":1389,"x_min":87,"x_max":1302,"o":"m 87 0 l 87 868 l 434 868 l 434 1215 l 1302 1215 l 1302 347 l 955 347 l 955 0 l 87 0 m 781 347 l 434 347 l 434 694 l 260 694 l 260 174 l 781 174 l 781 347 z "},"⮼":{"ha":1389,"x_min":87,"x_max":1302,"o":"m 87 0 l 87 868 l 434 868 l 434 1215 l 1302 1215 l 1302 347 l 955 347 l 955 0 l 87 0 z "},"⯨":{"ha":1389,"x_min":87,"x_max":694,"o":"m 87 781 l 540 781 l 694 1215 l 694 326 l 260 0 l 444 514 l 87 781 z "},"⯩":{"ha":1389,"x_min":694,"x_max":1302,"o":"m 694 326 l 694 1215 l 849 781 l 1302 781 l 944 514 l 1128 0 l 694 326 z "},"⯪":{"ha":1389,"x_min":87,"x_max":1302,"o":"m 87 781 l 540 781 l 694 1215 l 849 781 l 1302 781 l 944 514 l 1128 0 l 694 326 l 260 0 l 444 514 l 87 781 m 694 436 l 955 243 l 844 547 l 1042 694 l 790 694 l 694 955 l 694 436 z "},"⯫":{"ha":1389,"x_min":87,"x_max":1302,"o":"m 87 781 l 540 781 l 694 1215 l 849 781 l 1302 781 l 944 514 l 1128 0 l 694 326 l 260 0 l 444 514 l 87 781 m 347 694 l 545 547 l 434 243 l 694 436 l 694 955 l 599 694 l 347 694 z "},"⚪":{"ha":1389,"x_min":174,"x_max":1215,"o":"m 326 240 q 250 316 326 240 q 174 608 174 392 q 326 976 174 823 q 694 1128 479 1128 q 1063 976 910 1128 q 1215 608 1215 823 q 1063 240 1215 392 q 694 87 910 87 q 326 240 479 87 m 450 852 q 398 801 450 852 q 347 608 347 750 q 450 363 347 465 q 694 260 552 260 q 939 363 837 260 q 1042 608 1042 465 q 939 852 1042 750 q 694 955 837 955 q 450 852 552 955 z "},"⚫":{"ha":1389,"x_min":174,"x_max":1215,"o":"m 326 240 q 250 316 326 240 q 174 608 174 392 q 326 976 174 823 q 694 1128 479 1128 q 1063 976 910 1128 q 1215 608 1215 823 q 1063 240 1215 392 q 694 87 910 87 q 326 240 479 87 z "},"⚬":{"ha":1389,"x_min":260,"x_max":1128,"o":"m 387 300 q 324 364 387 300 q 260 608 260 427 q 387 915 260 788 q 694 1042 514 1042 q 1002 915 875 1042 q 1128 608 1128 788 q 1002 300 1128 427 q 694 174 875 174 q 387 300 514 174 m 510 792 q 472 753 510 792 q 434 608 434 715 q 510 424 434 500 q 694 347 587 347 q 878 424 802 347 q 955 608 955 500 q 878 792 955 715 q 694 868 802 868 q 510 792 587 868 z "},"◉":{"ha":1389,"x_min":260,"x_max":1128,"o":"m 387 300 q 324 364 387 300 q 260 608 260 427 q 387 915 260 788 q 694 1042 514 1042 q 1002 915 875 1042 q 1128 608 1128 788 q 1002 300 1128 427 q 694 174 875 174 q 387 300 514 174 m 510 792 q 472 753 510 792 q 434 608 434 715 q 510 424 434 500 q 694 347 587 347 q 878 424 802 347 q 955 608 955 500 q 878 792 955 715 q 694 868 802 868 q 510 792 587 868 m 572 485 q 546 511 572 485 q 521 608 521 536 q 572 730 521 679 q 694 781 623 781 q 817 730 766 781 q 868 608 868 679 q 817 485 868 536 q 694 434 766 434 q 572 485 623 434 z "},"◈":{"ha":1389,"x_min":174,"x_max":1215,"o":"m 174 608 l 694 1128 l 1215 608 l 694 87 l 174 608 m 434 608 l 694 347 l 955 608 l 694 868 l 434 608 m 564 608 l 694 738 l 825 608 l 694 477 l 564 608 z "},"◬":{"ha":1389,"x_min":87,"x_max":1302,"o":"m 87 0 l 694 1215 l 1302 0 l 87 0 m 347 174 l 1042 174 l 694 868 l 347 174 m 608 260 l 608 434 l 781 434 l 781 260 l 608 260 z "},"◜":{"ha":1389,"x_min":260,"x_max":694,"o":"m 260 608 q 387 915 260 788 q 694 1042 514 1042 l 694 868 q 510 792 587 868 q 434 608 434 715 l 260 608 z "},"◝":{"ha":1389,"x_min":694,"x_max":1128,"o":"m 694 868 l 694 1042 q 1002 915 875 1042 q 1128 608 1128 788 l 955 608 q 878 792 955 715 q 694 868 802 868 z "},"◞":{"ha":1389,"x_min":694,"x_max":1128,"o":"m 694 174 l 694 347 q 878 424 802 347 q 955 608 955 500 l 1128 608 q 1002 300 1128 427 q 694 174 875 174 z "},"◟":{"ha":1389,"x_min":260,"x_max":694,"o":"m 260 608 l 434 608 q 510 424 434 500 q 694 347 587 347 l 694 174 q 387 300 514 174 q 260 608 260 427 z "},"◍":{"ha":1389,"x_min":260,"x_max":1128,"o":"m 387 300 q 324 364 387 300 q 260 608 260 427 q 387 915 260 788 q 694 1042 514 1042 q 1002 915 875 1042 q 1128 608 1128 788 q 1002 300 1128 427 q 694 174 875 174 q 387 300 514 174 m 477 752 q 434 608 434 688 q 477 464 434 528 l 477 752 m 564 382 q 651 351 602 359 l 651 865 q 564 833 602 856 l 564 382 m 738 351 q 825 382 786 359 l 825 833 q 738 865 786 856 l 738 351 m 911 464 q 955 608 955 528 q 911 752 955 688 l 911 464 z "},"◎":{"ha":1389,"x_min":260,"x_max":1128,"o":"m 387 300 q 324 364 387 300 q 260 608 260 427 q 387 915 260 788 q 694 1042 514 1042 q 1002 915 875 1042 q 1128 608 1128 788 q 1002 300 1128 427 q 694 174 875 174 q 387 300 514 174 m 450 852 q 398 801 450 852 q 347 608 347 750 q 450 363 347 465 q 694 260 552 260 q 939 363 837 260 q 1042 608 1042 465 q 939 852 1042 750 q 694 955 837 955 q 450 852 552 955 m 510 424 q 472 462 510 424 q 434 608 434 500 q 510 792 434 715 q 694 868 587 868 q 878 792 802 868 q 955 608 955 715 q 878 424 955 500 q 694 347 802 347 q 510 424 587 347 m 572 730 q 546 704 572 730 q 521 608 521 679 q 572 485 521 536 q 694 434 623 434 q 817 485 766 434 q 868 608 868 536 q 817 730 868 679 q 694 781 766 781 q 572 730 623 781 z "},"★":{"ha":1389,"x_min":87,"x_max":1302,"o":"m 87 781 l 540 781 l 694 1215 l 849 781 l 1302 781 l 944 514 l 1128 0 l 694 326 l 260 0 l 444 514 l 87 781 z "},"☆":{"ha":1389,"x_min":87,"x_max":1302,"o":"m 87 781 l 540 781 l 694 1215 l 849 781 l 1302 781 l 944 514 l 1128 0 l 694 326 l 260 0 l 444 514 l 87 781 m 347 694 l 545 547 l 434 243 l 694 436 l 955 243 l 844 547 l 1042 694 l 790 694 l 694 955 l 599 694 l 347 694 z "},"⧨":{"ha":1389,"x_min":87,"x_max":1302,"o":"m 87 1215 l 1302 1215 l 694 0 l 87 1215 m 694 347 l 1042 1042 l 694 1042 l 694 347 z "},"⧩":{"ha":1389,"x_min":87,"x_max":1302,"o":"m 87 1215 l 1302 1215 l 694 0 l 87 1215 m 347 1042 l 694 347 l 694 1042 l 347 1042 z "},"⁰":{"ha":1389,"x_min":434,"x_max":955,"o":"m 434 434 l 434 1128 l 521 1215 l 868 1215 l 955 1128 l 955 434 l 868 347 l 521 347 l 434 434 m 608 521 l 781 521 l 781 564 l 608 738 l 608 521 m 608 998 l 781 825 l 781 1042 l 608 1042 l 608 998 z "},"¹":{"ha":1389,"x_min":434,"x_max":955,"o":"m 434 347 l 434 521 l 608 521 l 608 868 l 434 868 l 434 1042 l 608 1042 l 608 1215 l 781 1215 l 781 521 l 955 521 l 955 347 l 434 347 z "},"²":{"ha":1389,"x_min":434,"x_max":955,"o":"m 434 347 l 434 608 l 781 955 l 781 1042 l 608 1042 l 608 955 l 434 955 l 434 1128 l 521 1215 l 868 1215 l 955 1128 l 955 868 l 608 521 l 955 521 l 955 347 l 434 347 z "},"³":{"ha":1389,"x_min":434,"x_max":955,"o":"m 434 434 l 434 608 l 608 608 l 608 521 l 781 521 l 781 694 l 608 694 l 608 868 l 781 868 l 781 1042 l 608 1042 l 608 955 l 434 955 l 434 1128 l 521 1215 l 868 1215 l 955 1128 l 955 434 l 868 347 l 521 347 l 434 434 z "},"⁴":{"ha":1389,"x_min":434,"x_max":955,"o":"m 434 521 l 434 955 l 694 1215 l 868 1215 l 868 694 l 955 694 l 955 521 l 868 521 l 868 347 l 694 347 l 694 521 l 434 521 m 608 694 l 694 694 l 694 955 l 608 868 l 608 694 z "},"⁵":{"ha":1389,"x_min":434,"x_max":955,"o":"m 434 434 l 434 608 l 608 608 l 608 521 l 781 521 l 781 738 l 434 738 l 434 1215 l 955 1215 l 955 1042 l 608 1042 l 608 911 l 868 911 l 955 825 l 955 434 l 868 347 l 521 347 l 434 434 z "},"⁶":{"ha":1389,"x_min":434,"x_max":955,"o":"m 434 434 l 434 1042 l 608 1215 l 868 1215 l 868 1042 l 694 1042 l 608 955 l 608 868 l 868 868 l 955 781 l 955 434 l 868 347 l 521 347 l 434 434 m 608 521 l 781 521 l 781 694 l 608 694 l 608 521 z "},"⁷":{"ha":1389,"x_min":434,"x_max":955,"o":"m 434 1042 l 434 1215 l 955 1215 l 955 868 l 694 590 l 694 347 l 521 347 l 521 677 l 781 955 l 781 1042 l 434 1042 z "},"⁸":{"ha":1389,"x_min":434,"x_max":955,"o":"m 434 434 l 434 1128 l 521 1215 l 868 1215 l 955 1128 l 955 434 l 868 347 l 521 347 l 434 434 m 608 521 l 781 521 l 781 694 l 608 694 l 608 521 m 608 868 l 781 868 l 781 1042 l 608 1042 l 608 868 z "},"⁹":{"ha":1389,"x_min":434,"x_max":955,"o":"m 434 781 l 434 1128 l 521 1215 l 868 1215 l 955 1128 l 955 521 l 781 347 l 521 347 l 521 521 l 694 521 l 781 608 l 781 694 l 521 694 l 434 781 m 608 868 l 781 868 l 781 1042 l 608 1042 l 608 868 z "},"⁺":{"ha":1389,"x_min":434,"x_max":955,"o":"m 434 694 l 434 868 l 608 868 l 608 1042 l 781 1042 l 781 868 l 955 868 l 955 694 l 781 694 l 781 521 l 608 521 l 608 694 l 434 694 z "},"⁻":{"ha":1389,"x_min":434,"x_max":955,"o":"m 434 694 l 434 868 l 955 868 l 955 694 l 434 694 z "},"⁼":{"ha":1389,"x_min":434,"x_max":955,"o":"m 434 521 l 434 694 l 955 694 l 955 521 l 434 521 m 434 868 l 434 1042 l 955 1042 l 955 868 l 434 868 z "},"⁽":{"ha":1389,"x_min":521,"x_max":868,"o":"m 521 521 l 521 1042 l 694 1215 l 868 1215 l 868 1042 l 781 1042 l 694 955 l 694 608 l 781 521 l 868 521 l 868 347 l 694 347 l 521 521 z "},"⁾":{"ha":1389,"x_min":521,"x_max":868,"o":"m 521 347 l 521 521 l 608 521 l 694 608 l 694 955 l 608 1042 l 521 1042 l 521 1215 l 694 1215 l 868 1042 l 868 521 l 694 347 l 521 347 z "},"ⁿ":{"ha":1389,"x_min":434,"x_max":955,"o":"m 434 -174 l 434 521 l 868 521 l 955 434 l 955 -174 l 781 -174 l 781 347 l 608 347 l 608 -174 l 434 -174 z "},"₀":{"ha":1389,"x_min":434,"x_max":955,"o":"m 434 -87 l 434 608 l 521 694 l 868 694 l 955 608 l 955 -87 l 868 -174 l 521 -174 l 434 -87 m 608 0 l 781 0 l 781 43 l 608 217 l 608 0 m 608 477 l 781 304 l 781 521 l 608 521 l 608 477 z "},"₁":{"ha":1389,"x_min":434,"x_max":955,"o":"m 434 0 l 608 0 l 608 347 l 434 347 l 434 521 l 608 521 l 608 694 l 781 694 l 781 0 l 955 0 l 955 -174 l 434 -174 l 434 0 z "},"₂":{"ha":1389,"x_min":434,"x_max":955,"o":"m 434 87 l 781 434 l 781 521 l 608 521 l 608 434 l 434 434 l 434 608 l 521 694 l 868 694 l 955 608 l 955 347 l 608 0 l 955 0 l 955 -174 l 434 -174 l 434 87 z "},"₃":{"ha":1389,"x_min":434,"x_max":955,"o":"m 434 -87 l 434 87 l 608 87 l 608 0 l 781 0 l 781 174 l 608 174 l 608 347 l 781 347 l 781 521 l 608 521 l 608 434 l 434 434 l 434 608 l 521 694 l 868 694 l 955 608 l 955 -87 l 868 -174 l 521 -174 l 434 -87 z "},"₄":{"ha":1389,"x_min":434,"x_max":955,"o":"m 434 0 l 434 434 l 694 694 l 868 694 l 868 174 l 955 174 l 955 0 l 868 0 l 868 -174 l 694 -174 l 694 0 l 434 0 m 608 174 l 694 174 l 694 434 l 608 347 l 608 174 z "},"₅":{"ha":1389,"x_min":434,"x_max":955,"o":"m 434 -87 l 434 87 l 608 87 l 608 0 l 781 0 l 781 217 l 434 217 l 434 694 l 955 694 l 955 521 l 608 521 l 608 391 l 868 391 l 955 304 l 955 -87 l 868 -174 l 521 -174 l 434 -87 z "},"₆":{"ha":1389,"x_min":434,"x_max":955,"o":"m 434 -87 l 434 521 l 608 694 l 868 694 l 868 521 l 694 521 l 608 434 l 608 347 l 868 347 l 955 260 l 955 -87 l 868 -174 l 521 -174 l 434 -87 m 608 0 l 781 0 l 781 174 l 608 174 l 608 0 z "},"₇":{"ha":1389,"x_min":434,"x_max":955,"o":"m 434 521 l 434 694 l 955 694 l 955 347 l 694 69 l 694 -174 l 521 -174 l 521 156 l 781 434 l 781 521 l 434 521 z "},"₈":{"ha":1389,"x_min":434,"x_max":955,"o":"m 434 -87 l 434 608 l 521 694 l 868 694 l 955 608 l 955 -87 l 868 -174 l 521 -174 l 434 -87 m 608 0 l 781 0 l 781 174 l 608 174 l 608 0 m 608 347 l 781 347 l 781 521 l 608 521 l 608 347 z "},"₉":{"ha":1389,"x_min":434,"x_max":955,"o":"m 434 260 l 434 608 l 521 694 l 868 694 l 955 608 l 955 0 l 781 -174 l 521 -174 l 521 0 l 694 0 l 781 87 l 781 174 l 521 174 l 434 260 m 608 347 l 781 347 l 781 521 l 608 521 l 608 347 z "},"₊":{"ha":1389,"x_min":434,"x_max":955,"o":"m 434 174 l 434 347 l 608 347 l 608 521 l 781 521 l 781 347 l 955 347 l 955 174 l 781 174 l 781 0 l 608 0 l 608 174 l 434 174 z "},"₋":{"ha":1389,"x_min":434,"x_max":955,"o":"m 434 174 l 434 347 l 955 347 l 955 174 l 434 174 z "},"₌":{"ha":1389,"x_min":434,"x_max":955,"o":"m 434 0 l 434 174 l 955 174 l 955 0 l 434 0 m 434 347 l 434 521 l 955 521 l 955 347 l 434 347 z "},"₍":{"ha":1389,"x_min":521,"x_max":868,"o":"m 521 0 l 521 521 l 694 694 l 868 694 l 868 521 l 781 521 l 694 434 l 694 87 l 781 0 l 868 0 l 868 -174 l 694 -174 l 521 0 z "},"₎":{"ha":1389,"x_min":521,"x_max":868,"o":"m 521 0 l 608 0 l 694 87 l 694 434 l 608 521 l 521 521 l 521 694 l 694 694 l 868 521 l 868 0 l 694 -174 l 521 -174 l 521 0 z "},"ₐ":{"ha":1389,"x_min":434,"x_max":955,"o":"m 434 -87 l 434 174 l 521 260 l 781 260 l 781 347 l 521 347 l 521 521 l 868 521 l 955 434 l 955 -174 l 521 -174 l 434 -87 m 608 0 l 781 0 l 781 87 l 608 87 l 608 0 z "},"ₑ":{"ha":1389,"x_min":434,"x_max":955,"o":"m 434 -87 l 434 434 l 521 521 l 868 521 l 955 434 l 955 87 l 608 87 l 608 0 l 955 0 l 955 -174 l 521 -174 l 434 -87 m 608 260 l 781 260 l 781 347 l 608 347 l 608 260 z "},"ₒ":{"ha":1389,"x_min":434,"x_max":955,"o":"m 434 -87 l 434 434 l 521 521 l 868 521 l 955 434 l 955 -87 l 868 -174 l 521 -174 l 434 -87 m 608 0 l 781 0 l 781 347 l 608 347 l 608 0 z "},"ₓ":{"ha":1389,"x_min":434,"x_max":955,"o":"m 434 43 l 564 174 l 434 304 l 434 521 l 608 521 l 608 391 l 694 304 l 781 391 l 781 521 l 955 521 l 955 304 l 825 174 l 955 43 l 955 -174 l 781 -174 l 781 -43 l 694 43 l 608 -43 l 608 -174 l 434 -174 l 434 43 z "},"ₔ":{"ha":1389,"x_min":434,"x_max":955,"o":"m 434 -87 l 434 260 l 781 260 l 781 347 l 434 347 l 434 521 l 868 521 l 955 434 l 955 -87 l 868 -174 l 521 -174 l 434 -87 m 608 0 l 781 0 l 781 87 l 608 87 l 608 0 z "},"↉":{"ha":1389,"x_min":87,"x_max":1302,"o":"m 87 781 l 87 1128 l 174 1215 l 521 1215 l 608 1128 l 608 781 l 521 694 l 174 694 l 87 781 m 260 174 l 260 243 l 1059 1042 l 1128 1042 l 1128 972 l 330 174 l 260 174 m 260 781 l 434 781 l 260 955 l 260 781 m 260 1128 l 434 955 l 434 1128 l 260 1128 m 781 0 l 781 87 l 1128 87 l 1128 217 l 868 217 l 868 304 l 1128 304 l 1128 434 l 781 434 l 781 521 l 1215 521 l 1302 434 l 1302 330 l 1233 260 l 1302 191 l 1302 87 l 1215 0 l 781 0 z "},"½":{"ha":1389,"x_min":87,"x_max":1302,"o":"m 87 694 l 87 781 l 260 781 l 260 1042 l 130 1042 l 130 1128 l 260 1128 l 260 1215 l 434 1215 l 434 781 l 608 781 l 608 694 l 87 694 m 260 174 l 260 243 l 1059 1042 l 1128 1042 l 1128 972 l 330 174 l 260 174 m 781 0 l 781 87 l 868 174 l 1128 313 l 1128 434 l 781 434 l 781 521 l 1215 521 l 1302 434 l 1302 347 l 1215 260 l 955 122 l 955 87 l 1302 87 l 1302 0 l 781 0 z "},"⅓":{"ha":1389,"x_min":87,"x_max":1302,"o":"m 87 694 l 87 781 l 260 781 l 260 1042 l 130 1042 l 130 1128 l 260 1128 l 260 1215 l 434 1215 l 434 781 l 608 781 l 608 694 l 87 694 m 260 174 l 260 243 l 1059 1042 l 1128 1042 l 1128 972 l 330 174 l 260 174 m 781 0 l 781 87 l 1128 87 l 1128 217 l 868 217 l 868 304 l 1128 304 l 1128 434 l 781 434 l 781 521 l 1215 521 l 1302 434 l 1302 330 l 1233 260 l 1302 191 l 1302 87 l 1215 0 l 781 0 z "},"¼":{"ha":1389,"x_min":87,"x_max":1302,"o":"m 87 694 l 87 781 l 260 781 l 260 1042 l 130 1042 l 130 1128 l 260 1128 l 260 1215 l 434 1215 l 434 781 l 608 781 l 608 694 l 87 694 m 260 174 l 260 243 l 1059 1042 l 1128 1042 l 1128 972 l 330 174 l 260 174 m 781 87 l 781 260 l 1042 521 l 1215 521 l 1215 174 l 1302 174 l 1302 87 l 1215 87 l 1215 0 l 1042 0 l 1042 87 l 781 87 m 955 174 l 1042 174 l 1042 347 l 955 260 l 955 174 z "},"⅕":{"ha":1389,"x_min":87,"x_max":1302,"o":"m 87 694 l 87 781 l 260 781 l 260 1042 l 130 1042 l 130 1128 l 260 1128 l 260 1215 l 434 1215 l 434 781 l 608 781 l 608 694 l 87 694 m 260 174 l 260 243 l 1059 1042 l 1128 1042 l 1128 972 l 330 174 l 260 174 m 781 0 l 781 87 l 1128 87 l 1128 260 l 781 260 l 781 521 l 1302 521 l 1302 434 l 955 434 l 955 347 l 1215 347 l 1302 260 l 1302 87 l 1215 0 l 781 0 z "},"⅙":{"ha":1389,"x_min":87,"x_max":1302,"o":"m 87 694 l 87 781 l 260 781 l 260 1042 l 130 1042 l 130 1128 l 260 1128 l 260 1215 l 434 1215 l 434 781 l 608 781 l 608 694 l 87 694 m 260 174 l 260 243 l 1059 1042 l 1128 1042 l 1128 972 l 330 174 l 260 174 m 781 87 l 781 434 l 868 521 l 1215 521 l 1215 434 l 955 434 l 955 304 l 1215 304 l 1302 217 l 1302 87 l 1215 0 l 868 0 l 781 87 m 955 87 l 1128 87 l 1128 217 l 955 217 l 955 87 z "},"⅐":{"ha":1389,"x_min":87,"x_max":1302,"o":"m 87 694 l 87 781 l 260 781 l 260 1042 l 130 1042 l 130 1128 l 260 1128 l 260 1215 l 434 1215 l 434 781 l 608 781 l 608 694 l 87 694 m 260 174 l 260 243 l 1059 1042 l 1128 1042 l 1128 972 l 330 174 l 260 174 m 781 434 l 781 521 l 1302 521 l 1302 434 l 1042 174 l 1042 0 l 868 0 l 868 174 l 1128 434 l 781 434 z "},"⅛":{"ha":1389,"x_min":87,"x_max":1302,"o":"m 87 694 l 87 781 l 260 781 l 260 1042 l 130 1042 l 130 1128 l 260 1128 l 260 1215 l 434 1215 l 434 781 l 608 781 l 608 694 l 87 694 m 260 174 l 260 243 l 1059 1042 l 1128 1042 l 1128 972 l 330 174 l 260 174 m 781 87 l 781 191 l 851 260 l 781 330 l 781 434 l 868 521 l 1215 521 l 1302 434 l 1302 330 l 1233 260 l 1302 191 l 1302 87 l 1215 0 l 868 0 l 781 87 m 955 87 l 1128 87 l 1128 217 l 955 217 l 955 87 m 955 304 l 1128 304 l 1128 434 l 955 434 l 955 304 z "},"⅑":{"ha":1389,"x_min":87,"x_max":1302,"o":"m 87 694 l 87 781 l 260 781 l 260 1042 l 130 1042 l 130 1128 l 260 1128 l 260 1215 l 434 1215 l 434 781 l 608 781 l 608 694 l 87 694 m 260 174 l 260 243 l 1059 1042 l 1128 1042 l 1128 972 l 330 174 l 260 174 m 781 304 l 781 434 l 868 521 l 1215 521 l 1302 434 l 1302 87 l 1215 0 l 868 0 l 868 87 l 1128 87 l 1128 217 l 868 217 l 781 304 m 955 304 l 1128 304 l 1128 434 l 955 434 l 955 304 z "},"⅔":{"ha":1389,"x_min":87,"x_max":1302,"o":"m 87 694 l 87 781 l 174 868 l 434 1007 l 434 1128 l 87 1128 l 87 1215 l 521 1215 l 608 1128 l 608 1042 l 521 955 l 260 816 l 260 781 l 608 781 l 608 694 l 87 694 m 260 174 l 260 243 l 1059 1042 l 1128 1042 l 1128 972 l 330 174 l 260 174 m 781 0 l 781 87 l 1128 87 l 1128 217 l 868 217 l 868 304 l 1128 304 l 1128 434 l 781 434 l 781 521 l 1215 521 l 1302 434 l 1302 330 l 1233 260 l 1302 191 l 1302 87 l 1215 0 l 781 0 z "},"⅖":{"ha":1389,"x_min":87,"x_max":1302,"o":"m 87 694 l 87 781 l 174 868 l 434 1007 l 434 1128 l 87 1128 l 87 1215 l 521 1215 l 608 1128 l 608 1042 l 521 955 l 260 816 l 260 781 l 608 781 l 608 694 l 87 694 m 260 174 l 260 243 l 1059 1042 l 1128 1042 l 1128 972 l 330 174 l 260 174 m 781 0 l 781 87 l 1128 87 l 1128 260 l 781 260 l 781 521 l 1302 521 l 1302 434 l 955 434 l 955 347 l 1215 347 l 1302 260 l 1302 87 l 1215 0 l 781 0 z "},"¾":{"ha":1389,"x_min":87,"x_max":1302,"o":"m 87 694 l 87 781 l 434 781 l 434 911 l 174 911 l 174 998 l 434 998 l 434 1128 l 87 1128 l 87 1215 l 521 1215 l 608 1128 l 608 1024 l 538 955 l 608 885 l 608 781 l 521 694 l 87 694 m 260 174 l 260 243 l 1059 1042 l 1128 1042 l 1128 972 l 330 174 l 260 174 m 781 87 l 781 260 l 1042 521 l 1215 521 l 1215 174 l 1302 174 l 1302 87 l 1215 87 l 1215 0 l 1042 0 l 1042 87 l 781 87 m 955 174 l 1042 174 l 1042 347 l 955 260 l 955 174 z "},"⅗":{"ha":1389,"x_min":87,"x_max":1302,"o":"m 87 694 l 87 781 l 434 781 l 434 911 l 174 911 l 174 998 l 434 998 l 434 1128 l 87 1128 l 87 1215 l 521 1215 l 608 1128 l 608 1024 l 538 955 l 608 885 l 608 781 l 521 694 l 87 694 m 260 174 l 260 243 l 1059 1042 l 1128 1042 l 1128 972 l 330 174 l 260 174 m 781 0 l 781 87 l 1128 87 l 1128 260 l 781 260 l 781 521 l 1302 521 l 1302 434 l 955 434 l 955 347 l 1215 347 l 1302 260 l 1302 87 l 1215 0 l 781 0 z "},"⅜":{"ha":1389,"x_min":87,"x_max":1302,"o":"m 87 694 l 87 781 l 434 781 l 434 911 l 174 911 l 174 998 l 434 998 l 434 1128 l 87 1128 l 87 1215 l 521 1215 l 608 1128 l 608 1024 l 538 955 l 608 885 l 608 781 l 521 694 l 87 694 m 260 174 l 260 243 l 1059 1042 l 1128 1042 l 1128 972 l 330 174 l 260 174 m 781 87 l 781 191 l 851 260 l 781 330 l 781 434 l 868 521 l 1215 521 l 1302 434 l 1302 330 l 1233 260 l 1302 191 l 1302 87 l 1215 0 l 868 0 l 781 87 m 955 87 l 1128 87 l 1128 217 l 955 217 l 955 87 m 955 304 l 1128 304 l 1128 434 l 955 434 l 955 304 z "},"⅘":{"ha":1389,"x_min":87,"x_max":1302,"o":"m 87 781 l 87 955 l 347 1215 l 521 1215 l 521 868 l 608 868 l 608 781 l 521 781 l 521 694 l 347 694 l 347 781 l 87 781 m 260 174 l 260 243 l 1059 1042 l 1128 1042 l 1128 972 l 330 174 l 260 174 m 260 868 l 347 868 l 347 1042 l 260 955 l 260 868 m 781 0 l 781 87 l 1128 87 l 1128 260 l 781 260 l 781 521 l 1302 521 l 1302 434 l 955 434 l 955 347 l 1215 347 l 1302 260 l 1302 87 l 1215 0 l 781 0 z "},"⅚":{"ha":1389,"x_min":87,"x_max":1302,"o":"m 87 694 l 87 781 l 434 781 l 434 955 l 87 955 l 87 1215 l 608 1215 l 608 1128 l 260 1128 l 260 1042 l 521 1042 l 608 955 l 608 781 l 521 694 l 87 694 m 260 174 l 260 243 l 1059 1042 l 1128 1042 l 1128 972 l 330 174 l 260 174 m 781 87 l 781 434 l 868 521 l 1215 521 l 1215 434 l 955 434 l 955 304 l 1215 304 l 1302 217 l 1302 87 l 1215 0 l 868 0 l 781 87 m 955 87 l 1128 87 l 1128 217 l 955 217 l 955 87 z "},"⅝":{"ha":1389,"x_min":87,"x_max":1302,"o":"m 87 694 l 87 781 l 434 781 l 434 955 l 87 955 l 87 1215 l 608 1215 l 608 1128 l 260 1128 l 260 1042 l 521 1042 l 608 955 l 608 781 l 521 694 l 87 694 m 260 174 l 260 243 l 1059 1042 l 1128 1042 l 1128 972 l 330 174 l 260 174 m 781 87 l 781 191 l 851 260 l 781 330 l 781 434 l 868 521 l 1215 521 l 1302 434 l 1302 330 l 1233 260 l 1302 191 l 1302 87 l 1215 0 l 868 0 l 781 87 m 955 87 l 1128 87 l 1128 217 l 955 217 l 955 87 m 955 304 l 1128 304 l 1128 434 l 955 434 l 955 304 z "},"⅞":{"ha":1389,"x_min":87,"x_max":1302,"o":"m 87 1128 l 87 1215 l 608 1215 l 608 1128 l 347 868 l 347 694 l 174 694 l 174 868 l 434 1128 l 87 1128 m 260 174 l 260 243 l 1059 1042 l 1128 1042 l 1128 972 l 330 174 l 260 174 m 781 87 l 781 191 l 851 260 l 781 330 l 781 434 l 868 521 l 1215 521 l 1302 434 l 1302 330 l 1233 260 l 1302 191 l 1302 87 l 1215 0 l 868 0 l 781 87 m 955 87 l 1128 87 l 1128 217 l 955 217 l 955 87 m 955 304 l 1128 304 l 1128 434 l 955 434 l 955 304 z "},"⅒":{"ha":1389,"x_min":87,"x_max":1302,"o":"m 87 694 l 87 781 l 260 781 l 260 1042 l 130 1042 l 130 1128 l 260 1128 l 260 1215 l 434 1215 l 434 781 l 608 781 l 608 694 l 87 694 m 260 174 l 260 243 l 1059 1042 l 1128 1042 l 1128 972 l 330 174 l 260 174 m 781 0 l 781 521 l 868 521 l 868 0 l 781 0 m 955 87 l 955 434 l 1042 521 l 1215 521 l 1302 434 l 1302 87 l 1215 0 l 1042 0 l 955 87 m 1042 130 l 1085 87 l 1172 87 l 1215 130 l 1215 391 l 1172 434 l 1085 434 l 1042 391 l 1042 130 z "},"↊":{"ha":1389,"x_min":174,"x_max":1215,"o":"m 174 174 l 174 521 l 347 694 l 868 955 l 955 1042 l 174 1042 l 174 1215 l 1215 1215 l 1215 1042 l 955 781 l 434 521 l 347 434 l 347 260 l 434 174 l 868 174 l 1042 347 l 1215 347 l 1215 260 l 955 0 l 347 0 l 174 174 z "},"↋":{"ha":1389,"x_min":174,"x_max":1215,"o":"m 174 174 l 174 434 l 347 608 l 174 781 l 174 1042 l 347 1215 l 955 1215 l 1215 955 l 1215 868 l 1042 868 l 868 1042 l 434 1042 l 347 955 l 347 868 l 521 694 l 868 694 l 868 521 l 521 521 l 347 347 l 347 260 l 434 174 l 868 174 l 1042 347 l 1215 347 l 1215 260 l 955 0 l 347 0 l 174 174 z "},"←":{"ha":1389,"x_min":87,"x_max":1302,"o":"m 87 608 l 434 955 l 434 694 l 1302 694 l 1302 521 l 434 521 l 434 260 l 87 608 z "},"↑":{"ha":1389,"x_min":347,"x_max":1042,"o":"m 347 868 l 694 1215 l 1042 868 l 781 868 l 781 0 l 608 0 l 608 868 l 347 868 z "},"→":{"ha":1389,"x_min":87,"x_max":1302,"o":"m 87 521 l 87 694 l 955 694 l 955 955 l 1302 608 l 955 260 l 955 521 l 87 521 z "},"↓":{"ha":1389,"x_min":347,"x_max":1042,"o":"m 347 347 l 608 347 l 608 1215 l 781 1215 l 781 347 l 1042 347 l 694 0 l 347 347 z "},"↖":{"ha":1389,"x_min":87,"x_max":1302,"o":"m 87 738 l 87 1215 l 564 1215 l 391 1042 l 1302 130 l 1172 0 l 260 911 l 87 738 z "},"↗":{"ha":1389,"x_min":87,"x_max":1302,"o":"m 87 130 l 998 1042 l 825 1215 l 1302 1215 l 1302 738 l 1128 911 l 217 0 l 87 130 z "},"↘":{"ha":1389,"x_min":87,"x_max":1302,"o":"m 87 1085 l 217 1215 l 1128 304 l 1302 477 l 1302 0 l 825 0 l 998 174 l 87 1085 z "},"↙":{"ha":1389,"x_min":87,"x_max":1302,"o":"m 87 0 l 87 477 l 260 304 l 1172 1215 l 1302 1085 l 391 174 l 564 0 l 87 0 z "},"↔":{"ha":1389,"x_min":87,"x_max":1302,"o":"m 87 608 l 434 955 l 434 694 l 955 694 l 955 955 l 1302 608 l 955 260 l 955 521 l 434 521 l 434 260 l 87 608 z "},"↕":{"ha":1389,"x_min":347,"x_max":1042,"o":"m 347 347 l 608 347 l 608 868 l 347 868 l 694 1215 l 1042 868 l 781 868 l 781 347 l 1042 347 l 694 0 l 347 347 z "},"⤡":{"ha":1389,"x_min":87,"x_max":1302,"o":"m 87 738 l 87 1215 l 564 1215 l 391 1042 l 1128 304 l 1302 477 l 1302 0 l 825 0 l 998 174 l 260 911 l 87 738 z "},"⤢":{"ha":1389,"x_min":87,"x_max":1302,"o":"m 87 0 l 87 477 l 260 304 l 998 1042 l 825 1215 l 1302 1215 l 1302 738 l 1128 911 l 391 174 l 564 0 l 87 0 z "},"↨":{"ha":1389,"x_min":347,"x_max":1042,"o":"m 347 0 l 1042 0 l 1042 -174 l 347 -174 l 347 0 m 347 347 l 608 347 l 608 868 l 347 868 l 694 1215 l 1042 868 l 781 868 l 781 347 l 1042 347 l 694 0 l 347 347 z "},"Ā":{"ha":1389,"x_min":174,"x_max":1215,"o":"m 174 0 l 174 434 l 608 868 l 781 868 l 1215 434 l 1215 0 l 1042 0 l 1042 87 l 347 87 l 347 0 l 174 0 m 347 260 l 1042 260 l 1042 347 l 694 694 l 347 347 l 347 260 m 434 1042 l 434 1215 l 955 1215 l 955 1042 l 434 1042 z "},"ā":{"ha":1389,"x_min":347,"x_max":1042,"o":"m 347 130 l 347 391 l 477 521 l 868 521 l 868 608 l 781 694 l 521 694 l 521 868 l 868 868 l 1042 694 l 1042 0 l 477 0 l 347 130 m 434 1042 l 434 1215 l 955 1215 l 955 1042 l 434 1042 m 521 217 l 564 174 l 868 174 l 868 347 l 564 347 l 521 304 l 521 217 z "},"Ă":{"ha":1389,"x_min":174,"x_max":1215,"o":"m 174 0 l 174 434 l 608 868 l 781 868 l 1215 434 l 1215 0 l 1042 0 l 1042 87 l 347 87 l 347 0 l 174 0 m 347 260 l 1042 260 l 1042 347 l 694 694 l 347 347 l 347 260 m 347 1128 l 347 1215 l 521 1215 l 608 1128 l 781 1128 l 868 1215 l 1042 1215 l 1042 1128 l 868 955 l 521 955 l 347 1128 z "},"ă":{"ha":1389,"x_min":347,"x_max":1042,"o":"m 347 130 l 347 391 l 477 521 l 868 521 l 868 608 l 781 694 l 521 694 l 521 868 l 868 868 l 1042 694 l 1042 0 l 477 0 l 347 130 m 347 1128 l 347 1215 l 521 1215 l 608 1128 l 781 1128 l 868 1215 l 1042 1215 l 1042 1128 l 868 955 l 521 955 l 347 1128 m 521 217 l 564 174 l 868 174 l 868 347 l 564 347 l 521 304 l 521 217 z "},"Ą":{"ha":1389,"x_min":174,"x_max":1389,"o":"m 174 174 l 174 781 l 608 1215 l 781 1215 l 1215 781 l 1215 0 l 1042 0 l 1042 -87 l 1389 -87 l 1389 -174 l 955 -174 l 868 -87 l 868 0 l 955 87 l 1042 87 l 1042 434 l 347 434 l 347 174 l 174 174 m 347 608 l 1042 608 l 1042 694 l 694 1042 l 347 694 l 347 608 z "},"ą":{"ha":1389,"x_min":347,"x_max":1215,"o":"m 347 304 l 347 564 l 477 694 l 868 694 l 868 781 l 781 868 l 521 868 l 521 1042 l 868 1042 l 1042 868 l 1042 0 l 868 0 l 868 -87 l 1215 -87 l 1215 -174 l 781 -174 l 694 -87 l 694 0 l 781 87 l 868 87 l 868 174 l 477 174 l 347 304 m 521 391 l 564 347 l 868 347 l 868 521 l 564 521 l 521 477 l 521 391 z "},"Ć":{"ha":1389,"x_min":174,"x_max":1215,"o":"m 174 260 l 174 608 l 434 868 l 955 868 l 1215 608 l 1215 521 l 1042 521 l 868 694 l 521 694 l 347 521 l 347 347 l 521 174 l 868 174 l 1042 347 l 1215 347 l 1215 260 l 955 0 l 434 0 l 174 260 m 608 955 l 608 1042 l 781 1215 l 955 1215 l 955 1128 l 781 955 l 608 955 z "},"ć":{"ha":1389,"x_min":347,"x_max":1042,"o":"m 347 174 l 347 694 l 521 868 l 868 868 l 1042 694 l 1042 608 l 868 608 l 781 694 l 608 694 l 521 608 l 521 260 l 608 174 l 781 174 l 868 260 l 1042 260 l 1042 174 l 868 0 l 521 0 l 347 174 m 608 955 l 608 1042 l 781 1215 l 955 1215 l 955 1128 l 781 955 l 608 955 z "},"Ĉ":{"ha":1389,"x_min":174,"x_max":1215,"o":"m 174 260 l 174 608 l 434 868 l 955 868 l 1215 608 l 1215 521 l 1042 521 l 868 694 l 521 694 l 347 521 l 347 347 l 521 174 l 868 174 l 1042 347 l 1215 347 l 1215 260 l 955 0 l 434 0 l 174 260 m 434 955 l 434 1042 l 608 1215 l 781 1215 l 955 1042 l 955 955 l 781 955 l 694 1042 l 608 955 l 434 955 z "},"ĉ":{"ha":1389,"x_min":347,"x_max":1042,"o":"m 347 174 l 347 694 l 521 868 l 868 868 l 1042 694 l 1042 608 l 868 608 l 781 694 l 608 694 l 521 608 l 521 260 l 608 174 l 781 174 l 868 260 l 1042 260 l 1042 174 l 868 0 l 521 0 l 347 174 m 434 955 l 434 1042 l 608 1215 l 781 1215 l 955 1042 l 955 955 l 781 955 l 694 1042 l 608 955 l 434 955 z "},"Ċ":{"ha":1389,"x_min":174,"x_max":1215,"o":"m 174 260 l 174 608 l 434 868 l 955 868 l 1215 608 l 1215 521 l 1042 521 l 868 694 l 521 694 l 347 521 l 347 347 l 521 174 l 868 174 l 1042 347 l 1215 347 l 1215 260 l 955 0 l 434 0 l 174 260 m 608 1042 l 608 1215 l 781 1215 l 781 1042 l 608 1042 z "},"ċ":{"ha":1389,"x_min":347,"x_max":1042,"o":"m 347 174 l 347 694 l 521 868 l 868 868 l 1042 694 l 1042 608 l 868 608 l 781 694 l 608 694 l 521 608 l 521 260 l 608 174 l 781 174 l 868 260 l 1042 260 l 1042 174 l 868 0 l 521 0 l 347 174 m 608 1042 l 608 1215 l 781 1215 l 781 1042 l 608 1042 z "},"Č":{"ha":1389,"x_min":174,"x_max":1215,"o":"m 174 260 l 174 608 l 434 868 l 955 868 l 1215 608 l 1215 521 l 1042 521 l 868 694 l 521 694 l 347 521 l 347 347 l 521 174 l 868 174 l 1042 347 l 1215 347 l 1215 260 l 955 0 l 434 0 l 174 260 m 434 1128 l 434 1215 l 608 1215 l 694 1128 l 781 1215 l 955 1215 l 955 1128 l 781 955 l 608 955 l 434 1128 z "},"č":{"ha":1389,"x_min":347,"x_max":1042,"o":"m 347 174 l 347 694 l 521 868 l 868 868 l 1042 694 l 1042 608 l 868 608 l 781 694 l 608 694 l 521 608 l 521 260 l 608 174 l 781 174 l 868 260 l 1042 260 l 1042 174 l 868 0 l 521 0 l 347 174 m 434 1128 l 434 1215 l 608 1215 l 694 1128 l 781 1215 l 955 1215 l 955 1128 l 781 955 l 608 955 l 434 1128 z "},"Ď":{"ha":1389,"x_min":174,"x_max":1215,"o":"m 174 0 l 174 868 l 955 868 l 1215 608 l 1215 260 l 955 0 l 174 0 m 347 174 l 868 174 l 1042 347 l 1042 521 l 868 694 l 347 694 l 347 174 m 434 1128 l 434 1215 l 608 1215 l 694 1128 l 781 1215 l 955 1215 l 955 1128 l 781 955 l 608 955 l 434 1128 z "},"ď":{"ha":1389,"x_min":174,"x_max":1215,"o":"m 174 174 l 174 694 l 347 868 l 694 868 l 694 1215 l 868 1215 l 868 0 l 347 0 l 174 174 m 347 260 l 434 174 l 694 174 l 694 694 l 434 694 l 347 608 l 347 260 m 1042 868 l 1042 1215 l 1215 1215 l 1215 955 l 1128 868 l 1042 868 z "},"Đ":{"ha":1389,"x_min":174,"x_max":1215,"o":"m 174 521 l 174 694 l 347 694 l 347 1215 l 868 1215 l 1215 868 l 1215 347 l 868 0 l 347 0 l 347 521 l 174 521 m 521 174 l 781 174 l 1042 434 l 1042 781 l 781 1042 l 521 1042 l 521 694 l 694 694 l 694 521 l 521 521 l 521 174 z "},"đ":{"ha":1389,"x_min":260,"x_max":1128,"o":"m 260 174 l 260 694 l 434 868 l 781 868 l 781 955 l 521 955 l 521 1128 l 781 1128 l 781 1215 l 955 1215 l 955 1128 l 1128 1128 l 1128 955 l 955 955 l 955 0 l 434 0 l 260 174 m 434 260 l 521 174 l 781 174 l 781 694 l 521 694 l 434 608 l 434 260 z "},"Ē":{"ha":1389,"x_min":174,"x_max":1215,"o":"m 174 0 l 174 868 l 1215 868 l 1215 694 l 347 694 l 347 521 l 1042 521 l 1042 347 l 347 347 l 347 174 l 1215 174 l 1215 0 l 174 0 m 434 1042 l 434 1215 l 955 1215 l 955 1042 l 434 1042 z "},"ē":{"ha":1389,"x_min":347,"x_max":1042,"o":"m 347 174 l 347 694 l 521 868 l 868 868 l 1042 694 l 1042 347 l 521 347 l 521 260 l 608 174 l 1042 174 l 1042 0 l 521 0 l 347 174 m 434 1042 l 434 1215 l 955 1215 l 955 1042 l 434 1042 m 521 521 l 868 521 l 868 608 l 781 694 l 608 694 l 521 608 l 521 521 z "},"Ĕ":{"ha":1389,"x_min":174,"x_max":1215,"o":"m 174 0 l 174 868 l 1215 868 l 1215 694 l 347 694 l 347 521 l 1042 521 l 1042 347 l 347 347 l 347 174 l 1215 174 l 1215 0 l 174 0 m 347 1128 l 347 1215 l 521 1215 l 608 1128 l 781 1128 l 868 1215 l 1042 1215 l 1042 1128 l 868 955 l 521 955 l 347 1128 z "},"ĕ":{"ha":1389,"x_min":347,"x_max":1042,"o":"m 347 174 l 347 694 l 521 868 l 868 868 l 1042 694 l 1042 347 l 521 347 l 521 260 l 608 174 l 1042 174 l 1042 0 l 521 0 l 347 174 m 347 1128 l 347 1215 l 521 1215 l 608 1128 l 781 1128 l 868 1215 l 1042 1215 l 1042 1128 l 868 955 l 521 955 l 347 1128 m 521 521 l 868 521 l 868 608 l 781 694 l 608 694 l 521 608 l 521 521 z "},"Ė":{"ha":1389,"x_min":174,"x_max":1215,"o":"m 174 0 l 174 868 l 1215 868 l 1215 694 l 347 694 l 347 521 l 1042 521 l 1042 347 l 347 347 l 347 174 l 1215 174 l 1215 0 l 174 0 m 608 1042 l 608 1215 l 781 1215 l 781 1042 l 608 1042 z "},"ė":{"ha":1389,"x_min":347,"x_max":1042,"o":"m 347 174 l 347 694 l 521 868 l 868 868 l 1042 694 l 1042 347 l 521 347 l 521 260 l 608 174 l 1042 174 l 1042 0 l 521 0 l 347 174 m 521 521 l 868 521 l 868 608 l 781 694 l 608 694 l 521 608 l 521 521 m 608 1042 l 608 1215 l 781 1215 l 781 1042 l 608 1042 z "},"Ę":{"ha":1389,"x_min":174,"x_max":1389,"o":"m 174 174 l 174 1215 l 1215 1215 l 1215 1042 l 347 1042 l 347 781 l 1042 781 l 1042 608 l 347 608 l 347 347 l 1215 347 l 1215 0 l 1042 0 l 1042 -87 l 1389 -87 l 1389 -174 l 955 -174 l 868 -87 l 868 0 l 955 87 l 1042 87 l 1042 174 l 174 174 z "},"ę":{"ha":1389,"x_min":347,"x_max":1215,"o":"m 347 347 l 347 868 l 521 1042 l 868 1042 l 1042 868 l 1042 521 l 521 521 l 521 434 l 608 347 l 1042 347 l 1042 0 l 868 0 l 868 -87 l 1215 -87 l 1215 -174 l 781 -174 l 694 -87 l 694 0 l 781 87 l 868 87 l 868 174 l 521 174 l 347 347 m 521 694 l 868 694 l 868 781 l 781 868 l 608 868 l 521 781 l 521 694 z "},"Ě":{"ha":1389,"x_min":174,"x_max":1215,"o":"m 174 0 l 174 868 l 1215 868 l 1215 694 l 347 694 l 347 521 l 1042 521 l 1042 347 l 347 347 l 347 174 l 1215 174 l 1215 0 l 174 0 m 434 1128 l 434 1215 l 608 1215 l 694 1128 l 781 1215 l 955 1215 l 955 1128 l 781 955 l 608 955 l 434 1128 z "},"ě":{"ha":1389,"x_min":347,"x_max":1042,"o":"m 347 174 l 347 694 l 521 868 l 868 868 l 1042 694 l 1042 347 l 521 347 l 521 260 l 608 174 l 1042 174 l 1042 0 l 521 0 l 347 174 m 434 1128 l 434 1215 l 608 1215 l 694 1128 l 781 1215 l 955 1215 l 955 1128 l 781 955 l 608 955 l 434 1128 m 521 521 l 868 521 l 868 608 l 781 694 l 608 694 l 521 608 l 521 521 z "},"Ĝ":{"ha":1389,"x_min":174,"x_max":1215,"o":"m 174 260 l 174 608 l 434 868 l 1042 868 l 1215 694 l 1215 608 l 1042 608 l 955 694 l 521 694 l 347 521 l 347 347 l 521 174 l 1042 174 l 1042 347 l 694 347 l 694 521 l 1215 521 l 1215 0 l 434 0 l 174 260 m 434 955 l 434 1042 l 608 1215 l 781 1215 l 955 1042 l 955 955 l 781 955 l 694 1042 l 608 955 l 434 955 z "},"ĝ":{"ha":1389,"x_min":174,"x_max":1215,"o":"m 174 -87 l 174 174 l 260 260 l 399 260 l 399 87 l 347 87 l 347 0 l 1042 0 l 1042 87 l 521 87 l 521 260 l 694 434 l 264 434 l 174 521 l 174 781 l 260 868 l 781 868 l 868 781 l 868 608 l 955 608 l 1042 694 l 1042 868 l 1215 868 l 1215 608 l 1042 434 l 868 434 l 868 347 l 781 260 l 1128 260 l 1215 174 l 1215 -87 l 1128 -174 l 260 -174 l 174 -87 m 347 608 l 694 608 l 694 694 l 347 694 l 347 608 m 434 955 l 434 1042 l 608 1215 l 781 1215 l 955 1042 l 955 955 l 781 955 l 694 1042 l 608 955 l 434 955 z "},"Ğ":{"ha":1389,"x_min":174,"x_max":1215,"o":"m 174 260 l 174 608 l 434 868 l 1042 868 l 1215 694 l 1215 608 l 1042 608 l 955 694 l 521 694 l 347 521 l 347 347 l 521 174 l 1042 174 l 1042 347 l 694 347 l 694 521 l 1215 521 l 1215 0 l 434 0 l 174 260 m 347 1128 l 347 1215 l 521 1215 l 608 1128 l 781 1128 l 868 1215 l 1042 1215 l 1042 1128 l 868 955 l 521 955 l 347 1128 z "},"ğ":{"ha":1389,"x_min":174,"x_max":1215,"o":"m 174 -87 l 174 174 l 260 260 l 399 260 l 399 87 l 347 87 l 347 0 l 1042 0 l 1042 87 l 521 87 l 521 260 l 694 434 l 264 434 l 174 521 l 174 781 l 260 868 l 781 868 l 868 781 l 868 608 l 955 608 l 1042 694 l 1042 868 l 1215 868 l 1215 608 l 1042 434 l 868 434 l 868 347 l 781 260 l 1128 260 l 1215 174 l 1215 -87 l 1128 -174 l 260 -174 l 174 -87 m 347 608 l 694 608 l 694 694 l 347 694 l 347 608 m 347 1128 l 347 1215 l 521 1215 l 608 1128 l 781 1128 l 868 1215 l 1042 1215 l 1042 1128 l 868 955 l 521 955 l 347 1128 z "},"Ġ":{"ha":1389,"x_min":174,"x_max":1215,"o":"m 174 260 l 174 608 l 434 868 l 1042 868 l 1215 694 l 1215 608 l 1042 608 l 955 694 l 521 694 l 347 521 l 347 347 l 521 174 l 1042 174 l 1042 347 l 694 347 l 694 521 l 1215 521 l 1215 0 l 434 0 l 174 260 m 608 1042 l 608 1215 l 781 1215 l 781 1042 l 608 1042 z "},"ġ":{"ha":1389,"x_min":174,"x_max":1215,"o":"m 174 -87 l 174 174 l 260 260 l 399 260 l 399 87 l 347 87 l 347 0 l 1042 0 l 1042 87 l 521 87 l 521 260 l 694 434 l 264 434 l 174 521 l 174 781 l 260 868 l 781 868 l 868 781 l 868 608 l 955 608 l 1042 694 l 1042 868 l 1215 868 l 1215 608 l 1042 434 l 868 434 l 868 347 l 781 260 l 1128 260 l 1215 174 l 1215 -87 l 1128 -174 l 260 -174 l 174 -87 m 347 608 l 694 608 l 694 694 l 347 694 l 347 608 m 608 1042 l 608 1215 l 781 1215 l 781 1042 l 608 1042 z "},"Ģ":{"ha":1389,"x_min":174,"x_max":1215,"o":"m 174 434 l 174 955 l 434 1215 l 955 1215 l 1215 955 l 1215 868 l 1042 868 l 868 1042 l 521 1042 l 347 868 l 347 521 l 521 347 l 1042 347 l 1042 608 l 694 608 l 694 781 l 1215 781 l 1215 174 l 434 174 l 174 434 m 608 87 l 781 87 l 781 -87 l 694 -174 l 608 -174 l 608 87 z "},"ģ":{"ha":1389,"x_min":174,"x_max":1215,"o":"m 174 -87 l 174 174 l 260 260 l 399 260 l 399 87 l 347 87 l 347 0 l 1042 0 l 1042 87 l 521 87 l 521 260 l 694 434 l 264 434 l 174 521 l 174 781 l 260 868 l 781 868 l 868 781 l 868 608 l 955 608 l 1042 694 l 1042 868 l 1215 868 l 1215 608 l 1042 434 l 868 434 l 868 347 l 781 260 l 1128 260 l 1215 174 l 1215 -87 l 1128 -174 l 260 -174 l 174 -87 m 347 608 l 694 608 l 694 694 l 347 694 l 347 608 m 608 955 l 608 1128 l 694 1215 l 781 1215 l 781 955 l 608 955 z "},"Ĥ":{"ha":1389,"x_min":174,"x_max":1215,"o":"m 174 0 l 174 868 l 347 868 l 347 521 l 1042 521 l 1042 868 l 1215 868 l 1215 0 l 1042 0 l 1042 347 l 347 347 l 347 0 l 174 0 m 434 955 l 434 1042 l 608 1215 l 781 1215 l 955 1042 l 955 955 l 781 955 l 694 1042 l 608 955 l 434 955 z "},"ĥ":{"ha":1389,"x_min":347,"x_max":1042,"o":"m 347 0 l 347 868 l 521 868 l 521 694 l 868 694 l 1042 521 l 1042 0 l 868 0 l 868 434 l 781 521 l 521 521 l 521 0 l 347 0 m 434 955 l 434 1042 l 608 1215 l 781 1215 l 955 1042 l 955 955 l 781 955 l 694 1042 l 608 955 l 434 955 z "},"Ħ":{"ha":1389,"x_min":174,"x_max":1215,"o":"m 174 868 l 174 1042 l 347 1042 l 347 1215 l 521 1215 l 521 1042 l 868 1042 l 868 1215 l 1042 1215 l 1042 1042 l 1215 1042 l 1215 868 l 1042 868 l 1042 0 l 868 0 l 868 521 l 521 521 l 521 0 l 347 0 l 347 868 l 174 868 m 521 694 l 868 694 l 868 868 l 521 868 l 521 694 z "},"ħ":{"ha":1389,"x_min":260,"x_max":1128,"o":"m 260 955 l 260 1128 l 434 1128 l 434 1215 l 608 1215 l 608 1128 l 868 1128 l 868 955 l 608 955 l 608 868 l 955 868 l 1128 694 l 1128 0 l 955 0 l 955 608 l 868 694 l 608 694 l 608 0 l 434 0 l 434 955 l 260 955 z "},"Ĩ":{"ha":1389,"x_min":347,"x_max":1042,"o":"m 347 0 l 347 174 l 608 174 l 608 694 l 347 694 l 347 868 l 1042 868 l 1042 694 l 781 694 l 781 174 l 1042 174 l 1042 0 l 347 0 m 347 955 l 347 1042 l 521 1215 l 694 1215 l 781 1128 l 868 1215 l 1042 1215 l 1042 1128 l 868 955 l 694 955 l 608 1042 l 521 955 l 347 955 z "},"ĩ":{"ha":1389,"x_min":347,"x_max":1042,"o":"m 347 0 l 347 174 l 608 174 l 608 694 l 347 694 l 347 868 l 781 868 l 781 174 l 1042 174 l 1042 0 l 347 0 m 347 955 l 347 1042 l 521 1215 l 694 1215 l 781 1128 l 868 1215 l 1042 1215 l 1042 1128 l 868 955 l 694 955 l 608 1042 l 521 955 l 347 955 z "},"Ī":{"ha":1389,"x_min":347,"x_max":1042,"o":"m 347 0 l 347 174 l 608 174 l 608 694 l 347 694 l 347 868 l 1042 868 l 1042 694 l 781 694 l 781 174 l 1042 174 l 1042 0 l 347 0 m 434 1042 l 434 1215 l 955 1215 l 955 1042 l 434 1042 z "},"ī":{"ha":1389,"x_min":347,"x_max":1042,"o":"m 347 0 l 347 174 l 608 174 l 608 694 l 347 694 l 347 868 l 781 868 l 781 174 l 1042 174 l 1042 0 l 347 0 m 434 1042 l 434 1215 l 955 1215 l 955 1042 l 434 1042 z "},"Ĭ":{"ha":1389,"x_min":347,"x_max":1042,"o":"m 347 0 l 347 174 l 608 174 l 608 694 l 347 694 l 347 868 l 1042 868 l 1042 694 l 781 694 l 781 174 l 1042 174 l 1042 0 l 347 0 m 347 1128 l 347 1215 l 521 1215 l 608 1128 l 781 1128 l 868 1215 l 1042 1215 l 1042 1128 l 868 955 l 521 955 l 347 1128 z "},"ĭ":{"ha":1389,"x_min":347,"x_max":1042,"o":"m 347 0 l 347 174 l 608 174 l 608 694 l 347 694 l 347 868 l 781 868 l 781 174 l 1042 174 l 1042 0 l 347 0 m 347 1128 l 347 1215 l 521 1215 l 608 1128 l 781 1128 l 868 1215 l 1042 1215 l 1042 1128 l 868 955 l 521 955 l 347 1128 z "},"Į":{"ha":1389,"x_min":347,"x_max":1215,"o":"m 347 174 l 347 347 l 608 347 l 608 1042 l 347 1042 l 347 1215 l 1042 1215 l 1042 1042 l 781 1042 l 781 347 l 1042 347 l 1042 0 l 868 0 l 868 -87 l 1215 -87 l 1215 -174 l 781 -174 l 694 -87 l 694 0 l 781 87 l 868 87 l 868 174 l 347 174 z "},"į":{"ha":1389,"x_min":347,"x_max":1215,"o":"m 347 174 l 347 347 l 608 347 l 608 694 l 347 694 l 347 868 l 781 868 l 781 347 l 1042 347 l 1042 0 l 868 0 l 868 -87 l 1215 -87 l 1215 -174 l 781 -174 l 694 -87 l 694 0 l 781 87 l 868 87 l 868 174 l 347 174 m 608 1042 l 608 1215 l 781 1215 l 781 1042 l 608 1042 z "},"İ":{"ha":1389,"x_min":347,"x_max":1042,"o":"m 347 0 l 347 174 l 608 174 l 608 694 l 347 694 l 347 868 l 1042 868 l 1042 694 l 781 694 l 781 174 l 1042 174 l 1042 0 l 347 0 m 608 1042 l 608 1215 l 781 1215 l 781 1042 l 608 1042 z "},"Ĳ":{"ha":1389,"x_min":174,"x_max":1215,"o":"m 174 347 l 174 521 l 304 521 l 304 1042 l 174 1042 l 174 1215 l 608 1215 l 608 1042 l 477 1042 l 477 521 l 608 521 l 608 347 l 174 347 m 260 174 l 260 260 l 434 260 l 521 174 l 738 174 l 911 347 l 911 1042 l 781 1042 l 781 1215 l 1215 1215 l 1215 1042 l 1085 1042 l 1085 260 l 825 0 l 434 0 l 260 174 z "},"ĳ":{"ha":1389,"x_min":174,"x_max":1215,"o":"m 174 174 l 174 347 l 347 347 l 347 694 l 174 694 l 174 868 l 521 868 l 521 347 l 694 347 l 694 174 l 174 174 m 347 1042 l 347 1215 l 521 1215 l 521 1042 l 347 1042 m 521 0 l 521 87 l 694 87 l 781 0 l 955 0 l 1042 87 l 1042 694 l 694 694 l 694 868 l 1215 868 l 1215 0 l 1042 -174 l 694 -174 l 521 0 m 868 1042 l 868 1215 l 1042 1215 l 1042 1042 l 868 1042 z "},"Ĵ":{"ha":1389,"x_min":174,"x_max":1215,"o":"m 174 174 l 174 260 l 347 260 l 434 174 l 608 174 l 781 347 l 781 694 l 521 694 l 521 868 l 1215 868 l 1215 694 l 955 694 l 955 260 l 694 0 l 347 0 l 174 174 m 608 955 l 608 1042 l 781 1215 l 955 1215 l 1128 1042 l 1128 955 l 955 955 l 868 1042 l 781 955 l 608 955 z "},"ĵ":{"ha":1389,"x_min":347,"x_max":1042,"o":"m 347 0 l 347 87 l 521 87 l 608 0 l 781 0 l 868 87 l 868 694 l 347 694 l 347 868 l 1042 868 l 1042 0 l 868 -174 l 521 -174 l 347 0 m 434 955 l 434 1042 l 608 1215 l 781 1215 l 955 1042 l 955 955 l 781 955 l 694 1042 l 608 955 l 434 955 z "},"Ķ":{"ha":1389,"x_min":174,"x_max":1215,"o":"m 174 174 l 174 1215 l 347 1215 l 347 608 l 955 1215 l 1128 1215 l 1128 1128 l 738 738 l 1215 260 l 1215 174 l 1042 174 l 608 608 l 347 347 l 347 174 l 174 174 m 608 87 l 781 87 l 781 -87 l 694 -174 l 608 -174 l 608 87 z "},"ķ":{"ha":1389,"x_min":347,"x_max":1042,"o":"m 347 174 l 347 1215 l 521 1215 l 521 781 l 781 1042 l 955 1042 l 955 955 l 651 651 l 1042 260 l 1042 174 l 868 174 l 521 521 l 521 174 l 347 174 m 608 87 l 781 87 l 781 -87 l 694 -174 l 608 -174 l 608 87 z "},"ĸ":{"ha":1389,"x_min":347,"x_max":1042,"o":"m 347 0 l 347 868 l 521 868 l 521 608 l 781 868 l 955 868 l 955 781 l 651 477 l 1042 87 l 1042 0 l 868 0 l 521 347 l 521 0 l 347 0 z "},"Ĺ":{"ha":1389,"x_min":174,"x_max":1215,"o":"m 174 0 l 174 868 l 347 868 l 347 174 l 1215 174 l 1215 0 l 174 0 m 174 955 l 174 1042 l 347 1215 l 521 1215 l 521 1128 l 347 955 l 174 955 z "},"ĺ":{"ha":1389,"x_min":260,"x_max":1128,"o":"m 260 0 l 260 174 l 521 174 l 521 1042 l 260 1042 l 260 1215 l 694 1215 l 694 174 l 955 174 l 955 0 l 260 0 m 781 955 l 781 1042 l 955 1215 l 1128 1215 l 1128 1128 l 955 955 l 781 955 z "},"Ļ":{"ha":1389,"x_min":174,"x_max":1215,"o":"m 174 174 l 174 1215 l 347 1215 l 347 347 l 1215 347 l 1215 174 l 174 174 m 608 87 l 781 87 l 781 -87 l 694 -174 l 608 -174 l 608 87 z "},"ļ":{"ha":1389,"x_min":347,"x_max":1042,"o":"m 347 174 l 347 347 l 608 347 l 608 1042 l 347 1042 l 347 1215 l 781 1215 l 781 347 l 1042 347 l 1042 174 l 347 174 m 608 87 l 781 87 l 781 -87 l 694 -174 l 608 -174 l 608 87 z "},"Ľ":{"ha":1389,"x_min":174,"x_max":1215,"o":"m 174 0 l 174 1215 l 347 1215 l 347 174 l 1215 174 l 1215 0 l 174 0 m 1042 868 l 1042 1215 l 1215 1215 l 1215 955 l 1128 868 l 1042 868 z "},"ľ":{"ha":1389,"x_min":347,"x_max":1128,"o":"m 347 0 l 347 174 l 608 174 l 608 1042 l 347 1042 l 347 1215 l 781 1215 l 781 174 l 1042 174 l 1042 0 l 347 0 m 955 868 l 955 1215 l 1128 1215 l 1128 955 l 1042 868 l 955 868 z "},"Ŀ":{"ha":1389,"x_min":174,"x_max":1215,"o":"m 174 0 l 174 1215 l 347 1215 l 347 174 l 1215 174 l 1215 0 l 174 0 m 868 521 l 868 694 l 1042 694 l 1042 521 l 868 521 z "},"ŀ":{"ha":1389,"x_min":347,"x_max":1476,"o":"m 347 0 l 347 174 l 608 174 l 608 1042 l 347 1042 l 347 1215 l 781 1215 l 781 174 l 1042 174 l 1042 0 l 347 0 m 1302 521 l 1302 694 l 1476 694 l 1476 521 l 1302 521 z "},"Ł":{"ha":1389,"x_min":174,"x_max":1215,"o":"m 174 347 l 174 521 l 347 694 l 347 1215 l 521 1215 l 521 868 l 608 955 l 694 955 l 694 781 l 521 608 l 521 174 l 1215 174 l 1215 0 l 347 0 l 347 434 l 260 347 l 174 347 z "},"ł":{"ha":1389,"x_min":347,"x_max":1042,"o":"m 347 0 l 347 174 l 608 174 l 608 434 l 521 347 l 434 347 l 434 521 l 608 694 l 608 1042 l 347 1042 l 347 1215 l 781 1215 l 781 868 l 868 955 l 955 955 l 955 781 l 781 608 l 781 174 l 1042 174 l 1042 0 l 347 0 z "},"Ń":{"ha":1389,"x_min":174,"x_max":1215,"o":"m 174 0 l 174 868 l 391 868 l 1042 217 l 1042 868 l 1215 868 l 1215 0 l 998 0 l 347 651 l 347 0 l 174 0 m 608 955 l 608 1042 l 781 1215 l 955 1215 l 955 1128 l 781 955 l 608 955 z "},"ń":{"ha":1389,"x_min":347,"x_max":1042,"o":"m 347 0 l 347 868 l 868 868 l 1042 694 l 1042 0 l 868 0 l 868 608 l 781 694 l 521 694 l 521 0 l 347 0 m 608 955 l 608 1042 l 781 1215 l 955 1215 l 955 1128 l 781 955 l 608 955 z "},"Ņ":{"ha":1389,"x_min":174,"x_max":1215,"o":"m 174 174 l 174 1215 l 347 1215 l 347 1172 l 1042 477 l 1042 1215 l 1215 1215 l 1215 174 l 1042 174 l 1042 217 l 347 911 l 347 174 l 174 174 m 608 87 l 781 87 l 781 -87 l 694 -174 l 608 -174 l 608 87 z "},"ņ":{"ha":1389,"x_min":347,"x_max":1042,"o":"m 347 174 l 347 1042 l 868 1042 l 1042 868 l 1042 174 l 868 174 l 868 781 l 781 868 l 521 868 l 521 174 l 347 174 m 608 87 l 781 87 l 781 -87 l 694 -174 l 608 -174 l 608 87 z "},"Ň":{"ha":1389,"x_min":174,"x_max":1215,"o":"m 174 0 l 174 868 l 391 868 l 1042 217 l 1042 868 l 1215 868 l 1215 0 l 998 0 l 347 651 l 347 0 l 174 0 m 434 1128 l 434 1215 l 608 1215 l 694 1128 l 781 1215 l 955 1215 l 955 1128 l 781 955 l 608 955 l 434 1128 z "},"ň":{"ha":1389,"x_min":347,"x_max":1042,"o":"m 347 0 l 347 868 l 868 868 l 1042 694 l 1042 0 l 868 0 l 868 608 l 781 694 l 521 694 l 521 0 l 347 0 m 434 1128 l 434 1215 l 608 1215 l 694 1128 l 781 1215 l 955 1215 l 955 1128 l 781 955 l 608 955 l 434 1128 z "},"ŉ":{"ha":1389,"x_min":174,"x_max":1215,"o":"m 174 868 l 174 1215 l 347 1215 l 347 955 l 260 868 l 174 868 m 521 0 l 521 868 l 1042 868 l 1215 694 l 1215 0 l 1042 0 l 1042 608 l 955 694 l 694 694 l 694 0 l 521 0 z "},"Ŋ":{"ha":1389,"x_min":174,"x_max":1215,"o":"m 174 0 l 174 1215 l 347 1215 l 347 1085 l 1042 391 l 1042 1215 l 1215 1215 l 1215 0 l 1042 -174 l 868 -174 l 868 0 l 955 0 l 1042 87 l 1042 130 l 347 825 l 347 0 l 174 0 z "},"ŋ":{"ha":1389,"x_min":347,"x_max":1042,"o":"m 347 0 l 347 868 l 868 868 l 1042 694 l 1042 0 l 868 -174 l 694 -174 l 694 0 l 781 0 l 868 87 l 868 608 l 781 694 l 521 694 l 521 0 l 347 0 z "},"Ō":{"ha":1389,"x_min":174,"x_max":1215,"o":"m 174 260 l 174 608 l 434 868 l 955 868 l 1215 608 l 1215 260 l 955 0 l 434 0 l 174 260 m 347 347 l 521 174 l 868 174 l 1042 347 l 1042 521 l 868 694 l 521 694 l 347 521 l 347 347 m 434 1042 l 434 1215 l 955 1215 l 955 1042 l 434 1042 z "},"ō":{"ha":1389,"x_min":347,"x_max":1042,"o":"m 347 174 l 347 694 l 521 868 l 868 868 l 1042 694 l 1042 174 l 868 0 l 521 0 l 347 174 m 434 1042 l 434 1215 l 955 1215 l 955 1042 l 434 1042 m 521 260 l 608 174 l 781 174 l 868 260 l 868 608 l 781 694 l 608 694 l 521 608 l 521 260 z "},"Ŏ":{"ha":1389,"x_min":174,"x_max":1215,"o":"m 174 260 l 174 608 l 434 868 l 955 868 l 1215 608 l 1215 260 l 955 0 l 434 0 l 174 260 m 347 347 l 521 174 l 868 174 l 1042 347 l 1042 521 l 868 694 l 521 694 l 347 521 l 347 347 m 347 1128 l 347 1215 l 521 1215 l 608 1128 l 781 1128 l 868 1215 l 1042 1215 l 1042 1128 l 868 955 l 521 955 l 347 1128 z "},"ŏ":{"ha":1389,"x_min":347,"x_max":1042,"o":"m 347 174 l 347 694 l 521 868 l 868 868 l 1042 694 l 1042 174 l 868 0 l 521 0 l 347 174 m 347 1128 l 347 1215 l 521 1215 l 608 1128 l 781 1128 l 868 1215 l 1042 1215 l 1042 1128 l 868 955 l 521 955 l 347 1128 m 521 260 l 608 174 l 781 174 l 868 260 l 868 608 l 781 694 l 608 694 l 521 608 l 521 260 z "},"Ő":{"ha":1389,"x_min":174,"x_max":1215,"o":"m 174 260 l 174 608 l 434 868 l 955 868 l 1215 608 l 1215 260 l 955 0 l 434 0 l 174 260 m 347 347 l 521 174 l 868 174 l 1042 347 l 1042 521 l 868 694 l 521 694 l 347 521 l 347 347 m 347 955 l 347 1042 l 521 1215 l 694 1215 l 694 1128 l 521 955 l 347 955 m 868 955 l 868 1042 l 1042 1215 l 1215 1215 l 1215 1128 l 1042 955 l 868 955 z "},"ő":{"ha":1389,"x_min":347,"x_max":1215,"o":"m 347 174 l 347 694 l 521 868 l 868 868 l 1042 694 l 1042 174 l 868 0 l 521 0 l 347 174 m 347 955 l 347 1042 l 521 1215 l 694 1215 l 694 1128 l 521 955 l 347 955 m 521 260 l 608 174 l 781 174 l 868 260 l 868 608 l 781 694 l 608 694 l 521 608 l 521 260 m 868 955 l 868 1042 l 1042 1215 l 1215 1215 l 1215 1128 l 1042 955 l 868 955 z "},"Ŕ":{"ha":1389,"x_min":174,"x_max":1215,"o":"m 174 0 l 174 868 l 1085 868 l 1215 738 l 1215 477 l 1085 347 l 868 347 l 1042 174 l 1215 174 l 1215 0 l 955 0 l 608 347 l 347 347 l 347 0 l 174 0 m 347 521 l 998 521 l 1042 564 l 1042 651 l 998 694 l 347 694 l 347 521 m 608 955 l 608 1042 l 781 1215 l 955 1215 l 955 1128 l 781 955 l 608 955 z "},"ŕ":{"ha":1389,"x_min":347,"x_max":1042,"o":"m 347 0 l 347 868 l 521 868 l 521 608 l 781 868 l 1042 868 l 1042 694 l 868 694 l 521 347 l 521 0 l 347 0 m 608 955 l 608 1042 l 781 1215 l 955 1215 l 955 1128 l 781 955 l 608 955 z "},"Ŗ":{"ha":1389,"x_min":174,"x_max":1215,"o":"m 174 174 l 174 1215 l 1042 1215 l 1215 1042 l 1215 781 l 1042 608 l 868 608 l 1215 260 l 1215 174 l 1042 174 l 608 608 l 347 608 l 347 174 l 174 174 m 347 781 l 955 781 l 1042 868 l 1042 955 l 955 1042 l 347 1042 l 347 781 m 608 87 l 781 87 l 781 -87 l 694 -174 l 608 -174 l 608 87 z "},"ŗ":{"ha":1389,"x_min":347,"x_max":1042,"o":"m 347 174 l 347 1042 l 521 1042 l 521 781 l 781 1042 l 1042 1042 l 1042 868 l 868 868 l 521 521 l 521 174 l 347 174 m 608 87 l 781 87 l 781 -87 l 694 -174 l 608 -174 l 608 87 z "},"Ř":{"ha":1389,"x_min":174,"x_max":1215,"o":"m 174 0 l 174 868 l 1085 868 l 1215 738 l 1215 477 l 1085 347 l 868 347 l 1042 174 l 1215 174 l 1215 0 l 955 0 l 608 347 l 347 347 l 347 0 l 174 0 m 347 521 l 998 521 l 1042 564 l 1042 651 l 998 694 l 347 694 l 347 521 m 434 1128 l 434 1215 l 608 1215 l 694 1128 l 781 1215 l 955 1215 l 955 1128 l 781 955 l 608 955 l 434 1128 z "},"ř":{"ha":1389,"x_min":347,"x_max":1042,"o":"m 347 0 l 347 868 l 521 868 l 521 608 l 781 868 l 1042 868 l 1042 694 l 868 694 l 521 347 l 521 0 l 347 0 m 434 1128 l 434 1215 l 608 1215 l 694 1128 l 781 1215 l 955 1215 l 955 1128 l 781 955 l 608 955 l 434 1128 z "},"Ś":{"ha":1389,"x_min":174,"x_max":1215,"o":"m 174 174 l 174 260 l 347 260 l 434 174 l 998 174 l 1042 217 l 1042 304 l 998 347 l 304 347 l 174 477 l 174 738 l 304 868 l 1042 868 l 1215 694 l 1215 608 l 1042 608 l 955 694 l 391 694 l 347 651 l 347 564 l 391 521 l 1085 521 l 1215 391 l 1215 130 l 1085 0 l 347 0 l 174 174 m 608 955 l 608 1042 l 781 1215 l 955 1215 l 955 1128 l 781 955 l 608 955 z "},"ś":{"ha":1389,"x_min":347,"x_max":1042,"o":"m 347 0 l 347 174 l 825 174 l 868 217 l 868 304 l 825 347 l 477 347 l 347 477 l 347 738 l 477 868 l 1042 868 l 1042 694 l 564 694 l 521 651 l 521 564 l 564 521 l 911 521 l 1042 391 l 1042 130 l 911 0 l 347 0 m 608 955 l 608 1042 l 781 1215 l 955 1215 l 955 1128 l 781 955 l 608 955 z "},"Ŝ":{"ha":1389,"x_min":174,"x_max":1215,"o":"m 174 174 l 174 260 l 347 260 l 434 174 l 998 174 l 1042 217 l 1042 304 l 998 347 l 304 347 l 174 477 l 174 738 l 304 868 l 1042 868 l 1215 694 l 1215 608 l 1042 608 l 955 694 l 391 694 l 347 651 l 347 564 l 391 521 l 1085 521 l 1215 391 l 1215 130 l 1085 0 l 347 0 l 174 174 m 434 955 l 434 1042 l 608 1215 l 781 1215 l 955 1042 l 955 955 l 781 955 l 694 1042 l 608 955 l 434 955 z "},"ŝ":{"ha":1389,"x_min":347,"x_max":1042,"o":"m 347 0 l 347 174 l 825 174 l 868 217 l 868 304 l 825 347 l 477 347 l 347 477 l 347 738 l 477 868 l 1042 868 l 1042 694 l 564 694 l 521 651 l 521 564 l 564 521 l 911 521 l 1042 391 l 1042 130 l 911 0 l 347 0 m 434 955 l 434 1042 l 608 1215 l 781 1215 l 955 1042 l 955 955 l 781 955 l 694 1042 l 608 955 l 434 955 z "},"Ş":{"ha":1389,"x_min":174,"x_max":1215,"o":"m 174 347 l 174 434 l 347 434 l 434 347 l 955 347 l 1042 434 l 1042 521 l 955 608 l 347 608 l 174 781 l 174 1042 l 347 1215 l 1042 1215 l 1215 1042 l 1215 955 l 1042 955 l 955 1042 l 434 1042 l 347 955 l 347 868 l 434 781 l 1042 781 l 1215 608 l 1215 347 l 1042 174 l 781 174 l 781 87 l 868 87 l 955 0 l 955 -87 l 868 -174 l 434 -174 l 434 -87 l 781 -87 l 781 0 l 608 0 l 608 174 l 347 174 l 174 347 z "},"ş":{"ha":1389,"x_min":347,"x_max":1042,"o":"m 347 174 l 347 347 l 825 347 l 868 391 l 868 477 l 825 521 l 477 521 l 347 651 l 347 911 l 477 1042 l 1042 1042 l 1042 868 l 564 868 l 521 825 l 521 738 l 564 694 l 911 694 l 1042 564 l 1042 304 l 911 174 l 781 174 l 781 87 l 868 87 l 955 0 l 955 -87 l 868 -174 l 434 -174 l 434 -87 l 781 -87 l 781 0 l 608 0 l 608 174 l 347 174 z "},"Š":{"ha":1389,"x_min":174,"x_max":1215,"o":"m 174 174 l 174 260 l 347 260 l 434 174 l 998 174 l 1042 217 l 1042 304 l 998 347 l 304 347 l 174 477 l 174 738 l 304 868 l 1042 868 l 1215 694 l 1215 608 l 1042 608 l 955 694 l 391 694 l 347 651 l 347 564 l 391 521 l 1085 521 l 1215 391 l 1215 130 l 1085 0 l 347 0 l 174 174 m 434 1128 l 434 1215 l 608 1215 l 694 1128 l 781 1215 l 955 1215 l 955 1128 l 781 955 l 608 955 l 434 1128 z "},"š":{"ha":1389,"x_min":347,"x_max":1042,"o":"m 347 0 l 347 174 l 825 174 l 868 217 l 868 304 l 825 347 l 477 347 l 347 477 l 347 738 l 477 868 l 1042 868 l 1042 694 l 564 694 l 521 651 l 521 564 l 564 521 l 911 521 l 1042 391 l 1042 130 l 911 0 l 347 0 m 434 1128 l 434 1215 l 608 1215 l 694 1128 l 781 1215 l 955 1215 l 955 1128 l 781 955 l 608 955 l 434 1128 z "},"Ţ":{"ha":1389,"x_min":174,"x_max":1215,"o":"m 174 1042 l 174 1215 l 1215 1215 l 1215 1042 l 781 1042 l 781 87 l 868 87 l 955 0 l 955 -87 l 868 -174 l 434 -174 l 434 -87 l 781 -87 l 781 0 l 608 0 l 608 1042 l 174 1042 z "},"ţ":{"ha":1389,"x_min":347,"x_max":1042,"o":"m 347 694 l 347 868 l 608 868 l 608 1215 l 781 1215 l 781 868 l 1042 868 l 1042 694 l 781 694 l 781 87 l 868 87 l 955 0 l 955 -87 l 868 -174 l 434 -174 l 434 -87 l 781 -87 l 781 0 l 608 0 l 608 694 l 347 694 z "},"Ť":{"ha":1389,"x_min":174,"x_max":1215,"o":"m 174 694 l 174 868 l 1215 868 l 1215 694 l 781 694 l 781 0 l 608 0 l 608 694 l 174 694 m 434 1128 l 434 1215 l 608 1215 l 694 1128 l 781 1215 l 955 1215 l 955 1128 l 781 955 l 608 955 l 434 1128 z "},"ť":{"ha":1389,"x_min":174,"x_max":1215,"o":"m 174 694 l 174 868 l 434 868 l 434 1215 l 608 1215 l 608 868 l 868 868 l 868 694 l 608 694 l 608 0 l 434 0 l 434 694 l 174 694 m 1042 868 l 1042 1215 l 1215 1215 l 1215 955 l 1128 868 l 1042 868 z "},"Ŧ":{"ha":1389,"x_min":174,"x_max":1215,"o":"m 174 1042 l 174 1215 l 1215 1215 l 1215 1042 l 781 1042 l 781 694 l 1042 694 l 1042 521 l 781 521 l 781 0 l 608 0 l 608 521 l 347 521 l 347 694 l 608 694 l 608 1042 l 174 1042 z "},"ŧ":{"ha":1389,"x_min":347,"x_max":1042,"o":"m 347 347 l 347 521 l 608 521 l 608 694 l 347 694 l 347 868 l 608 868 l 608 1215 l 781 1215 l 781 868 l 1042 868 l 1042 694 l 781 694 l 781 521 l 1042 521 l 1042 347 l 781 347 l 781 0 l 608 0 l 608 347 l 347 347 z "},"Ũ":{"ha":1389,"x_min":174,"x_max":1215,"o":"m 174 260 l 174 868 l 347 868 l 347 347 l 521 174 l 868 174 l 1042 347 l 1042 868 l 1215 868 l 1215 260 l 955 0 l 434 0 l 174 260 m 347 955 l 347 1042 l 521 1215 l 694 1215 l 781 1128 l 868 1215 l 1042 1215 l 1042 1128 l 868 955 l 694 955 l 608 1042 l 521 955 l 347 955 z "},"ũ":{"ha":1389,"x_min":347,"x_max":1042,"o":"m 347 174 l 347 868 l 521 868 l 521 260 l 608 174 l 868 174 l 868 868 l 1042 868 l 1042 0 l 521 0 l 347 174 m 347 955 l 347 1042 l 521 1215 l 694 1215 l 781 1128 l 868 1215 l 1042 1215 l 1042 1128 l 868 955 l 694 955 l 608 1042 l 521 955 l 347 955 z "},"Ū":{"ha":1389,"x_min":174,"x_max":1215,"o":"m 174 260 l 174 868 l 347 868 l 347 347 l 521 174 l 868 174 l 1042 347 l 1042 868 l 1215 868 l 1215 260 l 955 0 l 434 0 l 174 260 m 434 1042 l 434 1215 l 955 1215 l 955 1042 l 434 1042 z "},"ū":{"ha":1389,"x_min":347,"x_max":1042,"o":"m 347 174 l 347 868 l 521 868 l 521 260 l 608 174 l 868 174 l 868 868 l 1042 868 l 1042 0 l 521 0 l 347 174 m 434 1042 l 434 1215 l 955 1215 l 955 1042 l 434 1042 z "},"Ŭ":{"ha":1389,"x_min":174,"x_max":1215,"o":"m 174 260 l 174 868 l 347 868 l 347 347 l 521 174 l 868 174 l 1042 347 l 1042 868 l 1215 868 l 1215 260 l 955 0 l 434 0 l 174 260 m 347 1128 l 347 1215 l 521 1215 l 608 1128 l 781 1128 l 868 1215 l 1042 1215 l 1042 1128 l 868 955 l 521 955 l 347 1128 z "},"ŭ":{"ha":1389,"x_min":347,"x_max":1042,"o":"m 347 174 l 347 868 l 521 868 l 521 260 l 608 174 l 868 174 l 868 868 l 1042 868 l 1042 0 l 521 0 l 347 174 m 347 1128 l 347 1215 l 521 1215 l 608 1128 l 781 1128 l 868 1215 l 1042 1215 l 1042 1128 l 868 955 l 521 955 l 347 1128 z "},"Ů":{"ha":1389,"x_min":174,"x_max":1215,"o":"m 174 260 l 174 868 l 347 868 l 347 347 l 521 174 l 868 174 l 1042 347 l 1042 868 l 1215 868 l 1215 260 l 955 0 l 434 0 l 174 260 m 434 1042 l 434 1128 l 521 1215 l 868 1215 l 955 1128 l 955 1042 l 868 955 l 521 955 l 434 1042 m 608 1042 l 781 1042 l 781 1128 l 608 1128 l 608 1042 z "},"ů":{"ha":1389,"x_min":347,"x_max":1042,"o":"m 347 174 l 347 868 l 521 868 l 521 260 l 608 174 l 868 174 l 868 868 l 1042 868 l 1042 0 l 521 0 l 347 174 m 434 1042 l 434 1128 l 521 1215 l 868 1215 l 955 1128 l 955 1042 l 868 955 l 521 955 l 434 1042 m 608 1042 l 781 1042 l 781 1128 l 608 1128 l 608 1042 z "},"Ű":{"ha":1389,"x_min":174,"x_max":1215,"o":"m 174 260 l 174 868 l 347 868 l 347 347 l 521 174 l 868 174 l 1042 347 l 1042 868 l 1215 868 l 1215 260 l 955 0 l 434 0 l 174 260 m 347 955 l 347 1042 l 521 1215 l 694 1215 l 694 1128 l 521 955 l 347 955 m 868 955 l 868 1042 l 1042 1215 l 1215 1215 l 1215 1128 l 1042 955 l 868 955 z "},"ű":{"ha":1389,"x_min":347,"x_max":1215,"o":"m 347 174 l 347 868 l 521 868 l 521 260 l 608 174 l 868 174 l 868 868 l 1042 868 l 1042 0 l 521 0 l 347 174 m 347 955 l 347 1042 l 521 1215 l 694 1215 l 694 1128 l 521 955 l 347 955 m 868 955 l 868 1042 l 1042 1215 l 1215 1215 l 1215 1128 l 1042 955 l 868 955 z "},"Ų":{"ha":1389,"x_min":174,"x_max":1215,"o":"m 174 434 l 174 1215 l 347 1215 l 347 521 l 521 347 l 868 347 l 1042 521 l 1042 1215 l 1215 1215 l 1215 434 l 955 174 l 955 0 l 781 0 l 781 -87 l 1128 -87 l 1128 -174 l 694 -174 l 608 -87 l 608 0 l 694 87 l 781 87 l 781 174 l 434 174 l 174 434 z "},"ų":{"ha":1389,"x_min":347,"x_max":1215,"o":"m 347 347 l 347 1042 l 521 1042 l 521 434 l 608 347 l 868 347 l 868 1042 l 1042 1042 l 1042 0 l 868 0 l 868 -87 l 1215 -87 l 1215 -174 l 781 -174 l 694 -87 l 694 0 l 781 87 l 868 87 l 868 174 l 521 174 l 347 347 z "},"Ŵ":{"ha":1389,"x_min":174,"x_max":1215,"o":"m 174 0 l 174 868 l 347 868 l 347 260 l 608 521 l 608 781 l 781 781 l 781 521 l 1042 260 l 1042 868 l 1215 868 l 1215 0 l 1042 0 l 694 347 l 347 0 l 174 0 m 434 955 l 434 1042 l 608 1215 l 781 1215 l 955 1042 l 955 955 l 781 955 l 694 1042 l 608 955 l 434 955 z "},"ŵ":{"ha":1389,"x_min":174,"x_max":1215,"o":"m 174 174 l 174 868 l 347 868 l 347 260 l 434 174 l 608 174 l 608 868 l 781 868 l 781 174 l 955 174 l 1042 260 l 1042 868 l 1215 868 l 1215 174 l 1042 0 l 347 0 l 174 174 m 434 955 l 434 1042 l 608 1215 l 781 1215 l 955 1042 l 955 955 l 781 955 l 694 1042 l 608 955 l 434 955 z "},"Ŷ":{"ha":1389,"x_min":174,"x_max":1215,"o":"m 174 781 l 174 868 l 347 868 l 694 521 l 1042 868 l 1215 868 l 1215 781 l 781 347 l 781 0 l 608 0 l 608 347 l 174 781 m 434 955 l 434 1042 l 608 1215 l 781 1215 l 955 1042 l 955 955 l 781 955 l 694 1042 l 608 955 l 434 955 z "},"ŷ":{"ha":1389,"x_min":347,"x_max":1042,"o":"m 347 -87 l 564 130 l 347 347 l 347 868 l 521 868 l 521 434 l 694 260 l 868 434 l 868 868 l 1042 868 l 1042 347 l 521 -174 l 347 -174 l 347 -87 m 434 955 l 434 1042 l 608 1215 l 781 1215 l 955 1042 l 955 955 l 781 955 l 694 1042 l 608 955 l 434 955 z "},"Ź":{"ha":1389,"x_min":174,"x_max":1215,"o":"m 174 0 l 174 43 l 825 694 l 174 694 l 174 868 l 1215 868 l 1215 825 l 564 174 l 1215 174 l 1215 0 l 174 0 m 608 955 l 608 1042 l 781 1215 l 955 1215 l 955 1128 l 781 955 l 608 955 z "},"ź":{"ha":1389,"x_min":347,"x_max":1042,"o":"m 347 0 l 347 217 l 825 694 l 347 694 l 347 868 l 1042 868 l 1042 651 l 564 174 l 1042 174 l 1042 0 l 347 0 m 608 955 l 608 1042 l 781 1215 l 955 1215 l 955 1128 l 781 955 l 608 955 z "},"Ż":{"ha":1389,"x_min":174,"x_max":1215,"o":"m 174 0 l 174 43 l 825 694 l 174 694 l 174 868 l 1215 868 l 1215 825 l 564 174 l 1215 174 l 1215 0 l 174 0 m 608 1042 l 608 1215 l 781 1215 l 781 1042 l 608 1042 z "},"ż":{"ha":1389,"x_min":347,"x_max":1042,"o":"m 347 0 l 347 217 l 825 694 l 347 694 l 347 868 l 1042 868 l 1042 651 l 564 174 l 1042 174 l 1042 0 l 347 0 m 608 1042 l 608 1215 l 781 1215 l 781 1042 l 608 1042 z "},"Ž":{"ha":1389,"x_min":174,"x_max":1215,"o":"m 174 0 l 174 43 l 825 694 l 174 694 l 174 868 l 1215 868 l 1215 825 l 564 174 l 1215 174 l 1215 0 l 174 0 m 434 1128 l 434 1215 l 608 1215 l 694 1128 l 781 1215 l 955 1215 l 955 1128 l 781 955 l 608 955 l 434 1128 z "},"ž":{"ha":1389,"x_min":347,"x_max":1042,"o":"m 347 0 l 347 217 l 825 694 l 347 694 l 347 868 l 1042 868 l 1042 651 l 564 174 l 1042 174 l 1042 0 l 347 0 m 434 1128 l 434 1215 l 608 1215 l 694 1128 l 781 1215 l 955 1215 l 955 1128 l 781 955 l 608 955 l 434 1128 z "},"ſ":{"ha":1389,"x_min":347,"x_max":1042,"o":"m 347 0 l 347 174 l 608 174 l 608 694 l 347 694 l 347 868 l 608 868 l 608 1042 l 781 1215 l 1042 1215 l 1042 1042 l 868 1042 l 781 955 l 781 174 l 1042 174 l 1042 0 l 347 0 z "},"ẞ":{"ha":1389,"x_min":174,"x_max":1215,"o":"m 174 0 l 174 955 l 434 1215 l 1215 1215 l 1215 955 l 955 694 l 1215 434 l 1215 174 l 1042 0 l 521 0 l 521 174 l 955 174 l 1042 260 l 1042 347 l 868 521 l 694 521 l 694 694 l 1042 1042 l 521 1042 l 347 868 l 347 0 l 174 0 z "},"Ḃ":{"ha":1389,"x_min":174,"x_max":1215,"o":"m 174 0 l 174 868 l 1085 868 l 1215 738 l 1215 521 l 1128 434 l 1215 347 l 1215 130 l 1085 0 l 174 0 m 347 174 l 998 174 l 1042 217 l 1042 260 l 955 347 l 347 347 l 347 174 m 347 521 l 955 521 l 1042 608 l 1042 651 l 998 694 l 347 694 l 347 521 m 608 1042 l 608 1215 l 781 1215 l 781 1042 l 608 1042 z "},"ḃ":{"ha":1389,"x_min":347,"x_max":1042,"o":"m 347 0 l 347 1215 l 521 1215 l 521 868 l 868 868 l 1042 694 l 1042 174 l 868 0 l 347 0 m 521 174 l 781 174 l 868 260 l 868 608 l 781 694 l 521 694 l 521 174 m 608 1042 l 608 1215 l 781 1215 l 781 1042 l 608 1042 z "},"Ḋ":{"ha":1389,"x_min":174,"x_max":1215,"o":"m 174 0 l 174 868 l 955 868 l 1215 608 l 1215 260 l 955 0 l 174 0 m 347 174 l 868 174 l 1042 347 l 1042 521 l 868 694 l 347 694 l 347 174 m 608 1042 l 608 1215 l 781 1215 l 781 1042 l 608 1042 z "},"ḋ":{"ha":1389,"x_min":347,"x_max":1042,"o":"m 347 174 l 347 694 l 521 868 l 868 868 l 868 1215 l 1042 1215 l 1042 0 l 521 0 l 347 174 m 521 260 l 608 174 l 868 174 l 868 694 l 608 694 l 521 608 l 521 260 m 608 1042 l 608 1215 l 781 1215 l 781 1042 l 608 1042 z "},"Ḟ":{"ha":1389,"x_min":174,"x_max":1215,"o":"m 174 0 l 174 868 l 1215 868 l 1215 694 l 347 694 l 347 521 l 1042 521 l 1042 347 l 347 347 l 347 0 l 174 0 m 608 1042 l 608 1215 l 781 1215 l 781 1042 l 608 1042 z "},"ḟ":{"ha":1389,"x_min":347,"x_max":1042,"o":"m 347 434 l 347 608 l 608 608 l 608 781 l 694 868 l 1042 868 l 1042 694 l 781 694 l 781 608 l 1042 608 l 1042 434 l 781 434 l 781 0 l 608 0 l 608 434 l 347 434 m 608 1042 l 608 1215 l 781 1215 l 781 1042 l 608 1042 z "},"Ṁ":{"ha":1389,"x_min":174,"x_max":1215,"o":"m 174 0 l 174 868 l 347 868 l 694 521 l 1042 868 l 1215 868 l 1215 0 l 1042 0 l 1042 608 l 781 347 l 781 87 l 608 87 l 608 347 l 347 608 l 347 0 l 174 0 m 608 1042 l 608 1215 l 781 1215 l 781 1042 l 608 1042 z "},"ṁ":{"ha":1389,"x_min":174,"x_max":1215,"o":"m 174 0 l 174 868 l 1042 868 l 1215 694 l 1215 0 l 1042 0 l 1042 608 l 955 694 l 781 694 l 781 0 l 608 0 l 608 694 l 347 694 l 347 0 l 174 0 m 608 1042 l 608 1215 l 781 1215 l 781 1042 l 608 1042 z "},"Ṗ":{"ha":1389,"x_min":174,"x_max":1215,"o":"m 174 0 l 174 868 l 1085 868 l 1215 738 l 1215 477 l 1085 347 l 347 347 l 347 0 l 174 0 m 347 521 l 998 521 l 1042 564 l 1042 651 l 998 694 l 347 694 l 347 521 m 608 1042 l 608 1215 l 781 1215 l 781 1042 l 608 1042 z "},"ṗ":{"ha":1389,"x_min":347,"x_max":1042,"o":"m 347 -174 l 347 868 l 868 868 l 1042 694 l 1042 347 l 868 174 l 521 174 l 521 -174 l 347 -174 m 521 347 l 781 347 l 868 434 l 868 608 l 781 694 l 521 694 l 521 347 m 608 1042 l 608 1215 l 781 1215 l 781 1042 l 608 1042 z "},"Ṡ":{"ha":1389,"x_min":174,"x_max":1215,"o":"m 174 174 l 174 260 l 347 260 l 434 174 l 998 174 l 1042 217 l 1042 304 l 998 347 l 304 347 l 174 477 l 174 738 l 304 868 l 1042 868 l 1215 694 l 1215 608 l 1042 608 l 955 694 l 391 694 l 347 651 l 347 564 l 391 521 l 1085 521 l 1215 391 l 1215 130 l 1085 0 l 347 0 l 174 174 m 608 1042 l 608 1215 l 781 1215 l 781 1042 l 608 1042 z "},"ṡ":{"ha":1389,"x_min":347,"x_max":1042,"o":"m 347 0 l 347 174 l 825 174 l 868 217 l 868 304 l 825 347 l 477 347 l 347 477 l 347 738 l 477 868 l 1042 868 l 1042 694 l 564 694 l 521 651 l 521 564 l 564 521 l 911 521 l 1042 391 l 1042 130 l 911 0 l 347 0 m 608 1042 l 608 1215 l 781 1215 l 781 1042 l 608 1042 z "},"Ṫ":{"ha":1389,"x_min":174,"x_max":1215,"o":"m 174 694 l 174 868 l 1215 868 l 1215 694 l 781 694 l 781 0 l 608 0 l 608 694 l 174 694 m 608 1042 l 608 1215 l 781 1215 l 781 1042 l 608 1042 z "},"ṫ":{"ha":1389,"x_min":347,"x_max":1042,"o":"m 347 434 l 347 608 l 608 608 l 608 868 l 781 868 l 781 608 l 1042 608 l 1042 434 l 781 434 l 781 0 l 608 0 l 608 434 l 347 434 m 608 1042 l 608 1215 l 781 1215 l 781 1042 l 608 1042 z "},"Ẁ":{"ha":1389,"x_min":174,"x_max":1215,"o":"m 174 0 l 174 868 l 347 868 l 347 260 l 608 521 l 608 781 l 781 781 l 781 521 l 1042 260 l 1042 868 l 1215 868 l 1215 0 l 1042 0 l 694 347 l 347 0 l 174 0 m 434 1128 l 434 1215 l 608 1215 l 781 1042 l 781 955 l 608 955 l 434 1128 z "},"ẁ":{"ha":1389,"x_min":174,"x_max":1215,"o":"m 174 174 l 174 868 l 347 868 l 347 260 l 434 174 l 608 174 l 608 868 l 781 868 l 781 174 l 955 174 l 1042 260 l 1042 868 l 1215 868 l 1215 174 l 1042 0 l 347 0 l 174 174 m 434 1128 l 434 1215 l 608 1215 l 781 1042 l 781 955 l 608 955 l 434 1128 z "},"Ẃ":{"ha":1389,"x_min":174,"x_max":1215,"o":"m 174 0 l 174 868 l 347 868 l 347 260 l 608 521 l 608 781 l 781 781 l 781 521 l 1042 260 l 1042 868 l 1215 868 l 1215 0 l 1042 0 l 694 347 l 347 0 l 174 0 m 608 955 l 608 1042 l 781 1215 l 955 1215 l 955 1128 l 781 955 l 608 955 z "},"ẃ":{"ha":1389,"x_min":174,"x_max":1215,"o":"m 174 174 l 174 868 l 347 868 l 347 260 l 434 174 l 608 174 l 608 868 l 781 868 l 781 174 l 955 174 l 1042 260 l 1042 868 l 1215 868 l 1215 174 l 1042 0 l 347 0 l 174 174 m 608 955 l 608 1042 l 781 1215 l 955 1215 l 955 1128 l 781 955 l 608 955 z "},"Ẅ":{"ha":1389,"x_min":174,"x_max":1215,"o":"m 174 0 l 174 868 l 347 868 l 347 260 l 608 521 l 608 781 l 781 781 l 781 521 l 1042 260 l 1042 868 l 1215 868 l 1215 0 l 1042 0 l 694 347 l 347 0 l 174 0 m 434 1042 l 434 1215 l 608 1215 l 608 1042 l 434 1042 m 781 1042 l 781 1215 l 955 1215 l 955 1042 l 781 1042 z "},"ẅ":{"ha":1389,"x_min":174,"x_max":1215,"o":"m 174 174 l 174 868 l 347 868 l 347 260 l 434 174 l 608 174 l 608 868 l 781 868 l 781 174 l 955 174 l 1042 260 l 1042 868 l 1215 868 l 1215 174 l 1042 0 l 347 0 l 174 174 m 434 1042 l 434 1215 l 608 1215 l 608 1042 l 434 1042 m 781 1042 l 781 1215 l 955 1215 l 955 1042 l 781 1042 z "},"ẛ":{"ha":1389,"x_min":347,"x_max":1042,"o":"m 347 0 l 347 174 l 608 174 l 608 434 l 347 434 l 347 608 l 608 608 l 608 781 l 694 868 l 1042 868 l 1042 694 l 781 694 l 781 174 l 1042 174 l 1042 0 l 347 0 m 608 1042 l 608 1215 l 781 1215 l 781 1042 l 608 1042 z "},"Ỳ":{"ha":1389,"x_min":174,"x_max":1215,"o":"m 174 781 l 174 868 l 347 868 l 694 521 l 1042 868 l 1215 868 l 1215 781 l 781 347 l 781 0 l 608 0 l 608 347 l 174 781 m 434 1128 l 434 1215 l 608 1215 l 781 1042 l 781 955 l 608 955 l 434 1128 z "},"ỳ":{"ha":1389,"x_min":347,"x_max":1042,"o":"m 347 -87 l 564 130 l 347 347 l 347 868 l 521 868 l 521 434 l 694 260 l 868 434 l 868 868 l 1042 868 l 1042 347 l 521 -174 l 347 -174 l 347 -87 m 434 1128 l 434 1215 l 608 1215 l 781 1042 l 781 955 l 608 955 l 434 1128 z "},"‐":{"ha":1389,"x_min":347,"x_max":1042,"o":"m 347 521 l 347 694 l 1042 694 l 1042 521 l 347 521 z "},"‑":{"ha":1389,"x_min":347,"x_max":1042,"o":"m 347 521 l 347 694 l 1042 694 l 1042 521 l 347 521 z "},"‒":{"ha":1389,"x_min":174,"x_max":1215,"o":"m 174 521 l 174 694 l 1215 694 l 1215 521 l 174 521 z "},"―":{"ha":1389,"x_min":87,"x_max":1302,"o":"m 87 521 l 87 694 l 1302 694 l 1302 521 l 87 521 z "},"‖":{"ha":1389,"x_min":434,"x_max":955,"o":"m 434 -174 l 434 1215 l 608 1215 l 608 -174 l 434 -174 m 781 -174 l 781 1215 l 955 1215 l 955 -174 l 781 -174 z "},"‗":{"ha":1389,"x_min":347,"x_max":1042,"o":"m 347 0 l 1042 0 l 1042 -174 l 347 -174 l 347 0 m 347 174 l 347 347 l 1042 347 l 1042 174 l 347 174 z "},"‛":{"ha":1389,"x_min":608,"x_max":781,"o":"m 608 955 l 608 1215 l 781 1215 l 781 868 l 694 868 l 608 955 z "},"‟":{"ha":1389,"x_min":434,"x_max":955,"o":"m 434 955 l 434 1215 l 608 1215 l 608 868 l 521 868 l 434 955 m 781 955 l 781 1215 l 955 1215 l 955 868 l 868 868 l 781 955 z "},"‣":{"ha":1389,"x_min":521,"x_max":868,"o":"m 521 260 l 521 955 l 868 608 l 521 260 z "},"․":{"ha":1389,"x_min":608,"x_max":781,"o":"m 608 0 l 608 174 l 781 174 l 781 0 l 608 0 z "},"‥":{"ha":1389,"x_min":434,"x_max":955,"o":"m 434 0 l 434 174 l 608 174 l 608 0 l 434 0 m 781 0 l 781 174 l 955 174 l 955 0 l 781 0 z "},"‧":{"ha":1389,"x_min":608,"x_max":781,"o":"m 608 521 l 608 694 l 781 694 l 781 521 l 608 521 z "},"‱":{"ha":1389,"x_min":174,"x_max":1215,"o":"m 174 1042 l 174 1215 l 347 1215 l 347 1042 l 174 1042 m 260 174 l 260 304 l 998 1042 l 1128 1042 l 1128 911 l 391 174 l 260 174 m 521 0 l 521 174 l 694 174 l 694 0 l 521 0 m 781 0 l 781 174 l 955 174 l 955 0 l 781 0 m 1042 0 l 1042 174 l 1215 174 l 1215 0 l 1042 0 z "},"′":{"ha":1389,"x_min":608,"x_max":781,"o":"m 608 868 l 608 1215 l 781 1215 l 781 1042 l 694 868 l 608 868 z "},"″":{"ha":1389,"x_min":434,"x_max":955,"o":"m 434 868 l 434 1215 l 608 1215 l 608 1042 l 521 868 l 434 868 m 781 868 l 781 1215 l 955 1215 l 955 1042 l 868 868 l 781 868 z "},"‴":{"ha":1389,"x_min":260,"x_max":1128,"o":"m 260 868 l 260 1215 l 434 1215 l 434 1042 l 347 868 l 260 868 m 608 868 l 608 1215 l 781 1215 l 781 1042 l 694 868 l 608 868 m 955 868 l 955 1215 l 1128 1215 l 1128 1042 l 1042 868 l 955 868 z "},"‵":{"ha":1389,"x_min":608,"x_max":781,"o":"m 608 1042 l 608 1215 l 781 1215 l 781 868 l 694 868 l 608 1042 z "},"‶":{"ha":1389,"x_min":434,"x_max":955,"o":"m 434 1042 l 434 1215 l 608 1215 l 608 868 l 521 868 l 434 1042 m 781 1042 l 781 1215 l 955 1215 l 955 868 l 868 868 l 781 1042 z "},"‷":{"ha":1389,"x_min":260,"x_max":1128,"o":"m 260 1042 l 260 1215 l 434 1215 l 434 868 l 347 868 l 260 1042 m 608 1042 l 608 1215 l 781 1215 l 781 868 l 694 868 l 608 1042 m 955 1042 l 955 1215 l 1128 1215 l 1128 868 l 1042 868 l 955 1042 z "},"‸":{"ha":1389,"x_min":347,"x_max":1042,"o":"m 347 -87 l 608 174 l 781 174 l 1042 -87 l 1042 -174 l 868 -174 l 694 0 l 521 -174 l 347 -174 l 347 -87 z "},"※":{"ha":1389,"x_min":87,"x_max":1302,"o":"m 87 521 l 87 694 l 260 694 l 260 521 l 87 521 m 260 174 l 260 304 l 564 608 l 260 911 l 260 1042 l 391 1042 l 694 738 l 998 1042 l 1128 1042 l 1128 911 l 825 608 l 1128 304 l 1128 174 l 998 174 l 694 477 l 391 174 l 260 174 m 608 0 l 608 174 l 781 174 l 781 0 l 608 0 m 608 1042 l 608 1215 l 781 1215 l 781 1042 l 608 1042 m 1128 521 l 1128 694 l 1302 694 l 1302 521 l 1128 521 z "},"‼":{"ha":1389,"x_min":434,"x_max":955,"o":"m 434 0 l 434 174 l 608 174 l 608 0 l 434 0 m 434 347 l 434 1215 l 608 1215 l 608 347 l 434 347 m 781 0 l 781 174 l 955 174 l 955 0 l 781 0 m 781 347 l 781 1215 l 955 1215 l 955 347 l 781 347 z "},"‽":{"ha":1389,"x_min":174,"x_max":1215,"o":"m 174 868 l 174 955 l 434 1215 l 1042 1215 l 1215 1042 l 1215 781 l 781 347 l 608 347 l 608 1042 l 521 1042 l 347 868 l 174 868 m 608 0 l 608 174 l 781 174 l 781 0 l 608 0 m 781 608 l 1042 868 l 1042 955 l 955 1042 l 781 1042 l 781 608 z "},"‾":{"ha":1389,"x_min":260,"x_max":1128,"o":"m 260 1042 l 260 1215 l 1128 1215 l 1128 1042 l 260 1042 z "},"‿":{"ha":1389,"x_min":174,"x_max":1215,"o":"m 174 174 l 174 260 l 347 260 l 434 174 l 955 174 l 1042 260 l 1215 260 l 1215 174 l 1042 0 l 347 0 l 174 174 z "},"⁀":{"ha":1389,"x_min":174,"x_max":1215,"o":"m 174 955 l 174 1042 l 347 1215 l 1042 1215 l 1215 1042 l 1215 955 l 1042 955 l 955 1042 l 434 1042 l 347 955 l 174 955 z "},"⁁":{"ha":1389,"x_min":347,"x_max":1042,"o":"m 347 -174 l 347 347 l 868 868 l 1042 868 l 1042 781 l 825 564 l 1042 347 l 1042 -174 l 868 -174 l 868 260 l 694 434 l 521 260 l 521 -174 l 347 -174 z "},"⁂":{"ha":1389,"x_min":87,"x_max":1302,"o":"m 87 0 l 87 130 l 217 260 l 87 391 l 87 521 l 217 521 l 347 391 l 477 521 l 608 521 l 608 391 l 477 260 l 608 130 l 608 0 l 477 0 l 347 130 l 217 0 l 87 0 m 434 694 l 434 825 l 564 955 l 434 1085 l 434 1215 l 564 1215 l 694 1085 l 825 1215 l 955 1215 l 955 1085 l 825 955 l 955 825 l 955 694 l 825 694 l 694 825 l 564 694 l 434 694 m 781 0 l 781 130 l 911 260 l 781 391 l 781 521 l 911 521 l 1042 391 l 1172 521 l 1302 521 l 1302 391 l 1172 260 l 1302 130 l 1302 0 l 1172 0 l 1042 130 l 911 0 l 781 0 z "},"⁃":{"ha":1389,"x_min":347,"x_max":1042,"o":"m 347 521 l 347 694 l 1042 694 l 1042 521 l 347 521 z "},"⁅":{"ha":1389,"x_min":434,"x_max":955,"o":"m 434 -174 l 434 1215 l 955 1215 l 955 1042 l 608 1042 l 608 608 l 955 608 l 955 434 l 608 434 l 608 0 l 955 0 l 955 -174 l 434 -174 z "},"⁆":{"ha":1389,"x_min":434,"x_max":955,"o":"m 434 0 l 781 0 l 781 434 l 434 434 l 434 608 l 781 608 l 781 1042 l 434 1042 l 434 1215 l 955 1215 l 955 -174 l 434 -174 l 434 0 z "},"⁇":{"ha":1389,"x_min":87,"x_max":1302,"o":"m 87 955 l 87 1042 l 260 1215 l 608 1215 l 694 1128 l 781 1215 l 1128 1215 l 1302 1042 l 1302 781 l 1042 521 l 1042 347 l 868 347 l 868 608 l 1128 868 l 1128 955 l 1042 1042 l 868 1042 l 781 955 l 781 781 l 521 521 l 521 347 l 347 347 l 347 608 l 608 868 l 608 955 l 521 1042 l 347 1042 l 260 955 l 87 955 m 347 0 l 347 174 l 521 174 l 521 0 l 347 0 m 868 0 l 868 174 l 1042 174 l 1042 0 l 868 0 z "},"⁈":{"ha":1389,"x_min":174,"x_max":1215,"o":"m 174 955 l 174 1042 l 347 1215 l 694 1215 l 868 1042 l 868 781 l 608 521 l 608 347 l 434 347 l 434 608 l 694 868 l 694 955 l 608 1042 l 434 1042 l 347 955 l 174 955 m 434 0 l 434 174 l 608 174 l 608 0 l 434 0 m 1042 0 l 1042 174 l 1215 174 l 1215 0 l 1042 0 m 1042 347 l 1042 1215 l 1215 1215 l 1215 347 l 1042 347 z "},"⁉":{"ha":1389,"x_min":174,"x_max":1215,"o":"m 174 0 l 174 174 l 347 174 l 347 0 l 174 0 m 174 347 l 174 1215 l 347 1215 l 347 347 l 174 347 m 521 955 l 521 1042 l 694 1215 l 1042 1215 l 1215 1042 l 1215 781 l 955 521 l 955 347 l 781 347 l 781 608 l 1042 868 l 1042 955 l 955 1042 l 781 1042 l 694 955 l 521 955 m 781 0 l 781 174 l 955 174 l 955 0 l 781 0 z "},"⁊":{"ha":1389,"x_min":347,"x_max":1042,"o":"m 347 694 l 347 868 l 1042 868 l 1042 434 l 694 87 l 694 -174 l 521 -174 l 521 174 l 868 521 l 868 694 l 347 694 z "},"⁋":{"ha":1389,"x_min":174,"x_max":1215,"o":"m 174 1042 l 174 1215 l 1042 1215 l 1215 1042 l 1215 694 l 1042 521 l 694 521 l 694 0 l 521 0 l 521 1042 l 434 1042 l 434 0 l 260 0 l 260 1042 l 174 1042 m 694 694 l 955 694 l 1042 781 l 1042 955 l 955 1042 l 694 1042 l 694 694 z "},"⁌":{"ha":1389,"x_min":174,"x_max":1215,"o":"m 174 434 l 174 781 l 347 955 l 1215 955 l 1215 781 l 1128 781 l 1128 434 l 1215 434 l 1215 260 l 347 260 l 174 434 m 347 521 l 434 434 l 694 434 l 694 781 l 434 781 l 347 694 l 347 521 m 868 434 l 955 434 l 955 781 l 868 781 l 868 434 z "},"⁍":{"ha":1389,"x_min":174,"x_max":1215,"o":"m 174 260 l 174 434 l 260 434 l 260 781 l 174 781 l 174 955 l 1042 955 l 1215 781 l 1215 434 l 1042 260 l 174 260 m 434 434 l 521 434 l 521 781 l 434 781 l 434 434 m 694 434 l 955 434 l 1042 521 l 1042 694 l 955 781 l 694 781 l 694 434 z "},"⁎":{"ha":1389,"x_min":260,"x_max":1128,"o":"m 260 260 l 260 391 l 477 608 l 260 825 l 260 955 l 391 955 l 608 738 l 608 1042 l 781 1042 l 781 738 l 998 955 l 1128 955 l 1128 825 l 911 608 l 1128 391 l 1128 260 l 998 260 l 781 477 l 781 174 l 608 174 l 608 477 l 391 260 l 260 260 z "},"⁏":{"ha":1389,"x_min":608,"x_max":781,"o":"m 608 -87 l 608 174 l 781 174 l 781 -174 l 694 -174 l 608 -87 m 608 868 l 608 1042 l 781 1042 l 781 868 l 608 868 z "},"⁐":{"ha":1389,"x_min":174,"x_max":1215,"o":"m 174 174 l 174 260 l 347 260 l 434 174 l 955 174 l 1042 260 l 1215 260 l 1215 174 l 1042 0 l 347 0 l 174 174 m 174 955 l 174 1042 l 347 1215 l 1042 1215 l 1215 1042 l 1215 955 l 1042 955 l 955 1042 l 434 1042 l 347 955 l 174 955 z "},"⁑":{"ha":1389,"x_min":434,"x_max":955,"o":"m 434 0 l 434 130 l 564 260 l 434 391 l 434 521 l 564 521 l 694 391 l 825 521 l 955 521 l 955 391 l 825 260 l 955 130 l 955 0 l 825 0 l 694 130 l 564 0 l 434 0 m 434 694 l 434 825 l 564 955 l 434 1085 l 434 1215 l 564 1215 l 694 1085 l 825 1215 l 955 1215 l 955 1085 l 825 955 l 955 825 l 955 694 l 825 694 l 694 825 l 564 694 l 434 694 z "},"⁒":{"ha":1389,"x_min":174,"x_max":1215,"o":"m 174 868 l 174 1042 l 347 1042 l 347 868 l 174 868 m 347 0 l 868 1215 l 1042 1215 l 521 0 l 347 0 m 1042 174 l 1042 347 l 1215 347 l 1215 174 l 1042 174 z "},"⁓":{"ha":1389,"x_min":347,"x_max":1042,"o":"m 347 434 l 347 521 l 521 694 l 651 694 l 802 542 l 868 608 l 1042 608 l 1042 521 l 868 347 l 738 347 l 587 500 l 521 434 l 347 434 z "},"⁔":{"ha":1389,"x_min":174,"x_max":1215,"o":"m 174 0 l 174 87 l 347 260 l 1042 260 l 1215 87 l 1215 0 l 1042 0 l 955 87 l 434 87 l 347 0 l 174 0 z "}}}
